<svg xmlns="http://www.w3.org/2000/svg" xmlns:xlink="http://www.w3.org/1999/xlink" viewBox="0 0 327.36 381.64"><defs><style>.cls-1{mask:url(#mask);filter:url(#luminosity-noclip-8);}.cls-10,.cls-12,.cls-14,.cls-2,.cls-4,.cls-6,.cls-8{mix-blend-mode:multiply;}.cls-2{fill:url(#Áåçûìÿííûé_ãðàäèåíò_2);}.cls-3{mask:url(#mask-2);filter:url(#luminosity-noclip-13);}.cls-4{fill:url(#Áåçûìÿííûé_ãðàäèåíò_2-2);}.cls-5{mask:url(#mask-3);filter:url(#luminosity-noclip-14);}.cls-6{fill:url(#Áåçûìÿííûé_ãðàäèåíò_2-3);}.cls-7{mask:url(#mask-4);filter:url(#luminosity-noclip-9);}.cls-8{fill:url(#Áåçûìÿííûé_ãðàäèåíò_2-4);}.cls-9{mask:url(#mask-5);filter:url(#luminosity-noclip-10);}.cls-10{fill:url(#Áåçûìÿííûé_ãðàäèåíò_2-5);}.cls-11{mask:url(#mask-6);filter:url(#luminosity-noclip-11);}.cls-12{fill:url(#Áåçûìÿííûé_ãðàäèåíò_2-6);}.cls-13{mask:url(#mask-7);filter:url(#luminosity-noclip-12);}.cls-14{fill:url(#Áåçûìÿííûé_ãðàäèåíò_4);}.cls-15{mask:url(#mask-8);}.cls-16{fill:url(#Áåçûìÿííûé_ãðàäèåíò_92);}.cls-17{mask:url(#mask-9);}.cls-18{fill:#e74a25;}.cls-19,.cls-26,.cls-40{fill:#00898d;}.cls-20{fill:#ff3c00;}.cls-21{fill:#004345;}.cls-22{fill:#dd2400;}.cls-23{fill:#ba2700;}.cls-24{fill:url(#Áåçûìÿííûé_ãðàäèåíò_65);}.cls-25{fill:url(#Áåçûìÿííûé_ãðàäèåíò_65-2);}.cls-26{opacity:0.32;}.cls-27{fill:url(#Áåçûìÿííûé_ãðàäèåíò_65-3);}.cls-28{fill:#ffd400;}.cls-29{mask:url(#mask-10);}.cls-30,.cls-32,.cls-60,.cls-62{opacity:0.66;}.cls-30{fill:url(#Áåçûìÿííûé_ãðàäèåíò_92-2);}.cls-31{mask:url(#mask-11);}.cls-32{fill:url(#Áåçûìÿííûé_ãðàäèåíò_92-3);}.cls-33{fill:url(#Áåçûìÿííûé_ãðàäèåíò_65-4);}.cls-34{fill:url(#Áåçûìÿííûé_ãðàäèåíò_65-5);}.cls-35{fill:url(#Áåçûìÿííûé_ãðàäèåíò_609);}.cls-36{mask:url(#mask-12);}.cls-37{fill:url(#Áåçûìÿííûé_ãðàäèåíò_614);}.cls-38{fill:url(#Áåçûìÿííûé_ãðàäèåíò_65-6);}.cls-39{fill:url(#Áåçûìÿííûé_ãðàäèåíò_64);}.cls-40{opacity:0.58;}.cls-41{fill:#fff;}.cls-42{fill:url(#Áåçûìÿííûé_ãðàäèåíò_8);}.cls-43{fill:url(#Áåçûìÿííûé_ãðàäèåíò_6);}.cls-44{fill:#ffb600;}.cls-45{fill:#ce2c00;}.cls-46{fill:#020023;}.cls-47{fill:url(#Áåçûìÿííûé_ãðàäèåíò_136);}.cls-48{fill:#ff9100;}.cls-49{fill:#ffb68e;}.cls-50{fill:#19437f;}.cls-51{fill:url(#Áåçûìÿííûé_ãðàäèåíò_70);}.cls-52{fill:url(#Áåçûìÿííûé_ãðàäèåíò_6-2);}.cls-53{fill:url(#Áåçûìÿííûé_ãðàäèåíò_6-3);}.cls-54{fill:url(#Áåçûìÿííûé_ãðàäèåíò_70-2);}.cls-55{fill:#172755;}.cls-56{fill:url(#Áåçûìÿííûé_ãðàäèåíò_136-2);}.cls-57{fill:url(#Áåçûìÿííûé_ãðàäèåíò_136-3);}.cls-58{fill:#ef8b59;}.cls-59{mask:url(#mask-13);}.cls-60{fill:url(#Áåçûìÿííûé_ãðàäèåíò_92-4);}.cls-61{mask:url(#mask-14);}.cls-62{fill:url(#Áåçûìÿííûé_ãðàäèåíò_92-5);}.cls-63{fill:url(#Áåçûìÿííûé_ãðàäèåíò_6-4);}.cls-64{fill:#050023;}.cls-65{filter:url(#luminosity-noclip-7);}.cls-66{filter:url(#luminosity-noclip-6);}.cls-67{filter:url(#luminosity-noclip-5);}.cls-68{filter:url(#luminosity-noclip-4);}.cls-69{filter:url(#luminosity-noclip-3);}.cls-70{filter:url(#luminosity-noclip-2);}.cls-71{filter:url(#luminosity-noclip);}</style><filter id="luminosity-noclip" x="102.78" y="-8427.89" width="1.46" height="32766" filterUnits="userSpaceOnUse" color-interpolation-filters="sRGB"><feFlood flood-color="#fff" result="bg"/><feBlend in="SourceGraphic" in2="bg"/></filter><mask id="mask" x="102.78" y="-8427.89" width="1.46" height="32766" maskUnits="userSpaceOnUse"><g class="cls-71"/></mask><linearGradient id="Áåçûìÿííûé_ãðàäèåíò_2" x1="102.92" y1="325.76" x2="104.33" y2="324.6" gradientUnits="userSpaceOnUse"><stop offset="0.06" stop-color="#fff"/><stop offset="0.43" stop-color="#a3a3a3"/><stop offset="1"/></linearGradient><filter id="luminosity-noclip-2" x="258.19" y="-8427.89" width="18.66" height="32766" filterUnits="userSpaceOnUse" color-interpolation-filters="sRGB"><feFlood flood-color="#fff" result="bg"/><feBlend in="SourceGraphic" in2="bg"/></filter><mask id="mask-2" x="258.19" y="-8427.89" width="18.66" height="32766" maskUnits="userSpaceOnUse"><g class="cls-70"/></mask><linearGradient id="Áåçûìÿííûé_ãðàäèåíò_2-2" x1="279.84" y1="41.49" x2="298.73" y2="41.49" gradientTransform="translate(-23.9 -16.82) rotate(-3.88)" xlink:href="#Áåçûìÿííûé_ãðàäèåíò_2"/><filter id="luminosity-noclip-3" x="280.2" y="-8427.89" width="4.47" height="32766" filterUnits="userSpaceOnUse" color-interpolation-filters="sRGB"><feFlood flood-color="#fff" result="bg"/><feBlend in="SourceGraphic" in2="bg"/></filter><mask id="mask-3" x="280.2" y="-8427.89" width="4.47" height="32766" maskUnits="userSpaceOnUse"><g class="cls-69"/></mask><linearGradient id="Áåçûìÿííûé_ãðàäèåíò_2-3" x1="302.24" y1="42.58" x2="306.06" y2="42.58" gradientTransform="translate(-23.9 -16.82) rotate(-3.88)" xlink:href="#Áåçûìÿííûé_ãðàäèåíò_2"/><filter id="luminosity-noclip-4" x="0" y="-8427.89" width="299.38" height="32766" filterUnits="userSpaceOnUse" color-interpolation-filters="sRGB"><feFlood flood-color="#fff" result="bg"/><feBlend in="SourceGraphic" in2="bg"/></filter><mask id="mask-4" x="0" y="-8427.89" width="299.38" height="32766" maskUnits="userSpaceOnUse"><g class="cls-68"/></mask><linearGradient id="Áåçûìÿííûé_ãðàäèåíò_2-4" x1="15.52" y1="400.31" x2="262.31" y2="195.23" xlink:href="#Áåçûìÿííûé_ãðàäèåíò_2"/><filter id="luminosity-noclip-5" x="274.44" y="-8427.89" width="50.51" height="32766" filterUnits="userSpaceOnUse" color-interpolation-filters="sRGB"><feFlood flood-color="#fff" result="bg"/><feBlend in="SourceGraphic" in2="bg"/></filter><mask id="mask-5" x="274.44" y="-8427.89" width="50.51" height="32766" maskUnits="userSpaceOnUse"><g class="cls-67"/></mask><linearGradient id="Áåçûìÿííûé_ãðàäèåíò_2-5" x1="-505.55" y1="-275.52" x2="-494.67" y2="-283.98" gradientTransform="matrix(-0.77, -0.64, -0.64, 0.77, -264.38, -41.57)" xlink:href="#Áåçûìÿííûé_ãðàäèåíò_2"/><filter id="luminosity-noclip-6" x="240.5" y="-8427.89" width="36.76" height="32766" filterUnits="userSpaceOnUse" color-interpolation-filters="sRGB"><feFlood flood-color="#fff" result="bg"/><feBlend in="SourceGraphic" in2="bg"/></filter><mask id="mask-6" x="240.5" y="-8427.89" width="36.76" height="32766" maskUnits="userSpaceOnUse"><g class="cls-66"/></mask><linearGradient id="Áåçûìÿííûé_ãðàäèåíò_2-6" x1="-495.59" y1="-223.32" x2="-481.22" y2="-234.51" gradientTransform="matrix(-0.77, -0.64, -0.64, 0.77, -264.38, -41.57)" xlink:href="#Áåçûìÿííûé_ãðàäèåíò_2"/><filter id="luminosity-noclip-7" x="269.12" y="-8427.89" width="13.02" height="32766" filterUnits="userSpaceOnUse" color-interpolation-filters="sRGB"><feFlood flood-color="#fff" result="bg"/><feBlend in="SourceGraphic" in2="bg"/></filter><mask id="mask-7" x="269.12" y="-8427.89" width="13.02" height="32766" maskUnits="userSpaceOnUse"><g class="cls-65"/></mask><linearGradient id="Áåçûìÿííûé_ãðàäèåíò_4" x1="-46.1" y1="-566.53" x2="-38.03" y2="-551.07" gradientTransform="matrix(0.51, 0.67, -0.53, 0.4, 1.4, 361.49)" gradientUnits="userSpaceOnUse"><stop offset="0.06" stop-color="#fff"/><stop offset="1"/></linearGradient><filter id="luminosity-noclip-8" x="102.78" y="324.15" width="1.46" height="2.67" filterUnits="userSpaceOnUse" color-interpolation-filters="sRGB"><feFlood flood-color="#fff" result="bg"/><feBlend in="SourceGraphic" in2="bg"/></filter><mask id="mask-8" x="102.78" y="324.15" width="1.46" height="2.67" maskUnits="userSpaceOnUse"><g class="cls-1"><path class="cls-2" d="M103.74,326.82q-.45-1.35-1-2.67c.48.29,1,.56,1.46.81C104.06,325.58,103.89,326.2,103.74,326.82Z"/></g></mask><linearGradient id="Áåçûìÿííûé_ãðàäèåíò_92" x1="102.92" y1="325.76" x2="104.33" y2="324.6" gradientUnits="userSpaceOnUse"><stop offset="0.06" stop-color="#fff"/><stop offset="0.43" stop-color="#fff"/><stop offset="1" stop-color="#fff"/></linearGradient><filter id="luminosity-noclip-9" x="0" y="190.01" width="299.38" height="191.63" filterUnits="userSpaceOnUse" color-interpolation-filters="sRGB"><feFlood flood-color="#fff" result="bg"/><feBlend in="SourceGraphic" in2="bg"/></filter><mask id="mask-9" x="0" y="190.01" width="299.38" height="191.63" maskUnits="userSpaceOnUse"><g class="cls-7"><path class="cls-8" d="M299.37,373.38a11.66,11.66,0,0,0-22.83-2.61,37.27,37.27,0,0,0-17.2-4.19c-.8,0-1.59,0-2.37.08,0,0,0-.05,0-.08a21.28,21.28,0,0,0-29-19.89,11.19,11.19,0,0,0,.1-1.43A11.67,11.67,0,1,0,211.84,356l-.25,0a18,18,0,0,0-9.09,2.47A23.34,23.34,0,0,0,184.94,339c0-.77.07-1.55.07-2.33a41.08,41.08,0,0,0-11-28,46.6,46.6,0,0,1-9-49.62l.18-.42c9.66-22.59,30.91-46.38,35.44-52.46a1.78,1.78,0,1,0-2.89-2.06c-4,5.28-21.32,25.63-45.3,41.64-8,5.32-19.55,7.25-30.61,7.65-13.34.48-26.24-4.12-36.92-12.13a38.54,38.54,0,0,0-32.91-6.42,23.54,23.54,0,0,0,.15-2.53,22.32,22.32,0,0,0-17.85-21.86,17.13,17.13,0,0,0,.18-2.39A18,18,0,0,0,0,200.81V381.64H159.36a42.67,42.67,0,0,0,.88-6.23,23,23,0,0,0,2.44,2.91,23.55,23.55,0,0,0,4.21,3.32h24.74a23,23,0,0,0,2.77-2,17,17,0,0,0,.79,2H296.55A11.6,11.6,0,0,0,299.37,373.38Z"/></g></mask><linearGradient id="Áåçûìÿííûé_ãðàäèåíò_65" x1="-533.74" y1="-198.02" x2="-495.14" y2="-198.02" gradientTransform="matrix(-0.77, -0.64, -0.64, 0.77, -264.38, -41.57)" gradientUnits="userSpaceOnUse"><stop offset="0.09" stop-color="#9cd9c7"/><stop offset="0.87" stop-color="#daffc8"/></linearGradient><linearGradient id="Áåçûìÿííûé_ãðàäèåíò_65-2" x1="-512.17" y1="-155.61" x2="-500.88" y2="-171.74" gradientTransform="matrix(1, 0, 0, -1, 741.96, 20.17)" xlink:href="#Áåçûìÿííûé_ãðàäèåíò_65"/><linearGradient id="Áåçûìÿííûé_ãðàäèåíò_65-3" x1="-519.36" y1="-224.81" x2="-493.36" y2="-224.81" xlink:href="#Áåçûìÿííûé_ãðàäèåíò_65"/><filter id="luminosity-noclip-10" x="274.44" y="56.27" width="50.51" height="33.49" filterUnits="userSpaceOnUse" color-interpolation-filters="sRGB"><feFlood flood-color="#fff" result="bg"/><feBlend in="SourceGraphic" in2="bg"/></filter><mask id="mask-10" x="274.44" y="56.27" width="50.51" height="33.49" maskUnits="userSpaceOnUse"><g class="cls-9"><path class="cls-10" d="M321.34,59.4s-17.91,8.27-29.72,17.19-14.9,13.17-14.9,13.17l-2.28-3.28s14-13.47,30.07-21.26,20.9-9.79,20.41-8.65S321.34,59.4,321.34,59.4Z"/></g></mask><linearGradient id="Áåçûìÿííûé_ãðàäèåíò_92-2" x1="-505.55" y1="-275.52" x2="-494.67" y2="-283.98" gradientTransform="matrix(-0.77, -0.64, -0.64, 0.77, -264.38, -41.57)" xlink:href="#Áåçûìÿííûé_ãðàäèåíò_92"/><filter id="luminosity-noclip-11" x="240.5" y="88.29" width="36.76" height="36.66" filterUnits="userSpaceOnUse" color-interpolation-filters="sRGB"><feFlood flood-color="#fff" result="bg"/><feBlend in="SourceGraphic" in2="bg"/></filter><mask id="mask-11" x="240.5" y="88.29" width="36.76" height="36.66" maskUnits="userSpaceOnUse"><g class="cls-11"><path class="cls-12" d="M277.26,92.51s-9.34,8.89-15.93,15.73S246.45,125,246.45,125l-5.95-4s13.93-13.91,22.66-22.43c7.9-7.72,10.94-10.26,10.94-10.26Z"/></g></mask><linearGradient id="Áåçûìÿííûé_ãðàäèåíò_92-3" x1="-495.59" y1="-223.32" x2="-481.22" y2="-234.51" gradientTransform="matrix(-0.77, -0.64, -0.64, 0.77, -264.38, -41.57)" xlink:href="#Áåçûìÿííûé_ãðàäèåíò_92"/><linearGradient id="Áåçûìÿííûé_ãðàäèåíò_65-4" x1="-512.29" y1="-153.76" x2="-501.56" y2="-169.08" gradientTransform="matrix(1, 0, 0, -1, 740.88, 23.15)" xlink:href="#Áåçûìÿííûé_ãðàäèåíò_65"/><linearGradient id="Áåçûìÿííûé_ãðàäèåíò_65-5" x1="-512.42" y1="-147.9" x2="-502.37" y2="-162.26" gradientTransform="matrix(1, 0, 0, -1, 737.24, 33.15)" xlink:href="#Áåçûìÿííûé_ãðàäèåíò_65"/><linearGradient id="Áåçûìÿííûé_ãðàäèåíò_609" x1="-444.39" y1="-235.1" x2="-431.19" y2="-225.84" gradientTransform="matrix(-0.77, -0.64, -0.64, 0.77, -213.9, 24.04)" gradientUnits="userSpaceOnUse"><stop offset="0.17" stop-color="#e0f3f4"/><stop offset="0.79" stop-color="#4d98a0"/></linearGradient><filter id="luminosity-noclip-12" x="269.12" y="106.39" width="13.02" height="6.08" filterUnits="userSpaceOnUse" color-interpolation-filters="sRGB"><feFlood flood-color="#fff" result="bg"/><feBlend in="SourceGraphic" in2="bg"/></filter><mask id="mask-12" x="269.12" y="106.39" width="13.02" height="6.08" maskUnits="userSpaceOnUse"><g class="cls-13"><path class="cls-14" d="M269.12,112.46s1.7-7.33,7.48-5.89a7.72,7.72,0,0,1,5.55,5.1,14.73,14.73,0,0,0-5.55-2.19C271.34,108.79,269.89,111.71,269.12,112.46Z"/></g></mask><linearGradient id="Áåçûìÿííûé_ãðàäèåíò_614" x1="-46.1" y1="-566.53" x2="-38.03" y2="-551.07" gradientTransform="matrix(0.51, 0.67, -0.53, 0.4, 1.4, 361.49)" gradientUnits="userSpaceOnUse"><stop offset="0.06" stop-color="#fff"/><stop offset="1" stop-color="#fff"/></linearGradient><linearGradient id="Áåçûìÿííûé_ãðàäèåíò_65-6" x1="-580.47" y1="-83.24" x2="-562.6" y2="-97.15" gradientTransform="matrix(-0.77, -0.54, -0.57, 0.82, -283.74, -23.5)" xlink:href="#Áåçûìÿííûé_ãðàäèåíò_65"/><linearGradient id="Áåçûìÿííûé_ãðàäèåíò_64" x1="-489.9" y1="-125.49" x2="-456.05" y2="-125.49" gradientTransform="matrix(-0.65, -0.65, -0.71, 0.71, -216.73, -27.58)" gradientUnits="userSpaceOnUse"><stop offset="0.25" stop-color="#9cd9c7"/><stop offset="0.62" stop-color="#daffc8"/></linearGradient><linearGradient id="Áåçûìÿííûé_ãðàäèåíò_8" x1="212.78" y1="133.08" x2="247.64" y2="133.08" gradientTransform="translate(-23.9 -16.82) rotate(-3.88)" gradientUnits="userSpaceOnUse"><stop offset="0.12" stop-color="#0a2d51"/><stop offset="0.86" stop-color="#19437f"/><stop offset="1" stop-color="#0a2d51"/></linearGradient><linearGradient id="Áåçûìÿííûé_ãðàäèåíò_6" x1="212.67" y1="135.66" x2="239.22" y2="135.66" gradientTransform="translate(-23.9 -16.82) rotate(-3.88)" gradientUnits="userSpaceOnUse"><stop offset="0.12" stop-color="#0a2d51"/><stop offset="1" stop-color="#0a2d51"/></linearGradient><linearGradient id="Áåçûìÿííûé_ãðàäèåíò_136" x1="219.29" y1="83.82" x2="253.7" y2="83.82" gradientTransform="translate(-23.9 -16.82) rotate(-3.88)" gradientUnits="userSpaceOnUse"><stop offset="0.11" stop-color="#ffffa4"/><stop offset="0.41" stop-color="#ffd234"/><stop offset="0.8" stop-color="#ff9200"/></linearGradient><linearGradient id="Áåçûìÿííûé_ãðàäèåíò_70" x1="222.3" y1="85.69" x2="257.44" y2="56.88" gradientTransform="translate(-23.9 -16.82) rotate(-3.88)" gradientUnits="userSpaceOnUse"><stop offset="0.12" stop-color="#0a2d51"/><stop offset="0.49" stop-color="#19437f"/></linearGradient><linearGradient id="Áåçûìÿííûé_ãðàäèåíò_6-2" x1="248.81" y1="77.5" x2="255.74" y2="77.5" xlink:href="#Áåçûìÿííûé_ãðàäèåíò_6"/><linearGradient id="Áåçûìÿííûé_ãðàäèåíò_6-3" x1="251.59" y1="61.73" x2="277.27" y2="61.73" xlink:href="#Áåçûìÿííûé_ãðàäèåíò_6"/><linearGradient id="Áåçûìÿííûé_ãðàäèåíò_70-2" x1="197.55" y1="78.55" x2="236.44" y2="57.84" xlink:href="#Áåçûìÿííûé_ãðàäèåíò_70"/><linearGradient id="Áåçûìÿííûé_ãðàäèåíò_136-2" x1="241.83" y1="58.52" x2="234.09" y2="66.28" xlink:href="#Áåçûìÿííûé_ãðàäèåíò_136"/><linearGradient id="Áåçûìÿííûé_ãðàäèåíò_136-3" x1="246.91" y1="59.12" x2="242.61" y2="64.95" xlink:href="#Áåçûìÿííûé_ãðàäèåíò_136"/><filter id="luminosity-noclip-13" x="258.19" y="2.83" width="18.66" height="4.08" filterUnits="userSpaceOnUse" color-interpolation-filters="sRGB"><feFlood flood-color="#fff" result="bg"/><feBlend in="SourceGraphic" in2="bg"/></filter><mask id="mask-13" x="258.19" y="2.83" width="18.66" height="4.08" maskUnits="userSpaceOnUse"><g class="cls-3"><path class="cls-4" d="M258.19,6.92s4.85-.22,9.16-.34,9.49-3.75,9.49-3.75Z"/></g></mask><linearGradient id="Áåçûìÿííûé_ãðàäèåíò_92-4" x1="279.84" y1="41.49" x2="298.73" y2="41.49" gradientTransform="translate(-23.9 -16.82) rotate(-3.88)" xlink:href="#Áåçûìÿííûé_ãðàäèåíò_92"/><filter id="luminosity-noclip-14" x="280.2" y="0" width="4.47" height="10.03" filterUnits="userSpaceOnUse" color-interpolation-filters="sRGB"><feFlood flood-color="#fff" result="bg"/><feBlend in="SourceGraphic" in2="bg"/></filter><mask id="mask-14" x="280.2" y="0" width="4.47" height="10.03" maskUnits="userSpaceOnUse"><g class="cls-5"><path class="cls-6" d="M280.2.44s1.59,4.4,2.47,6.34a14.46,14.46,0,0,0,2,3.25L282.75,0Z"/></g></mask><linearGradient id="Áåçûìÿííûé_ãðàäèåíò_92-5" x1="302.24" y1="42.58" x2="306.06" y2="42.58" gradientTransform="translate(-23.9 -16.82) rotate(-3.88)" xlink:href="#Áåçûìÿííûé_ãðàäèåíò_92"/><linearGradient id="Áåçûìÿííûé_ãðàäèåíò_6-4" x1="238.92" y1="112.93" x2="276.51" y2="112.93" xlink:href="#Áåçûìÿííûé_ãðàäèåíò_6"/></defs><g id="Layer_2" data-name="Layer 2"><g id="Ñëîé_1" data-name="Ñëîé 1"><g class="cls-15"><path class="cls-16" d="M103.74,326.82q-.45-1.35-1-2.67c.48.29,1,.56,1.46.81C104.06,325.58,103.89,326.2,103.74,326.82Z"/></g><g class="cls-17"><path class="cls-18" d="M299.37,373.38a11.66,11.66,0,0,0-22.83-2.61,37.27,37.27,0,0,0-17.2-4.19c-.8,0-1.59,0-2.37.08,0,0,0-.05,0-.08a21.28,21.28,0,0,0-29-19.89,11.19,11.19,0,0,0,.1-1.43A11.67,11.67,0,1,0,211.84,356l-.25,0a18,18,0,0,0-9.09,2.47A23.34,23.34,0,0,0,184.94,339c0-.77.07-1.55.07-2.33a41.08,41.08,0,0,0-11-28,46.6,46.6,0,0,1-9-49.62l.18-.42c9.66-22.59,30.91-46.38,35.44-52.46a1.78,1.78,0,1,0-2.89-2.06c-4,5.28-21.32,25.63-45.3,41.64-8,5.32-19.55,7.25-30.61,7.65-13.34.48-26.24-4.12-36.92-12.13a38.54,38.54,0,0,0-32.91-6.42,23.54,23.54,0,0,0,.15-2.53,22.32,22.32,0,0,0-17.85-21.86,17.13,17.13,0,0,0,.18-2.39A18,18,0,0,0,0,200.81V381.64H159.36a42.67,42.67,0,0,0,.88-6.23,23,23,0,0,0,2.44,2.91,23.55,23.55,0,0,0,4.21,3.32h24.74a23,23,0,0,0,2.77-2,17,17,0,0,0,.79,2H296.55A11.6,11.6,0,0,0,299.37,373.38Z"/></g><circle class="cls-18" cx="17.09" cy="179" r="6.21"/><circle class="cls-18" cx="61.88" cy="223.57" r="6.21"/><circle class="cls-18" cx="66.35" cy="255.96" r="9.73" transform="matrix(0.99, -0.16, 0.16, 0.99, -40.14, 13.93)"/><path class="cls-18" d="M235,381.64a12.33,12.33,0,0,0-22.12-8.76,17.12,17.12,0,0,0-2-2.35,17.65,17.65,0,0,0-20.77-3.09A27.7,27.7,0,0,0,163,334.3h-.46a8.46,8.46,0,1,0-5.23.57,27.72,27.72,0,0,0-18.56,13.74c-.41-.23-.83-.44-1.25-.64a15.65,15.65,0,0,0-4.5-15.81,31.49,31.49,0,0,0,17.59-40.86h0c-2.45-14.2,1.94-26.66,14.48-43.32,18.84-25,25.63-33.43,25.63-33.43S171.12,235.46,155,248s-30.86,13.82-30.86,13.82h0a17.64,17.64,0,0,0-13.49,9.23,17.94,17.94,0,0,0-31.61-.39,10.15,10.15,0,0,0-5.43-1.57,10.26,10.26,0,0,0-10,8.12l-1.11.09c0-.06,0-.13,0-.19A17.65,17.65,0,0,0,35.3,262.25a23.26,23.26,0,0,0-9.24-15.36,17.65,17.65,0,0,0-25.86-24L0,381.64Z"/><path class="cls-19" d="M202.19,190.69l5.13,6.14,6.93,3.91a2.78,2.78,0,0,1,1,4l-15.56,22.43s-6.68-6.85-9.52-9.22-11.17-8-11.17-8l19.15-19.5A2.72,2.72,0,0,1,202.19,190.69Z"/><path class="cls-20" d="M228.5,171.25c-.75,13.94-12.83,32.58-12.83,32.58h0a40.36,40.36,0,0,1-16.74-13.93h0S215.57,174.15,228.5,171.25Z"/><path class="cls-21" d="M215.66,203.83s3-4.29-1.46,2.42c-12.12,18.25-14.48,20.88-14.48,20.88a66.22,66.22,0,0,0-9.53-9.22l15.31-18.09,1.23-1.49A40.35,40.35,0,0,0,215.66,203.83Z"/><path class="cls-22" d="M206.73,198.33c8.57-10.58,16.69-25.07,17.34-25.67a29,29,0,0,1,4.43-1.41l0,.35c-.13,1.49-.9,7.64-4.64,16.73a116.48,116.48,0,0,1-8.17,15.5A40.35,40.35,0,0,1,206.73,198.33Z"/><path class="cls-21" d="M179,209.91c-.46.56,3.79,4.87,9.5,9.63s10.73,8.15,11.19,7.59-3.79-4.87-9.51-9.62S179.49,209.35,179,209.91Z"/><rect class="cls-20" x="233.86" y="131.62" width="22.24" height="40.31" transform="translate(335 425.53) rotate(-139.98)"/><path class="cls-23" d="M245.46,156.19s.89-1.11.42-2-8.52-8-8.52-8,9.88,6.19,12,8a18,18,0,0,1,3.69,5.41l-1.55,1.66Z"/><polygon class="cls-24" points="231.19 138.18 257.75 160.26 260.68 163.09 282.7 136.87 253.13 112.04 231.19 138.18"/><rect class="cls-25" x="216.43" y="148.5" width="22.24" height="48.07" transform="translate(290.88 450.98) rotate(-139.98)"/><path class="cls-26" d="M241.63,153a22.42,22.42,0,0,1-3.38,9.32c-3,4.77-26.15,28.64-26.15,28.64l8.51,7.16,30.91-36.81Z"/><path class="cls-27" d="M279.81,87.77l10,11.73L303,107.29c2.76,1.62,3.78,5,2.19,7.34l-27.44,39.65s-12.94-13.17-18.42-17.77S238,120.84,238,120.84L272.31,86.9C274.27,85,277.76,85.38,279.81,87.77Z"/><path class="cls-20" d="M327.35,58c-2.08,24.9-21.47,55.06-21.47,55.06h0A84.88,84.88,0,0,1,273.66,86h0s27.26-24.84,50.53-30.71A2.56,2.56,0,0,1,327.35,58Z"/><path class="cls-21" d="M277.78,154.28l-7.44-2.69s-6.75-6.91-13.66-12.62c-9.07-7.51-15.9-12.22-15.9-12.22L238,120.84l1.67,1a147.17,147.17,0,0,1,38.15,32.46Z"/><path class="cls-21" d="M253.07,159.62a71.64,71.64,0,0,0-7.75-7.31,83.44,83.44,0,0,0-9.34-7.05l-1.86-4.61a108.55,108.55,0,0,1,23.81,19.75Z"/><path class="cls-26" d="M303.53,111.87c-12.88,23-25.75,42.41-25.75,42.41s-5.92-6.73-9.39-10.22a82.61,82.61,0,0,0-7.42-6.89s13.74-11.53,30.71-32.73A84.76,84.76,0,0,0,303.53,111.87Z"/><path class="cls-22" d="M296.75,97.93c9.63-12.7,24.88-37,29-40.06a.57.57,0,0,1,.91.53c-.41,3.75-3.16,22.4-18.94,47-1.43,2.23-2.84,4.38-4.23,6.48a84.76,84.76,0,0,1-11.85-7.43C293.34,102.36,295,100.19,296.75,97.93Z"/><circle class="cls-20" cx="274.33" cy="117.22" r="15.31" transform="translate(-7.24 18.64) rotate(-3.84)"/><path class="cls-26" d="M248.68,151.33s3.4-5.26,3-11c-.28-4-3.87-7.92-6-9.91-.92-.85-1.57-1.35-1.57-1.35s10.51,7.87,15.75,12.53,10.49,10,10.49,10l-9.66,11.5S252.84,154.85,248.68,151.33Z"/><rect class="cls-21" x="274.17" y="128.74" width="28.96" height="3.21" transform="translate(576.06 -2.69) rotate(130.86)"/><rect class="cls-28" x="294.85" y="119.23" width="2.71" height="2.9" transform="translate(581.25 -24.39) rotate(130.86)"/><rect class="cls-28" x="292.55" y="121.88" width="2.71" height="2.9" transform="translate(579.46 -18.26) rotate(130.86)"/><rect class="cls-28" x="290.25" y="124.54" width="2.71" height="2.9" transform="translate(577.67 -12.13) rotate(130.86)"/><rect class="cls-28" x="287.96" y="127.19" width="2.71" height="2.9" transform="translate(575.87 -6) rotate(130.86)"/><rect class="cls-28" x="285.66" y="129.85" width="2.71" height="2.9" transform="translate(574.08 0.13) rotate(130.86)"/><rect class="cls-28" x="283.36" y="132.5" width="2.71" height="2.9" transform="translate(572.29 6.26) rotate(130.86)"/><rect class="cls-28" x="281.06" y="135.16" width="2.71" height="2.9" transform="translate(570.5 12.39) rotate(130.86)"/><rect class="cls-28" x="278.77" y="137.82" width="2.71" height="2.9" transform="translate(568.71 18.52) rotate(130.86)"/><g class="cls-29"><path class="cls-30" d="M321.34,59.4s-17.91,8.27-29.72,17.19-14.9,13.17-14.9,13.17l-2.28-3.28s14-13.47,30.07-21.26,20.9-9.79,20.41-8.65S321.34,59.4,321.34,59.4Z"/></g><g class="cls-31"><path class="cls-32" d="M277.26,92.51s-9.34,8.89-15.93,15.73S246.45,125,246.45,125l-5.95-4s13.93-13.91,22.66-22.43c7.9-7.72,10.94-10.26,10.94-10.26Z"/></g><path class="cls-21" d="M234.16,147.36l17,14.31a.51.51,0,0,0,.72-.07.5.5,0,0,0-.06-.72l-17-14.3a.52.52,0,0,0-.72.06A.51.51,0,0,0,234.16,147.36Z"/><rect class="cls-33" x="213.04" y="152.99" width="26.85" height="41.67" transform="translate(288.12 452.57) rotate(-139.98)"/><path class="cls-26" d="M238.2,156.47a16.9,16.9,0,0,1-2,8.83c-2.42,4.3-23.09,24.48-23.09,24.48l10.28,8.64,26.8-31.92Z"/><path class="cls-21" d="M229.18,149.7,249.75,167a.61.61,0,1,0,.79-.94L230,148.76a.62.62,0,0,0-.8.94Z"/><rect class="cls-34" x="208.43" y="159.92" width="28.79" height="36.48" transform="translate(278.91 457.88) rotate(-139.98)"/><path class="cls-26" d="M232.77,162.7a14.3,14.3,0,0,1-1.16,8.25c-2,3.87-20.51,21.18-20.51,21.18l11,9.25,23.46-27.93Z"/><path class="cls-21" d="M201.19,183.88c-.47.56,3.79,4.87,9.5,9.63s10.72,8.15,11.19,7.59-3.79-4.87-9.51-9.62S201.65,183.32,201.19,183.88Z"/><path class="cls-21" d="M223.1,155.44,245.15,174a.66.66,0,1,0,.85-1L224,154.43a.65.65,0,0,0-.93.08A.66.66,0,0,0,223.1,155.44Z"/><path class="cls-23" d="M272.19,109.41c2.91-3.78,7-3.26,10.24-.36s4.52,7.1,1.61,10.88a7.09,7.09,0,0,1-.71.82v0a6.52,6.52,0,0,1-2.08,1.58,6.94,6.94,0,0,1-.83.39c-1.36.59-4.86,1.71-6.22,2.39a17,17,0,0,0-4.55,3.79,2.28,2.28,0,0,1-.84.6l-.41.17a1.38,1.38,0,0,1-1.38-.2L263.89,127a1.05,1.05,0,0,1,0-1.63c1.73-1.48,5.2-4.67,5.69-6.81.66-2.87.5-6.06,2-8.19h0A9,9,0,0,1,272.19,109.41Z"/><path class="cls-28" d="M270.36,107.82c2.9-3.78,7-3.27,10.24-.36s4.51,7.1,1.61,10.88a8,8,0,0,1-.71.82h0a6.82,6.82,0,0,1-2.08,1.59c-.27.14-.55.27-.83.39-1.36.59-2.87,1-4.24,1.72-2.49,1.23-2.62,1.86-2.62,1.86l-2.6-2.31-2.63-2.33s.57-.23,1.23-3.11.49-6,2-8.19h0A10.11,10.11,0,0,1,270.36,107.82Z"/><path class="cls-35" d="M266.92,119.5a8.47,8.47,0,0,0,2.18,2.91,7.76,7.76,0,0,0,3.08,1.75s.25,1.47-.18,1.58-.51,0-.51,0-2.09,3-3.41,3.19-2.72-1.25-2.93-1.46a4.86,4.86,0,0,1-1.77-2.72c-.12-1.41,2.27-4.2,2.27-4.2s-.14-.05-.13-.53S266.92,119.5,266.92,119.5Z"/><path d="M270.49,123.57c.34-.41,2.21-2.63,4-4.53a4.27,4.27,0,0,1-.38-1.16,1.85,1.85,0,0,1-.69.09,1,1,0,0,1-.77-.42l.47-.33a.47.47,0,0,0,.35.17,1.46,1.46,0,0,0,.59-.11,2.15,2.15,0,0,1,.4-1.19c.4-.58,1.15-1.55,1.66-1.53a.43.43,0,0,1,.35.21c.31.51-.37,1.59-.94,2.2a3.85,3.85,0,0,1-.86.67,3.09,3.09,0,0,0,.26,1,11.35,11.35,0,0,1,2.86-2.37c.85-.29,1.15.09,1.23.27.38.77-.64,2.25-2.26,3.29a1.4,1.4,0,0,1-1.44.13,1.71,1.71,0,0,1-.48-.38c-1.51,1.58-3.12,3.43-3.94,4.41Zm7.54-6.79a11.73,11.73,0,0,0-2.75,2.33,1.23,1.23,0,0,0,.34.28.83.83,0,0,0,.86-.11c1.66-1,2.19-2.25,2.06-2.53,0,0,0,0-.07,0A.81.81,0,0,0,278,116.78Zm-3-.36a1.77,1.77,0,0,0-.24.5,3.42,3.42,0,0,0,.4-.36,3.79,3.79,0,0,0,.84-1.31A6.52,6.52,0,0,0,275,116.42Z"/><path d="M267.54,121c.74-1.07,2.14-3.13,3.3-5a1.78,1.78,0,0,1-.38-.34,1.6,1.6,0,0,1-.23-1.61c.64-1.88,1.76-3.21,2.56-3,.27.05.64.29.54,1.22a12.77,12.77,0,0,1-1.65,3.51,3,3,0,0,0,.91.1,3.66,3.66,0,0,1,.44-1c.45-.73,1.35-1.64,1.87-1.42a.42.42,0,0,1,.26.3c.12.53-.71,1.58-1.08,2a1.9,1.9,0,0,1-1,.65,1.84,1.84,0,0,0,0,.71.49.49,0,0,0,.22.33l-.28.52a1,1,0,0,1-.5-.69,2.31,2.31,0,0,1-.06-.8,3.25,3.25,0,0,1-1.1-.18c-1.47,2.42-3.23,4.94-3.35,5.11Zm5.13-9.45c-.28-.06-1.25.77-1.88,2.65a1,1,0,0,0,.13,1,1.1,1.1,0,0,0,.22.21,12.25,12.25,0,0,0,1.6-3.32c.05-.42,0-.58-.07-.59Zm.86,3.54a3,3,0,0,0-.27.54,1.63,1.63,0,0,0,.38-.33,6,6,0,0,0,.89-1.31A3.69,3.69,0,0,0,273.53,115.07Z"/><path d="M271.31,125.88a.28.28,0,0,0,.34-.18.29.29,0,0,0-.17-.38,11.84,11.84,0,0,1-3-2,11.28,11.28,0,0,1-2.54-3,.29.29,0,0,0-.52.26,11.35,11.35,0,0,0,2.68,3.16,12.22,12.22,0,0,0,3.22,2.08Z"/><path d="M269.62,126.65a.3.3,0,0,0,.34-.17.29.29,0,0,0-.15-.38,9.15,9.15,0,0,1-4.12-3.83.29.29,0,0,0-.39-.15.3.3,0,0,0-.14.39,9.18,9.18,0,0,0,1.62,2.17,9.48,9.48,0,0,0,2.8,1.95Z"/><path d="M269.14,127.27a.29.29,0,0,0,.34-.17.28.28,0,0,0-.15-.38,9.39,9.39,0,0,1-2.6-1.82,8.85,8.85,0,0,1-1.51-2,.3.3,0,0,0-.54.24,9.18,9.18,0,0,0,1.62,2.17,9.53,9.53,0,0,0,2.8,2Z"/><path d="M268.67,127.89a.3.3,0,0,0,.34-.17.29.29,0,0,0-.16-.38,9.39,9.39,0,0,1-2.6-1.82,8.6,8.6,0,0,1-1.51-2,.29.29,0,0,0-.39-.14.28.28,0,0,0-.14.38,8.51,8.51,0,0,0,1.62,2.17,9.55,9.55,0,0,0,2.79,2Z"/><g class="cls-36"><path class="cls-37" d="M269.12,112.46s1.7-7.33,7.48-5.89a7.72,7.72,0,0,1,5.55,5.1,14.73,14.73,0,0,0-5.55-2.19C271.34,108.79,269.89,111.71,269.12,112.46Z"/></g><path class="cls-21" d="M286.4,100.68l1.44,1.2c12.72,10.4,17.72,11.66,17.93,11.7a.5.5,0,0,0,.61-.38.52.52,0,0,0-.38-.61h0c-.05,0-5.05-1.31-17.52-11.5s-14.32-15.18-14.33-15.22a.51.51,0,1,0-1,.33C273.25,86.4,275,91.07,286.4,100.68Z"/><path class="cls-38" d="M213.68,204.46l5.16,5.55,6.73,3.14a2.76,2.76,0,0,1,1.18,3.82l-13.39,23.95s-6.65-6.09-9.46-8.14S193,226,193,226l16.94-21.41A2.46,2.46,0,0,1,213.68,204.46Z"/><path class="cls-20" d="M237.34,182.34c.06,13.93-10.27,33.73-10.27,33.73h0a35.5,35.5,0,0,1-16.5-12h0S225.35,186.6,237.34,182.34Z"/><path class="cls-39" d="M188.32,180l4.18,6,6.23,4a2.47,2.47,0,0,1,.46,3.76L181,214.08s-5.59-6.77-8-9.14-9.8-8.08-9.8-8.08l21.33-17.33A2.66,2.66,0,0,1,188.32,180Z"/><path class="cls-20" d="M216.62,163.08C214,176.14,199.68,193,199.68,193h0a34.33,34.33,0,0,1-14.43-13.93h0S203.62,165.15,216.62,163.08Z"/><path class="cls-26" d="M227.07,216.07a127.44,127.44,0,0,0,6.82-16.26,113.35,113.35,0,0,1-8.07,18.83c-10.38,19.41-12.46,22.28-12.46,22.28a59.45,59.45,0,0,0-9.46-8.14l13.39-19.6c.36-.53.72-1.07,1.07-1.62A35,35,0,0,0,227.07,216.07Z"/><path class="cls-40" d="M268.81,205.68c0-.12,0-.24,0-.35S268.82,205.45,268.81,205.68Z"/><path class="cls-22" d="M218.36,211.56c7.48-11.43,14.31-26.69,14.89-27.35a28.35,28.35,0,0,1,4.09-1.87c0,.11,0,.23,0,.35-.05,1.5-.42,7.69-3.44,17.12a127.44,127.44,0,0,1-6.82,16.26A35,35,0,0,1,218.36,211.56Z"/><path class="cls-40" d="M185.69,179.86l-2.42,1.74c-17.6,12.65-20.14,15.26-20.14,15.26a56.17,56.17,0,0,1,9.13,7.63l17-16.06c.46-.43,1.42-1.12,1.9-1.55A29.29,29.29,0,0,1,185.69,179.86Z"/><path class="cls-22" d="M191.17,186.88c7.74-7,16.29-13.32,20-16.06a10.15,10.15,0,0,0,2.64-2.9l0,0a1.46,1.46,0,0,0-1.55-2.18c-2.09.44-5.78,1.47-12,4.79a135.66,135.66,0,0,0-14.56,9.38A29.29,29.29,0,0,0,191.17,186.88Z"/><path class="cls-20" d="M163.09,197c-.53.5,3,4.75,7.91,9.48s9.3,8.15,9.82,7.64-3-4.74-7.91-9.47S163.62,196.48,163.09,197Z"/><path class="cls-20" d="M192.9,226.12c-.41.6,3.82,4.43,9.45,8.54s10.53,7,10.94,6.35-3.83-4.43-9.46-8.54S193.3,225.51,192.9,226.12Z"/><path class="cls-40" d="M257,201.77c0-.11,0-.24,0-.35S257.06,201.54,257,201.77Z"/><path class="cls-41" d="M201.46,219.82a.51.51,0,0,0,.68-.14A185.84,185.84,0,0,1,215,203.57a56.16,56.16,0,0,1,11.94-10,.51.51,0,0,0,.19-.69.5.5,0,0,0-.69-.2,57.42,57.42,0,0,0-12.19,10.16,189.18,189.18,0,0,0-12.91,16.21.51.51,0,0,0,.12.71Z"/><path class="cls-41" d="M282.35,81.4a.52.52,0,0,0,.68,0c15.73-14.89,39-22.79,39.24-22.86a.51.51,0,0,0,.32-.65.5.5,0,0,0-.64-.32c-.24.08-23.73,8-39.62,23.09a.52.52,0,0,0,0,.72Z"/><path class="cls-41" d="M234.5,138.57h0a.52.52,0,0,0,.72-.08c2.42-3,6.47-8,7-8.38a.5.5,0,0,0,.21-.68.52.52,0,0,0-.7-.21c-.6.3-4.83,5.53-7.3,8.63A.52.52,0,0,0,234.5,138.57Z"/><polygon class="cls-40" points="234.31 140.88 244.7 130 243.13 128.65 231.19 138.18 234.31 140.88"/><path class="cls-42" d="M206.12,69.3s-1,10.36.15,17.67,2.7,20.4.73,28.45-6.36,25.15-6.91,25.62,7-1.19,7-1.19,11.39-20.15,12.69-30.41,1-27.83,2.48-29.86,6.29-3.74,7.5-8.1c1.57-5.61-2.78-11.67-2.78-11.67S207.43,66.13,206.12,69.3Z"/><path class="cls-43" d="M221.48,66.07a24.81,24.81,0,0,1-5.14,4.42c-2.68,1.57-5.07,5.91-5.55,8.49s2.54,23.22,2.67,24.74,4.17,3.12,3.27,3.41-6,1.75-4.79,1.75,4.92.68,3.73,1.34-6,2-5.1,2.35,4.6,1.28,2.74,1.74-5.24,12.1-6.31,16.44a22.29,22.29,0,0,0,.07,9.1L200,141.27s7.51-26.9,7.73-30-1.94-24.63-2.48-29.19a35.6,35.6,0,0,1-.28-8s9-7.85,12.06-8.42S221.48,66.07,221.48,66.07Z"/><polygon class="cls-44" points="161.89 59.39 161.07 59.02 160.02 61.12 160.84 61.49 161.89 59.39"/><polygon class="cls-44" points="171.43 64.82 170.61 64.45 169.96 65.75 170.78 66.13 171.43 64.82"/><polygon class="cls-20" points="169.18 84.45 144.02 73.09 151.66 57.82 176.83 69.18 169.18 84.45"/><polygon class="cls-20" points="173.42 77.44 147.15 65.58 151.62 56.64 177.9 68.5 173.42 77.44"/><path class="cls-45" d="M145.57,70s3.71,2.24,12.35,4.13c7.36,1.61,10,.84,10,.84l-20.29-9.15Z"/><polygon class="cls-44" points="161.26 74.15 158.24 72.79 160.04 69.2 163.06 70.56 161.26 74.15"/><path class="cls-41" d="M160.2,69.27A6.24,6.24,0,0,0,160,72.1,2.64,2.64,0,0,0,161.32,74l1.74-3.47Z"/><polygon class="cls-20" points="173.66 62.25 161.44 56.74 159.9 59.81 161.91 60.71 162.89 58.87 171.01 62.53 170.04 64.38 172.12 65.32 173.66 62.25"/><polygon class="cls-20" points="161.28 62.08 169.4 65.74 169.68 65.2 161.55 61.53 161.28 62.08"/><polygon class="cls-46" points="227.31 62.61 232.6 44.6 232.88 60.62 227.31 62.61"/><path class="cls-47" d="M227.76,62.07a78.93,78.93,0,0,0,6.09-21.46c1.45-11.68-6.17-13.25-6.74-13.51-3.88-1.74-18.89-.76-19.78,1-2.15,4.34,5.77,13.89,6,24.12.19,7-9.13,21.52-10.69,22.95-2.57,2.36,5.3,2.17,13-8,.84-1.1,1.83.06,4.8-1.11a13.15,13.15,0,0,0,2.61-1.63A20.12,20.12,0,0,1,227.76,62.07Z"/><polygon class="cls-48" points="224.86 30.36 230.93 40.74 224.67 27.11 224.86 30.36"/><path class="cls-48" d="M213.33,65.76s7.49-10.74,9.84-17a25.7,25.7,0,0,0,1-13.93,13.37,13.37,0,0,1,.09-4.27l-3.32-1.38-3.57-.07S213.8,63.26,213.33,65.76Z"/><path class="cls-49" d="M216.45,26.38s3.32-6.66,3.39-9,0-7.26,3.93-7.95,5.07,3,5.28,4.39.55,5.33.3,5.39-1.08-.55-1.08-.55.13,2.46-1,3.22a3.54,3.54,0,0,1-2.52.44s-1.44,3.34-1.26,4.37a19.92,19.92,0,0,0,1.34,3.4S217.25,30.18,216.45,26.38Z"/><path class="cls-50" d="M215.81,25.91s5.69,7.31,7,12.27-8.45,28.2-11.94,31.08-9,4.19-9,4.19S207.5,55.3,208.22,46s-2.82-15.86-.35-18.54S215.81,25.91,215.81,25.91Z"/><path class="cls-50" d="M224.44,26A85.44,85.44,0,0,0,230,37.83c2.62,4.13,2.82,22.79,2.82,22.79l1-.53s2-21.71,1.53-25.81S232,27,230.51,26.86,224.44,26,224.44,26Z"/><path class="cls-51" d="M201.85,73.45s7.88-1.1,10.74-6.38,6-20.69,5.51-24.9-1-4.61-1-4.61l2.79-.53-3.21-1.45s.15-1.37-1.68-3.92a43.4,43.4,0,0,0-4.89-5.37s-3.82-.05-3.13,5a108.06,108.06,0,0,1,.53,17.23C207.28,51.74,203.24,70.78,201.85,73.45Z"/><path class="cls-52" d="M228.42,26.61s4.17,7,4.68,8-2,.91-2,.91l2.4.65a34.5,34.5,0,0,1,1.13,5.32c.23,2.32-1.41,10.44-1.41,10.44l-.35,8.72,1.71-.7s2.3-21.15,1.23-26.09-3.79-6.47-4.52-6.72A22.14,22.14,0,0,0,228.42,26.61Z"/><path class="cls-53" d="M235.47,35.68s19.3,3.17,21.11-.22S255.7,17.69,255,16.59s-1.52-.93-1.52-.93l-2.87,1s.41,11.86.09,12.59-14.55-2.5-19.48-2.17C231.24,27.11,234.87,35.41,235.47,35.68Z"/><path class="cls-54" d="M209.12,26.51s-24.46,8.67-30.06,16.05-8.84,11.92-8.84,11.92l3.62,3.15s8.89-10.36,15-14.18,19.8-6.48,21.89-9.14S209.12,26.51,209.12,26.51Z"/><path class="cls-46" d="M170.22,54.48s4.74-.82,7.5-3.58c4.18-4.17,6.32-5.35,5.66-6.06s-1.31-2.55-.35-2.15,3.46,2.22,3.41,1.38-2.68-3.82-1.31-3.24,3.48,2.33,3.32,1.59-1.59-3.79-.07-2.51,5.86-1.1,9.45-2.38,10.47-7.11,10.47-7.11.89,5.16-.76,5.8c-4.92,1.92-15.34,5.23-18.7,7.23s-15,14.18-15,14.18Z"/><path class="cls-46" d="M236,36.15s-.68-1.87-1.68-4.09a20,20,0,0,0-2.07-3.5s7.05,3.7,9.55,4.4,8.08,2.23,9.48,2.2.53-1.4-.22-2.73,1.44.9,2.27,1.23-2.46-3.76-1.58-3.66,3.63,2.73,3.54,2-2.58-3.21-2.14-3a20.93,20.93,0,0,0,2.4.56s-1.6-9.06-2.23-10.66a4.58,4.58,0,0,0-2.73-2.22s2.54-1.6,3.63-1.18.76,1.08.76,1.08,2.15,8,2.45,12.51-.44,5.63-1,6.71C255.45,37.85,240.45,37.57,236,36.15Z"/><path class="cls-49" d="M173.18,57.05a16.82,16.82,0,0,1-1.5,4.4c-1.05,1.93-1.51,1.31-1.24-.09a7.61,7.61,0,0,0,.16-2.22,5.3,5.3,0,0,0-1.48,1.74c-.17.4.81.95.58,1.09-1.19.7-2.44-.74-2.44-.74s-.49.71-1,.6c-1.09-.22-.3-1.31-.3-1.31s-.91.76-1.15-.06-.14-.79-.14-.79-2.44,1.74-2.34.64,7.89-5.83,7.89-5.83Z"/><path class="cls-46" d="M224.44,26l-.42.37s4.62,8.79,5.71,11.48a33.8,33.8,0,0,1,2.18,7.78c.13.6.34,3.37.34,3.37l.57,11.44s1.48-12.27-1-19.27C230.84,38.43,224.44,26,224.44,26Z"/><path class="cls-46" d="M171.45,55l-.27-.17c.39-.56,9.45-13.34,11.52-14.37l.1,0c.82-.28,5.8-3,11.07-5.91,7.93-4.35,13.17-7.21,13.78-7.26a.3.3,0,0,1,.24.11c.52.53.85,4.2.61,5.57l-.33-.06c.26-1.47-.16-5.05-.53-5.31-.54.05-7.78,4-13.6,7.22-5.29,2.91-10.28,5.65-11.13,5.94l-.08,0C181.2,41.54,174.1,51.25,171.45,55Z"/><polygon class="cls-46" points="205.3 57.79 210.36 56.83 210.89 55.25 205.58 56.54 205.3 57.79"/><path class="cls-46" d="M206.22,56.55a.23.23,0,0,1-.14,0,.17.17,0,0,1-.1-.21c0-.08,3.31-7.79,4.16-12.06a25.33,25.33,0,0,0,.72-5.92.16.16,0,0,1,.15-.17.17.17,0,0,1,.18.15,24.34,24.34,0,0,1-.72,6c-.85,4.3-4.14,12-4.18,12.12A.18.18,0,0,1,206.22,56.55Z"/><path class="cls-46" d="M207.86,48.32a.18.18,0,0,1-.1,0,.16.16,0,0,1-.15-.17l1-9.39a.16.16,0,0,1,.19-.14.16.16,0,0,1,.15.17l-1,9.39A.15.15,0,0,1,207.86,48.32Z"/><path class="cls-46" d="M222,38.19a.16.16,0,0,1-.15,0l-5.25-2.51V35.6a16.29,16.29,0,0,0-1.66-3.87A18.35,18.35,0,0,0,210,26.42a.17.17,0,0,1,0-.23.18.18,0,0,1,.24,0,19.15,19.15,0,0,1,4.94,5.43,18.59,18.59,0,0,1,1.68,3.88L222,37.91a.15.15,0,0,1,.07.21A.12.12,0,0,1,222,38.19Z"/><path class="cls-46" d="M216.05,57a.24.24,0,0,1-.12,0,.15.15,0,0,1-.11-.2,54.67,54.67,0,0,0,1.94-10.59,36.41,36.41,0,0,0-.51-8.71.16.16,0,0,1,.14-.18.16.16,0,0,1,.19.12,37.4,37.4,0,0,1,.52,8.79,54.86,54.86,0,0,1-2,10.66A.18.18,0,0,1,216.05,57Z"/><path class="cls-46" d="M233,35.26a7,7,0,0,1-2,.39.17.17,0,0,1-.18-.15.16.16,0,0,1,.15-.17,4.29,4.29,0,0,0,2-.44c-.22-.48-4.07-7.07-4.11-7.13a.16.16,0,0,1,.07-.22h0a.19.19,0,0,1,.23.06c.15.27,3.89,6.67,4.12,7.16a.28.28,0,0,1,0,.29A.63.63,0,0,1,233,35.26Z"/><path class="cls-46" d="M234,49.29a.2.2,0,0,1-.11,0,.16.16,0,0,1-.14-.18,64.54,64.54,0,0,0,.67-6.85,21.8,21.8,0,0,0-1.05-5.79.15.15,0,0,1,.11-.2.17.17,0,0,1,.21.1,21.86,21.86,0,0,1,1.06,5.9,62.39,62.39,0,0,1-.67,6.89A.16.16,0,0,1,234,49.29Z"/><path class="cls-55" d="M218.8,20.25a8.41,8.41,0,0,0,2.71-2.37c.77-1.31,1-2,.72-2.62-.55-1.23.2-3.53.71-2.88s.24,2.36.69,1.94.33-2.63,1.69-3.22,2.23.49,3.8.27A15.24,15.24,0,0,0,234,9.8C236.7,8,237.72,6,236.73,4.37c-1.52-2.46-4.55-2.11-8.69-.75s-9.78,4.09-9.59,5.3,2.44,2.35,1.22,2.34-1.9.69-1.82,1.67C218,15,219.68,17.84,218.8,20.25Z"/><path class="cls-56" d="M215.23,25.09a16.16,16.16,0,0,1,4.22,1.5,17.13,17.13,0,0,1,4,2.56s-.19.36.43.9.4.55.4.55-.54.36-.84.16-1-.84-1-.84l-.9,1.62a37.84,37.84,0,0,1-4.33-2.92c-1.62-1.28-3.83-2.93-3.83-2.93Z"/><path class="cls-57" d="M223.56,25.64h2.09a3.42,3.42,0,0,1,1,2.13,5.43,5.43,0,0,1-.74,2.77c0-.06-.87-1.17-1-1a1.93,1.93,0,0,0-.13.73,20.84,20.84,0,0,1-1.37-3.56A8.46,8.46,0,0,1,223.56,25.64Z"/><path class="cls-20" d="M223.54,30.81l2.2,2.23L225.48,30A12.79,12.79,0,0,1,223.54,30.81Z"/><path class="cls-20" d="M209.75,60.54l2.71-4.11s6.35-6.16,9.7-12.37A23.75,23.75,0,0,0,225,31.87l.78.88s.95,9.72-3.16,17.28S215,59.55,209.75,60.54Z"/><path class="cls-58" d="M224.72,22.31l-2.23-1.53s-.2,2.8-.16,4.27a4.05,4.05,0,0,0,1.45,2.61,3.14,3.14,0,0,1-.2-1.68A26.55,26.55,0,0,1,224.72,22.31Z"/><path class="cls-46" d="M222.33,15.83a13.31,13.31,0,0,1-2.43-2.29,4.46,4.46,0,0,1-1-2.19A1.43,1.43,0,0,0,217.78,13c.16,1.54,1.08,3.85,1.16,5.08a7.87,7.87,0,0,1-.14,2.14S222.39,18.5,222.33,15.83Z"/><path class="cls-46" d="M226.72,10.72h0a.16.16,0,0,1-.2-.12.15.15,0,0,1,.11-.19h0c.13,0,4.09-1.06,5.76-3.79.33-.54.39-1,.18-1.28-.59-.84-3.13-.72-4.06-.61a.17.17,0,0,1-.19-.14.17.17,0,0,1,.15-.18c.14,0,3.55-.42,4.38.76a1.42,1.42,0,0,1-.17,1.61C231,9.6,227.06,10.64,226.72,10.72Z"/><path class="cls-46" d="M225.78,10.85a.17.17,0,0,1-.18,0,.15.15,0,0,1,0-.22c1.91-2.34,3.33-4.56,3.1-4.84s-1.56,0-2.28.32a.17.17,0,0,1-.22-.08.15.15,0,0,1,.08-.21c.21-.1,2.13-.92,2.69-.22s-2.24,4.17-3.1,5.22Z"/><path class="cls-46" d="M223.71,13h0a.17.17,0,0,1-.14-.18,3.59,3.59,0,0,0-1.14-2.5A3.78,3.78,0,0,0,219.32,9a.17.17,0,0,1-.19-.14.16.16,0,0,1,.15-.17,4.07,4.07,0,0,1,3.36,1.36c1.37,1.58,1.23,2.7,1.22,2.75A.17.17,0,0,1,223.71,13Z"/><path class="cls-46" d="M232.57,9.92a13.78,13.78,0,0,1-4.12,1.24.16.16,0,0,1-.19-.14.16.16,0,0,1,.15-.17s4.49-.55,6.59-3.21c.53-.68.71-1.2.54-1.53s-1.15-.46-1.16-.46a.16.16,0,1,1,0-.32s1.11,0,1.46.63c.24.45,0,1.08-.57,1.87A7.88,7.88,0,0,1,232.57,9.92Z"/><polygon class="cls-20" points="261.28 10.86 232.8 15.8 232.36 13.54 260.85 8.59 261.28 10.86"/><polygon class="cls-20" points="271.67 10.51 243.07 14.84 242.32 10.98 270.68 5.34 271.67 10.51"/><polygon class="cls-20" points="282.9 10.14 258.25 13.36 257.06 7.17 281.31 1.86 282.9 10.14"/><polygon class="cls-22" points="280.48 1.91 258.25 13.36 282.09 10.25 280.48 1.91"/><polygon class="cls-22" points="257.12 8.04 258.09 12.56 243.07 14.84 257.12 8.04"/><polygon class="cls-22" points="242.51 11.93 242.91 14.04 233.73 15.57 242.51 11.93"/><polygon class="cls-20" points="285.05 11.94 282.5 12.38 280.2 0.44 282.75 0 285.05 11.94"/><polygon class="cls-20" points="233.86 16.24 231.97 16.57 231.3 13.1 233.19 12.77 233.86 16.24"/><path class="cls-49" d="M250,9.59s.9,1.78,1.28,1.9.33-.66.33-.66.36.9.73.78.27-.87.27-.87.31.73.6.51.25-.93.25-.93.08.65.49.68.27-.93-.05-1.73-.56-1.1-.8-1.06-.29.17-.29.17-.44-.37-.71-.19-.26.36-.26.36-.7-.45-1-.23a.87.87,0,0,0-.3.48s-.6-.39-.77-.15a4.62,4.62,0,0,0-.4.92Z"/><path class="cls-49" d="M251,16.44s-2.73-2.51-2.82-3.16a6.72,6.72,0,0,1,1.22-2.8c.24-.26.28,2.2.26,2.72s1,.3,2.17.23c1.52-.1,2.25-.19,2.44,0s-.65,2.18-.65,2.18Z"/><path class="cls-58" d="M253.64,15.62a4.57,4.57,0,0,1-2.06-.35,3.64,3.64,0,0,1-1.68-1.74,9.77,9.77,0,0,1,2.78-.49c1.24,0,1.69.09,1.69.09A4.06,4.06,0,0,1,253.64,15.62Z"/><path class="cls-22" d="M233.73,15.57l8.78-3.64Z"/><g class="cls-59"><path class="cls-60" d="M258.19,6.92s4.85-.22,9.16-.34,9.49-3.75,9.49-3.75Z"/></g><g class="cls-61"><path class="cls-62" d="M280.2.44s1.59,4.4,2.47,6.34a14.46,14.46,0,0,0,2,3.25L282.75,0Z"/></g><path class="cls-50" d="M227.76,62.07c2.89-2,30.93-7.66,33.43-3.64s-2,34-2,34l-6.51,1.81s.25-6.06.06-12.93c-.31-11.08-.16-12.58-.16-12.58-1.84-.92-32.42,9.68-32.42,9.68S224.47,64.38,227.76,62.07Z"/><path class="cls-63" d="M222.24,79.58c-.88.21,2.47-2.85,2.18-6.59a45.58,45.58,0,0,1,.05-6c-.14.29,2.08,5,2.69,4.57s5.65-4.43,19.56-7.89c5.86-1.45,6.78-.4,7.32-.47s5.12-3.41,4.37-2.36-4,5-3.29,4.71,3.75-1.58,2.47-.14-4,4.38-3.11,4,2.81-.83,2,.22-.73,12,0,14.88a71.24,71.24,0,0,0,2.71,7.82l-6.51,1.81s.14-24.82-1.16-25.25c-2.05-.67-20,5.35-22.34,6.52C227.2,76.46,225.9,78.73,222.24,79.58Z"/><path class="cls-41" d="M206,144.35s-.93-.14-1-1.47a13.43,13.43,0,0,1,.22-2.59l-4.77.9s.51,6.37,2.33,6.68C204,148.07,204.78,145.55,206,144.35Z"/><path class="cls-64" d="M201.15,147.39s1.31,1.69,2.7.91,11.35-6.92,10.93-7.16-.64-1-.92-.86-5,2.56-6.56,2a2.38,2.38,0,0,1-1.7-1.84l-2.18,1.39s1.35,1.56,1.28,2.45S201.15,147.39,201.15,147.39Z"/><path class="cls-41" d="M259.81,96.59s-.93-.09-1.05-1.42a13.6,13.6,0,0,1,0-2.59l-4.69,1.19s.93,6.32,2.77,6.52C258.09,100.42,258.68,97.86,259.81,96.59Z"/><path class="cls-64" d="M255.18,99.91s1.42,1.61,2.76.75,10.86-7.6,10.42-7.81-.7-1-1-.81S262.6,94.9,261,94.41a2.39,2.39,0,0,1-1.82-1.74l-2.08,1.53s1.45,1.47,1.44,2.36S255.18,99.91,255.18,99.91Z"/><path class="cls-46" d="M202.87,76.67h-.1a.2.2,0,0,1-.19-.22.21.21,0,0,1,.23-.18s1.65.11,5.19-2c2.45-1.46,4.95-4.33,6.44-6,.91-1.06,1.3-1.49,1.53-1.56a6.11,6.11,0,0,1,.92-.12c1.22-.11,3.24-.28,4.42-1.19a19.57,19.57,0,0,1,3.54-2.08l.89-.44c1-.53,1.92-1,1.93-1a.21.21,0,0,1,.28.1.19.19,0,0,1-.1.26s-1,.43-1.9.94c-.25.14-.56.29-.9.46a18.86,18.86,0,0,0-3.47,2c-1.28,1-3.39,1.17-4.65,1.28a5.57,5.57,0,0,0-.83.1,12.51,12.51,0,0,0-1.33,1.43c-1.51,1.74-4,4.64-6.55,6.13C205,76.53,203.3,76.67,202.87,76.67Z"/><path class="cls-46" d="M213.49,68.18h-.07a.2.2,0,0,1-.14-.25,15.22,15.22,0,0,1,2.43-4.43,20.12,20.12,0,0,1,3.56-3.56.22.22,0,0,1,.3,0,.2.2,0,0,1,0,.28A19.7,19.7,0,0,0,216,63.73,15.14,15.14,0,0,0,213.69,68,.22.22,0,0,1,213.49,68.18Z"/><path class="cls-46" d="M218.81,66.6a.21.21,0,0,1-.21-.19,4.56,4.56,0,0,1,.38-1.87,33.25,33.25,0,0,1,2-3.41.21.21,0,0,1,.29-.07.2.2,0,0,1,.07.28,33.73,33.73,0,0,0-1.95,3.34,4.33,4.33,0,0,0-.35,1.71.2.2,0,0,1-.2.21Z"/><path class="cls-46" d="M206.68,80.11l-.14-2.06.14,0s3.74-1.38,5.58-2.31a8.23,8.23,0,0,0,2.12-1.29l.29-.33.42,2.11-.12.07s-2.23,1.42-3.84,2.26a24.88,24.88,0,0,1-4.2,1.54Zm.3-1.79.09,1.27a23.62,23.62,0,0,0,3.85-1.43c1.39-.73,3.23-1.87,3.7-2.17l-.21-1.08A14.36,14.36,0,0,1,212.46,76C210.81,76.88,207.69,78.06,207,78.32Z"/><path class="cls-46" d="M213.24,114a5.84,5.84,0,0,1-2.49-.69,14.8,14.8,0,0,1-3.21-1.89l-.06-.06v-.08s0-2.32-.17-4.52-1.86-20.64-2.3-24.66a27.1,27.1,0,0,1-.11-6.13.21.21,0,0,1,.24-.17.2.2,0,0,1,.18.23,26.77,26.77,0,0,0,.11,6c.44,4,2.18,22.48,2.31,24.67.11,2,.16,4,.17,4.45a16,16,0,0,0,3,1.77c2.27,1.1,3.07.48,3.08.48a.23.23,0,0,1,.3,0,.19.19,0,0,1,0,.28A1.62,1.62,0,0,1,213.24,114Z"/><path class="cls-46" d="M213.92,110.41h-.07c-1.49-.48-5-1.65-5.18-2.24a.28.28,0,0,1,.05-.26c.39-.47,5.26-1.07,7.33-1.31a.21.21,0,0,1,.24.17.22.22,0,0,1-.19.23,50,50,0,0,0-7,1.12A25.91,25.91,0,0,0,214,110a.19.19,0,0,1,.13.25A.2.2,0,0,1,213.92,110.41Z"/><polygon class="cls-46" points="210.35 106.57 210.21 106.19 214.93 104.64 215.07 105.02 210.35 106.57"/><path class="cls-46" d="M200.21,141.17h-.05a.19.19,0,0,1-.15-.24l.92-3.23,6.54-.42a.21.21,0,0,1,.23.19.2.2,0,0,1-.2.21l-6.24.41-.84,2.94A.23.23,0,0,1,200.21,141.17Z"/><path class="cls-46" d="M222.24,79.78h-.08a.2.2,0,0,1-.11-.27s.88-1.86,1.83-3.94a5.17,5.17,0,0,0,.35-3.42,4.92,4.92,0,0,1-.11-.71c0-.87.13-4.28.14-4.42a.2.2,0,0,1,.22-.19.19.19,0,0,1,.2.21s-.17,3.53-.13,4.38a6.42,6.42,0,0,0,.09.66,5.43,5.43,0,0,1-.37,3.65c-1,2.08-1.83,3.94-1.83,3.94A.22.22,0,0,1,222.24,79.78Z"/><path class="cls-46" d="M222.24,79.78a.2.2,0,0,1,0-.4,9.12,9.12,0,0,0,5-2.7c1.33-1.54,3-2,6.34-3,1.76-.53,4-1.18,6.82-2.2a50.64,50.64,0,0,1,9.59-2.64,8.21,8.21,0,0,0,1.67-.37c1.11-.41,3.51-4.39,4.34-5.88a.23.23,0,0,1,.29-.09.2.2,0,0,1,.09.27c-.32.57-3.1,5.54-4.57,6.08a10.23,10.23,0,0,1-1.75.39,49.83,49.83,0,0,0-9.51,2.61c-2.87,1-5.07,1.68-6.84,2.21-3.26,1-4.9,1.46-6.14,2.91a9.43,9.43,0,0,1-5.22,2.84Z"/><path class="cls-46" d="M253.46,70.11c-.43,0-.49-.13-.53-.19-.19-.4,1.26-2.13,4.3-5.16a.23.23,0,0,1,.3,0,.2.2,0,0,1,0,.29,34,34,0,0,0-4.19,4.68,20.2,20.2,0,0,0,4.48-1.09.22.22,0,0,1,.27.12A.2.2,0,0,1,258,69,17.72,17.72,0,0,1,253.46,70.11Z"/><path class="cls-46" d="M252.45,94.48l.25-3.86,2.4-.67,4.77-.81-.49,3.43-.14,0s-1.08.25-2,.55-4.38,1.21-4.53,1.25Zm.65-3.56-.19,3c.87-.23,3.47-.93,4.22-1.17s1.55-.45,1.87-.53l.37-2.6-4.17.7Z"/><path class="cls-46" d="M233.07,60.06l-.42,0c0-.08.61-7.5,1-10.94.09-.7.1-.74.32-.72s.13,0,.14.25h0s0,.08,0,.18c0,.6-.16,2-.51,5.52Z"/></g></g></svg>