<svg xmlns="http://www.w3.org/2000/svg" xmlns:xlink="http://www.w3.org/1999/xlink" viewBox="0 0 414.79 406.85"><defs><style>.cls-1{isolation:isolate;}.cls-105,.cls-110,.cls-121,.cls-2,.cls-37,.cls-62,.cls-71,.cls-82,.cls-95{fill:none;stroke-miterlimit:10;}.cls-2{stroke:#fff;}.cls-3{opacity:0.18;}.cls-106,.cls-111,.cls-26,.cls-3,.cls-38,.cls-63,.cls-72,.cls-83,.cls-96{mix-blend-mode:multiply;}.cls-4{fill:url(#linear-gradient);}.cls-5{fill:url(#linear-gradient-2);}.cls-6{fill:url(#linear-gradient-3);}.cls-7{fill:url(#linear-gradient-4);}.cls-8{fill:url(#linear-gradient-5);}.cls-9{fill:url(#linear-gradient-6);}.cls-10{fill:url(#linear-gradient-7);}.cls-11{fill:url(#linear-gradient-8);}.cls-12{fill:url(#linear-gradient-9);}.cls-13{fill:url(#linear-gradient-10);}.cls-14{fill:url(#linear-gradient-11);}.cls-15{fill:url(#linear-gradient-12);}.cls-16{fill:url(#linear-gradient-13);}.cls-17{fill:url(#linear-gradient-14);}.cls-18{fill:url(#linear-gradient-15);}.cls-19{fill:url(#linear-gradient-16);}.cls-20{fill:url(#linear-gradient-17);}.cls-21{fill:url(#linear-gradient-18);}.cls-22,.cls-24{font-size:21.06px;}.cls-22,.cls-24,.cls-34,.cls-59,.cls-66,.cls-79,.cls-86{fill:#78909c;font-family:Montserrat-ExtraBold, Montserrat ExtraBold;font-weight:800;}.cls-22{letter-spacing:0.04em;}.cls-23{letter-spacing:0.06em;}.cls-24{letter-spacing:0em;}.cls-25{letter-spacing:0.02em;}.cls-106,.cls-111,.cls-26,.cls-38,.cls-63,.cls-72,.cls-83,.cls-96{opacity:0.1;}.cls-26{fill:url(#linear-gradient-19);}.cls-27{fill:url(#linear-gradient-20);}.cls-28{fill:url(#linear-gradient-21);}.cls-29{fill:url(#linear-gradient-22);}.cls-30{fill:url(#linear-gradient-23);}.cls-31{fill:url(#linear-gradient-24);}.cls-32{fill:url(#linear-gradient-25);}.cls-33{fill:url(#linear-gradient-26);}.cls-34,.cls-59,.cls-79,.cls-86{font-size:10.64px;}.cls-34,.cls-61{letter-spacing:0.06em;}.cls-35{letter-spacing:0.05em;}.cls-36,.cls-59{letter-spacing:0.06em;}.cls-105,.cls-121,.cls-37,.cls-62,.cls-71,.cls-82,.cls-95{stroke-width:3px;}.cls-37{stroke:url(#linear-gradient-27);}.cls-38{fill:url(#linear-gradient-28);}.cls-39{fill:url(#linear-gradient-29);}.cls-40{fill:url(#linear-gradient-30);}.cls-41{fill:url(#linear-gradient-31);}.cls-42{fill:url(#linear-gradient-32);}.cls-43{fill:url(#linear-gradient-33);}.cls-44{fill:url(#linear-gradient-34);}.cls-45{fill:url(#linear-gradient-35);}.cls-46{fill:url(#linear-gradient-36);}.cls-47{fill:url(#linear-gradient-37);}.cls-48{fill:url(#linear-gradient-38);}.cls-49{fill:url(#linear-gradient-39);}.cls-50{fill:url(#linear-gradient-40);}.cls-51{fill:url(#linear-gradient-41);}.cls-52{fill:url(#linear-gradient-42);}.cls-53{fill:url(#linear-gradient-43);}.cls-54{fill:url(#linear-gradient-44);}.cls-55{fill:url(#linear-gradient-45);}.cls-56{fill:url(#linear-gradient-46);}.cls-57{fill:url(#linear-gradient-47);}.cls-58{fill:url(#linear-gradient-48);}.cls-60{letter-spacing:0.06em;}.cls-62{stroke:url(#linear-gradient-49);}.cls-63{fill:url(#linear-gradient-50);}.cls-64{fill:url(#linear-gradient-51);}.cls-65{fill:url(#linear-gradient-52);}.cls-66{font-size:9.73px;letter-spacing:0.06em;}.cls-67{letter-spacing:0em;}.cls-68{letter-spacing:-0.02em;}.cls-69{fill:url(#linear-gradient-53);}.cls-70{fill:url(#linear-gradient-54);}.cls-71{stroke:url(#linear-gradient-55);}.cls-72{fill:url(#linear-gradient-56);}.cls-73{fill:url(#linear-gradient-57);}.cls-74{fill:url(#linear-gradient-58);}.cls-75{fill:url(#linear-gradient-59);}.cls-76{fill:url(#linear-gradient-60);}.cls-77{fill:url(#linear-gradient-61);}.cls-78{fill:url(#linear-gradient-62);}.cls-79{letter-spacing:0em;}.cls-80{letter-spacing:0.02em;}.cls-81,.cls-86{letter-spacing:0.06em;}.cls-82{stroke:url(#linear-gradient-63);}.cls-83{fill:url(#linear-gradient-64);}.cls-84{fill:url(#linear-gradient-65);}.cls-85{fill:url(#linear-gradient-66);}.cls-87{letter-spacing:0.03em;}.cls-88{letter-spacing:0.09em;}.cls-89{fill:url(#linear-gradient-67);}.cls-90{fill:url(#linear-gradient-68);}.cls-91{fill:url(#linear-gradient-69);}.cls-92{fill:url(#linear-gradient-70);}.cls-93{fill:url(#linear-gradient-71);}.cls-94{fill:url(#linear-gradient-72);}.cls-95{stroke:url(#linear-gradient-73);}.cls-96{fill:url(#linear-gradient-74);}.cls-97{fill:url(#linear-gradient-75);}.cls-98{fill:url(#linear-gradient-76);}.cls-99{fill:url(#linear-gradient-77);}.cls-100{fill:url(#linear-gradient-78);}.cls-101{fill:url(#linear-gradient-79);}.cls-102{fill:url(#linear-gradient-80);}.cls-103{fill:url(#linear-gradient-81);}.cls-104{letter-spacing:-0.02em;}.cls-105{stroke:url(#linear-gradient-82);}.cls-106{fill:url(#linear-gradient-83);}.cls-107{fill:url(#linear-gradient-84);}.cls-108{fill:url(#linear-gradient-85);}.cls-109{fill:url(#linear-gradient-86);}.cls-110{stroke-width:4px;stroke:url(#linear-gradient-87);}.cls-111{fill:url(#linear-gradient-88);}.cls-112{fill:url(#linear-gradient-89);}.cls-113{fill:url(#linear-gradient-90);}.cls-114{fill:url(#linear-gradient-91);}.cls-115{fill:url(#linear-gradient-92);}.cls-116{fill:url(#linear-gradient-93);}.cls-117{fill:url(#linear-gradient-94);}.cls-118{fill:url(#linear-gradient-95);}.cls-119{letter-spacing:0.06em;}.cls-120{letter-spacing:0.09em;}.cls-121{stroke:url(#linear-gradient-96);}</style><linearGradient id="linear-gradient" x1="275.79" y1="328.22" x2="148.71" y2="66.31" gradientUnits="userSpaceOnUse"><stop offset="0.11" stop-color="#495867"/><stop offset="1" stop-color="#495867" stop-opacity="0.1"/></linearGradient><linearGradient id="linear-gradient-2" x1="222.99" y1="353.84" x2="95.96" y2="92.01" xlink:href="#linear-gradient"/><linearGradient id="linear-gradient-3" x1="195.35" y1="367.25" x2="68.32" y2="105.42" xlink:href="#linear-gradient"/><linearGradient id="linear-gradient-4" x1="329.64" y1="302.09" x2="202.61" y2="40.27" xlink:href="#linear-gradient"/><linearGradient id="linear-gradient-5" x1="356.26" y1="289.18" x2="229.23" y2="27.36" xlink:href="#linear-gradient"/><linearGradient id="linear-gradient-6" x1="215.65" y1="357.4" x2="88.62" y2="95.58" xlink:href="#linear-gradient"/><linearGradient id="linear-gradient-7" x1="270.67" y1="330.7" x2="143.64" y2="68.88" xlink:href="#linear-gradient"/><linearGradient id="linear-gradient-8" x1="335.08" y1="299.45" x2="208.05" y2="37.63" xlink:href="#linear-gradient"/><linearGradient id="linear-gradient-9" x1="281.44" y1="325.48" x2="154.41" y2="63.66" xlink:href="#linear-gradient"/><linearGradient id="linear-gradient-10" x1="210.77" y1="137.03" x2="210.14" y2="269.81" gradientUnits="userSpaceOnUse"><stop offset="0" stop-color="#f7f7ff"/><stop offset="1" stop-color="#dedee6"/></linearGradient><linearGradient id="linear-gradient-11" x1="110.82" y1="164.33" x2="148.87" y2="164.33" gradientUnits="userSpaceOnUse"><stop offset="0" stop-color="#e6c600"/><stop offset="1" stop-color="#f5ee00"/></linearGradient><linearGradient id="linear-gradient-12" x1="110.82" y1="235.72" x2="148.89" y2="235.72" gradientUnits="userSpaceOnUse"><stop offset="0" stop-color="#cde600"/><stop offset="1" stop-color="#89f500"/></linearGradient><linearGradient id="linear-gradient-13" x1="320.07" y1="234.39" x2="293.73" y2="235.53" gradientUnits="userSpaceOnUse"><stop offset="0" stop-color="#3800e6"/><stop offset="1" stop-color="#7200f5"/></linearGradient><linearGradient id="linear-gradient-14" x1="316.98" y1="163.42" x2="290.65" y2="164.57" gradientUnits="userSpaceOnUse"><stop offset="0" stop-color="#b200e6"/><stop offset="1" stop-color="#ff45e4"/></linearGradient><linearGradient id="linear-gradient-15" x1="174.69" y1="306.57" x2="174.69" y2="276.23" gradientUnits="userSpaceOnUse"><stop offset="0" stop-color="#00d4e6"/><stop offset="1" stop-color="#007ff5"/></linearGradient><linearGradient id="linear-gradient-16" x1="245.67" y1="306.57" x2="245.67" y2="276.23" gradientUnits="userSpaceOnUse"><stop offset="0" stop-color="#001fe6"/><stop offset="1" stop-color="#5b4cf5"/></linearGradient><linearGradient id="linear-gradient-17" x1="244.83" y1="139.96" x2="244.83" y2="110.18" gradientUnits="userSpaceOnUse"><stop offset="0" stop-color="#e61408"/><stop offset="0.04" stop-color="#ab1006"/><stop offset="1" stop-color="#f53a09"/></linearGradient><linearGradient id="linear-gradient-18" x1="175.53" y1="139.96" x2="175.53" y2="110.18" gradientUnits="userSpaceOnUse"><stop offset="0" stop-color="#e65100"/><stop offset="1" stop-color="#f57c00"/></linearGradient><linearGradient id="linear-gradient-19" x1="409.9" y1="201.6" x2="342" y2="100.5" gradientTransform="translate(207.5 -219.7) rotate(45)" xlink:href="#linear-gradient"/><linearGradient id="linear-gradient-20" x1="396.58" y1="185.01" x2="356.66" y2="119.78" gradientUnits="userSpaceOnUse"><stop offset="0" stop-color="#f7f7ff"/><stop offset="1" stop-color="#dedee6" stop-opacity="0.1"/></linearGradient><linearGradient id="linear-gradient-21" x1="340.32" y1="101.12" x2="351.78" y2="116.14" xlink:href="#linear-gradient-20"/><linearGradient id="linear-gradient-22" x1="364.7" y1="77.68" x2="364.7" y2="156.64" xlink:href="#linear-gradient-14"/><linearGradient id="linear-gradient-23" x1="364.7" y1="77.68" x2="364.7" y2="156.64" xlink:href="#linear-gradient-14"/><linearGradient id="linear-gradient-24" x1="376.48" y1="77.68" x2="376.48" y2="156.64" xlink:href="#linear-gradient-14"/><linearGradient id="linear-gradient-25" x1="385.75" y1="77.68" x2="385.75" y2="156.64" xlink:href="#linear-gradient-14"/><linearGradient id="linear-gradient-26" x1="384.2" y1="77.68" x2="384.2" y2="156.64" xlink:href="#linear-gradient-14"/><linearGradient id="linear-gradient-27" x1="315.5" y1="133.65" x2="414.79" y2="133.65" xlink:href="#linear-gradient-14"/><linearGradient id="linear-gradient-28" x1="409.9" y1="334.52" x2="342" y2="233.43" gradientTransform="translate(553.79 -146.91) rotate(77.18)" xlink:href="#linear-gradient"/><linearGradient id="linear-gradient-29" x1="396.58" y1="317.93" x2="356.66" y2="252.71" gradientTransform="translate(542.47 -149.29) rotate(76.96)" xlink:href="#linear-gradient-20"/><linearGradient id="linear-gradient-30" x1="340.32" y1="234.05" x2="351.78" y2="249.07" gradientTransform="translate(542.47 -149.29) rotate(76.96)" xlink:href="#linear-gradient-20"/><linearGradient id="linear-gradient-31" x1="354.87" y1="270.06" x2="354.87" y2="257.59" gradientUnits="userSpaceOnUse"><stop offset="0" stop-color="#fff"/><stop offset="0.25" stop-color="#fcfcfc"/><stop offset="0.46" stop-color="#f1f3f5"/><stop offset="0.67" stop-color="#dfe5e8"/><stop offset="0.86" stop-color="#c6d0d5"/><stop offset="1" stop-color="#b0bec5"/></linearGradient><linearGradient id="linear-gradient-32" x1="354.87" y1="270.06" x2="354.87" y2="261.49" xlink:href="#linear-gradient-13"/><linearGradient id="linear-gradient-33" x1="350.02" y1="263.25" x2="354.87" y2="263.25" xlink:href="#linear-gradient-13"/><linearGradient id="linear-gradient-34" x1="354.87" y1="263.25" x2="359.72" y2="263.25" xlink:href="#linear-gradient-13"/><linearGradient id="linear-gradient-35" x1="354.69" y1="247.37" x2="354.69" y2="262.21" xlink:href="#linear-gradient-31"/><linearGradient id="linear-gradient-36" x1="354.67" y1="254.68" x2="354.67" y2="248.58" xlink:href="#linear-gradient-13"/><linearGradient id="linear-gradient-37" x1="377.04" y1="270.06" x2="377.04" y2="257.59" xlink:href="#linear-gradient-31"/><linearGradient id="linear-gradient-38" x1="377.04" y1="270.06" x2="377.04" y2="261.49" xlink:href="#linear-gradient-13"/><linearGradient id="linear-gradient-39" x1="372.19" y1="263.25" x2="377.04" y2="263.25" xlink:href="#linear-gradient-13"/><linearGradient id="linear-gradient-40" x1="377.04" y1="263.25" x2="381.89" y2="263.25" xlink:href="#linear-gradient-13"/><linearGradient id="linear-gradient-41" x1="376.86" y1="247.37" x2="376.86" y2="262.21" xlink:href="#linear-gradient-31"/><linearGradient id="linear-gradient-42" x1="376.84" y1="254.68" x2="376.84" y2="248.58" xlink:href="#linear-gradient-13"/><linearGradient id="linear-gradient-43" x1="365.96" y1="274.13" x2="365.96" y2="255.36" xlink:href="#linear-gradient-31"/><linearGradient id="linear-gradient-44" x1="365.96" y1="274.13" x2="365.96" y2="261.82" xlink:href="#linear-gradient-13"/><linearGradient id="linear-gradient-45" x1="358.66" y1="264.31" x2="365.96" y2="264.31" xlink:href="#linear-gradient-13"/><linearGradient id="linear-gradient-46" x1="365.96" y1="264.31" x2="373.25" y2="264.31" xlink:href="#linear-gradient-13"/><linearGradient id="linear-gradient-47" x1="365.68" y1="261.34" x2="365.68" y2="244.54" xlink:href="#linear-gradient-31"/><linearGradient id="linear-gradient-48" x1="365.66" y1="252.03" x2="365.66" y2="242.85" xlink:href="#linear-gradient-13"/><linearGradient id="linear-gradient-49" x1="315.5" y1="266.58" x2="414.79" y2="266.58" gradientTransform="translate(542.68 -149.2) rotate(76.99)" xlink:href="#linear-gradient-13"/><linearGradient id="linear-gradient-50" x1="308.7" y1="424.89" x2="240.8" y2="323.8" gradientTransform="translate(335.75 -82.74) rotate(45)" xlink:href="#linear-gradient"/><linearGradient id="linear-gradient-51" x1="295.38" y1="408.3" x2="255.45" y2="343.08" gradientTransform="translate(161.47 -75) rotate(23.14)" xlink:href="#linear-gradient-20"/><linearGradient id="linear-gradient-52" x1="239.11" y1="324.42" x2="250.58" y2="339.44" gradientTransform="translate(161.47 -75) rotate(23.14)" xlink:href="#linear-gradient-20"/><linearGradient id="linear-gradient-53" x1="264.54" y1="337.37" x2="266.59" y2="367.78" xlink:href="#linear-gradient-16"/><linearGradient id="linear-gradient-54" x1="265.67" y1="372.24" x2="263.77" y2="355.86" xlink:href="#linear-gradient-16"/><linearGradient id="linear-gradient-55" x1="214.85" y1="356.95" x2="313.03" y2="356.95" gradientTransform="translate(162 -75.12) rotate(23.21)" xlink:href="#linear-gradient-16"/><linearGradient id="linear-gradient-56" x1="190.31" y1="424.89" x2="122.41" y2="323.8" gradientTransform="translate(484.2 157.46) rotate(80.66)" xlink:href="#linear-gradient"/><linearGradient id="linear-gradient-57" x1="176.99" y1="408.3" x2="137.06" y2="343.08" gradientTransform="translate(295.03 1.63) rotate(45)" xlink:href="#linear-gradient-20"/><linearGradient id="linear-gradient-58" x1="120.72" y1="324.42" x2="132.19" y2="339.44" gradientTransform="translate(295.03 1.63) rotate(45)" xlink:href="#linear-gradient-20"/><linearGradient id="linear-gradient-59" x1="131.78" y1="334.23" x2="159.05" y2="341.94" xlink:href="#linear-gradient-15"/><linearGradient id="linear-gradient-60" x1="128.79" y1="344.82" x2="156.05" y2="352.53" xlink:href="#linear-gradient-15"/><linearGradient id="linear-gradient-61" x1="145.91" y1="340.01" x2="146.83" y2="332.78" xlink:href="#linear-gradient-15"/><linearGradient id="linear-gradient-62" x1="146.05" y1="336.77" x2="145" y2="355.32" xlink:href="#linear-gradient-15"/><linearGradient id="linear-gradient-63" x1="95.98" y1="356.95" x2="195.12" y2="356.95" gradientTransform="translate(295.03 1.63) rotate(45)" xlink:href="#linear-gradient-15"/><linearGradient id="linear-gradient-64" x1="95.23" y1="334.52" x2="27.32" y2="233.43" gradientTransform="translate(306.58 154.74) rotate(76.01)" xlink:href="#linear-gradient"/><linearGradient id="linear-gradient-65" x1="81.91" y1="317.93" x2="41.98" y2="252.71" gradientTransform="translate(299.52 158.95) rotate(77.35)" xlink:href="#linear-gradient-20"/><linearGradient id="linear-gradient-66" x1="25.64" y1="234.05" x2="37.11" y2="249.07" gradientTransform="translate(299.52 158.95) rotate(77.35)" xlink:href="#linear-gradient-20"/><linearGradient id="linear-gradient-67" x1="43.56" y1="263.38" x2="43.56" y2="281.17" xlink:href="#linear-gradient-12"/><linearGradient id="linear-gradient-68" x1="57.97" y1="263.38" x2="57.97" y2="281.17" xlink:href="#linear-gradient-12"/><linearGradient id="linear-gradient-69" x1="50.96" y1="233.67" x2="50.68" y2="264.62" xlink:href="#linear-gradient-12"/><linearGradient id="linear-gradient-70" x1="50.36" y1="278.12" x2="50.9" y2="245.4" xlink:href="#linear-gradient-12"/><linearGradient id="linear-gradient-71" x1="37.96" y1="253" x2="63.58" y2="253" xlink:href="#linear-gradient-10"/><linearGradient id="linear-gradient-72" x1="46.05" y1="253" x2="55.48" y2="253" xlink:href="#linear-gradient-12"/><linearGradient id="linear-gradient-73" x1="0.8" y1="266.58" x2="100.14" y2="266.58" gradientTransform="translate(299.06 157.9) rotate(77.11)" xlink:href="#linear-gradient-12"/><linearGradient id="linear-gradient-74" x1="95.23" y1="211.44" x2="27.32" y2="110.34" gradientTransform="translate(122.29 5.69) rotate(45)" xlink:href="#linear-gradient"/><linearGradient id="linear-gradient-75" x1="81.91" y1="194.85" x2="41.98" y2="129.62" xlink:href="#linear-gradient-20"/><linearGradient id="linear-gradient-76" x1="25.64" y1="110.96" x2="37.11" y2="125.98" xlink:href="#linear-gradient-20"/><linearGradient id="linear-gradient-77" x1="51.09" y1="138.55" x2="51.09" y2="109.15" xlink:href="#linear-gradient-11"/><linearGradient id="linear-gradient-78" x1="51.09" y1="140.36" x2="51.09" y2="139.65" xlink:href="#linear-gradient-11"/><linearGradient id="linear-gradient-79" x1="51.09" y1="142.39" x2="51.09" y2="141.68" xlink:href="#linear-gradient-11"/><linearGradient id="linear-gradient-80" x1="51.09" y1="144.41" x2="51.09" y2="143.7" xlink:href="#linear-gradient-11"/><linearGradient id="linear-gradient-81" x1="51.09" y1="146.64" x2="51.09" y2="145.93" xlink:href="#linear-gradient-11"/><linearGradient id="linear-gradient-82" x1="0" y1="143.49" x2="100.94" y2="143.49" xlink:href="#linear-gradient-11"/><linearGradient id="linear-gradient-83" x1="190.31" y1="118.01" x2="122.41" y2="16.92" gradientTransform="translate(34.42 -54.09) rotate(23.14)" xlink:href="#linear-gradient"/><linearGradient id="linear-gradient-84" x1="176.99" y1="101.42" x2="137.06" y2="36.2" xlink:href="#linear-gradient-20"/><linearGradient id="linear-gradient-85" x1="120.72" y1="17.54" x2="132.19" y2="32.56" xlink:href="#linear-gradient-20"/><linearGradient id="linear-gradient-86" x1="147.45" y1="54.96" x2="147.45" y2="17.87" xlink:href="#linear-gradient-18"/><linearGradient id="linear-gradient-87" x1="95.48" y1="50.07" x2="195.62" y2="50.07" xlink:href="#linear-gradient-18"/><linearGradient id="linear-gradient-88" x1="309.79" y1="118.01" x2="241.89" y2="16.92" gradientTransform="translate(119.07 -173.39) rotate(45)" xlink:href="#linear-gradient"/><linearGradient id="linear-gradient-89" x1="296.47" y1="101.42" x2="256.54" y2="36.2" xlink:href="#linear-gradient-20"/><linearGradient id="linear-gradient-90" x1="240.21" y1="17.54" x2="251.67" y2="32.56" xlink:href="#linear-gradient-20"/><linearGradient id="linear-gradient-91" x1="255.12" y1="59.95" x2="255.12" y2="47.15" xlink:href="#linear-gradient-17"/><linearGradient id="linear-gradient-92" x1="265.84" y1="59.95" x2="265.84" y2="43.52" xlink:href="#linear-gradient-17"/><linearGradient id="linear-gradient-93" x1="276.57" y1="59.95" x2="276.57" y2="37.31" xlink:href="#linear-gradient-17"/><linearGradient id="linear-gradient-94" x1="250.09" y1="32.8" x2="278.48" y2="32.8" xlink:href="#linear-gradient-17"/><linearGradient id="linear-gradient-95" x1="250.09" y1="21.15" x2="278.48" y2="21.15" xlink:href="#linear-gradient-17"/><linearGradient id="linear-gradient-96" x1="215.47" y1="50.07" x2="314.6" y2="50.07" xlink:href="#linear-gradient-17"/></defs><g class="cls-1"><g id="Layer_2" data-name="Layer 2"><g id="OBJECTS"><line class="cls-2" x1="326.02" y1="151.31" x2="90.89" y2="252.08"/><line class="cls-2" x1="327.21" y1="249.2" x2="89.69" y2="154.19"/><line class="cls-2" x1="265.03" y1="312.91" x2="151.87" y2="94.11"/><line class="cls-2" x1="155.11" y1="314.02" x2="261.8" y2="93"/><g class="cls-3"><circle class="cls-4" cx="214.87" cy="202.67" r="72.76"/><path class="cls-5" d="M127.66,200.93a87,87,0,0,1,25.61-60l-8.7-8.86a99.37,99.37,0,0,0-29.34,68.84Z"/><path class="cls-6" d="M115.23,204.23a99.35,99.35,0,0,0,27.71,67.36l8.72-8.86a86.92,86.92,0,0,1-24-58.5Z"/><path class="cls-7" d="M302.09,204.23a86.93,86.93,0,0,1-23.94,58.43l8.72,8.87a99.33,99.33,0,0,0,27.65-67.3Z"/><path class="cls-8" d="M314.51,200.93a99.31,99.31,0,0,0-29.27-68.77L276.53,141a87,87,0,0,1,25.55,59.91Z"/><path class="cls-9" d="M212.61,289.88a86.94,86.94,0,0,1-58.32-24.5l-8.72,8.86a99.32,99.32,0,0,0,67,28.07Z"/><path class="cls-10" d="M215.91,302.32a99.32,99.32,0,0,0,68.33-28.15l-8.71-8.86a87,87,0,0,1-59.62,24.58Z"/><path class="cls-11" d="M215.91,103v12.43a86.88,86.88,0,0,1,57.93,23l8.71-8.86A99.31,99.31,0,0,0,215.91,103Z"/><path class="cls-12" d="M212.61,103a99.25,99.25,0,0,0-65.35,26.48l8.71,8.86a86.87,86.87,0,0,1,56.64-22.91Z"/></g><circle class="cls-13" cx="210.47" cy="200.49" r="72.76"/><path class="cls-14" d="M123.25,198.74a87,87,0,0,1,25.62-60l-8.71-8.86a99.38,99.38,0,0,0-29.34,68.83Z"/><path class="cls-15" d="M110.82,202a99.36,99.36,0,0,0,27.71,67.37l8.72-8.86a87,87,0,0,1-24-58.51Z"/><path class="cls-16" d="M297.68,202a86.89,86.89,0,0,1-23.94,58.43l8.72,8.88A99.35,99.35,0,0,0,310.11,202Z"/><path class="cls-17" d="M310.11,198.74A99.28,99.28,0,0,0,280.83,130l-8.7,8.85a87,87,0,0,1,25.55,59.91Z"/><path class="cls-18" d="M208.2,287.69a86.86,86.86,0,0,1-58.32-24.5l-8.71,8.87a99.29,99.29,0,0,0,67,28.06Z"/><path class="cls-19" d="M211.5,300.14A99.3,99.3,0,0,0,279.83,272l-8.71-8.87a86.91,86.91,0,0,1-59.62,24.59Z"/><path class="cls-20" d="M211.5,100.84v12.43a86.94,86.94,0,0,1,57.94,23l8.71-8.86A99.28,99.28,0,0,0,211.5,100.84Z"/><path class="cls-21" d="M208.2,100.85a99.27,99.27,0,0,0-65.35,26.48l8.72,8.86a86.92,86.92,0,0,1,56.63-22.91Z"/><text class="cls-22" transform="translate(184.1 194.4)">C<tspan class="cls-23" x="13.04" y="0">ORE</tspan></text><text class="cls-24" transform="translate(173.33 218.83)">V<tspan class="cls-23" x="11.81" y="0">A</tspan><tspan class="cls-25" x="25.97" y="0">L</tspan><tspan class="cls-23" x="36.41" y="0">UES</tspan></text><circle class="cls-26" cx="368.95" cy="140.62" r="42.93" transform="translate(8.63 302.07) rotate(-45)"/><circle class="cls-27" cx="365.15" cy="133.65" r="42.93"/><circle class="cls-28" cx="365.15" cy="133.65" r="42.93"/><circle class="cls-2" cx="365.15" cy="133.65" r="42.93"/><path class="cls-29" d="M364.7,151.23a18.69,18.69,0,1,1,18.69-18.69A18.71,18.71,0,0,1,364.7,151.23Zm0-33.12a14.44,14.44,0,1,0,14.43,14.43A14.44,14.44,0,0,0,364.7,118.11Z"/><path class="cls-30" d="M364.7,142.24a9.7,9.7,0,1,1,9.7-9.7A9.71,9.71,0,0,1,364.7,142.24Zm0-15.14a5.45,5.45,0,1,0,5.45,5.44A5.45,5.45,0,0,0,364.7,127.1Z"/><path class="cls-31" d="M364.7,132.9a.35.35,0,0,1-.3-.17.36.36,0,0,1,.11-.49l23.56-15.4a.35.35,0,1,1,.38.59l-23.56,15.41A.33.33,0,0,1,364.7,132.9Z"/><polygon class="cls-32" points="384.66 122.5 384.5 122.46 381.66 121.88 386.81 118.51 389.84 119.12 384.66 122.5"/><path class="cls-33" d="M387.12,115l-.7,3-5.15,3.37a12.8,12.8,0,0,0,.69-3Z"/><text class="cls-34" transform="translate(346.7 162.4)">G<tspan class="cls-35" x="7.51" y="0">O</tspan><tspan class="cls-36" x="15.33" y="0">ALS</tspan></text><circle class="cls-37" cx="365.15" cy="133.65" r="48.14"/><circle class="cls-38" cx="368.95" cy="273.55" r="42.93" transform="translate(20.34 572.58) rotate(-77.18)"/><circle class="cls-39" cx="365.15" cy="266.58" r="42.93" transform="translate(23.06 562.17) rotate(-76.96)"/><circle class="cls-40" cx="365.15" cy="266.58" r="42.93" transform="translate(23.06 562.17) rotate(-76.96)"/><circle class="cls-2" cx="365.15" cy="266.58" r="42.93" transform="translate(23.06 562.17) rotate(-76.96)"/><path class="cls-41" d="M345.17,270.06c-.35,0-.71-.48-1-.75a2.32,2.32,0,0,1-.41-1.33v-2a2.8,2.8,0,0,1,2.1-2.69l5.17-1.29a1.34,1.34,0,0,0,.75-.49,1.36,1.36,0,0,0,.3-.85v-3.08h5.54v3.08a1.37,1.37,0,0,0,1.05,1.34l5.17,1.29A2.8,2.8,0,0,1,366,266v2a2.32,2.32,0,0,1-.41,1.33c-.27.27-.63.75-1,.75Z"/><path class="cls-42" d="M365.37,264.29a2.79,2.79,0,0,0-1.51-1L358.69,262a1.4,1.4,0,0,1-.76-.49c-.07-.1-.13.13-.17,0l-1.5,1.59h-2.78l-1.5-1.59c0,.11-.1,0-.18.15a1.17,1.17,0,0,1-.75.41l-5.17,1.25a2.73,2.73,0,0,0-2.1,2.64v2a2.32,2.32,0,0,0,.41,1.33c.27.27.63.75,1,.75h19.4c.35,0,.71-.48,1-.75A2.32,2.32,0,0,0,366,268v-2A2.76,2.76,0,0,0,365.37,264.29Z"/><polygon class="cls-43" points="350.02 263.25 351.41 261.17 354.87 263.25 353.48 265.33 350.02 263.25"/><polygon class="cls-44" points="359.72 263.25 358.33 261.17 354.87 263.25 356.26 265.33 359.72 263.25"/><path class="cls-45" d="M358.85,254c-.2-2.5-1.29-4.27-4.16-4.27s-4,1.85-4.2,4.34c-.31.14-.52.7-.46,1.5s.4,1.56.76,1.61c.65,2,2.15,3.71,3.9,3.71s3.24-1.66,3.89-3.71c.36-.05.7-.74.76-1.61S359.16,254.11,358.85,254Z"/><path class="cls-46" d="M351.59,254.68h.24s-.17-1.44.45-1.75c1-.5,1.39.95,3.43.73s1.92,1,1.92,1h.2s.08-.49.28-.61a.7.7,0,0,1,1.07.31s0-.27,0-.48c0-3.32-1.27-4.47-2.85-5a3.36,3.36,0,0,0-2.84,0,4.79,4.79,0,0,1-1,.43,3.43,3.43,0,0,0-1.3.75c-.85.77-1.17,1.8-1,3.83a2.16,2.16,0,0,1,0,.51.78.78,0,0,1,1.08-.36C351.48,254.19,351.59,254.68,351.59,254.68Z"/><path class="cls-47" d="M367.34,270.06c-.35,0-.71-.48-1-.75A2.31,2.31,0,0,1,366,268v-2a2.75,2.75,0,0,1,.58-1.7,2.82,2.82,0,0,1,1.52-1l5.16-1.29a1.37,1.37,0,0,0,1-1.34v-3.08h5.54v3.08a1.36,1.36,0,0,0,.3.85,1.34,1.34,0,0,0,.75.49L386,263.3a2.79,2.79,0,0,1,1.51,1,2.7,2.7,0,0,1,.59,1.7v2a2.32,2.32,0,0,1-.41,1.33c-.27.27-.62.75-1,.75Z"/><path class="cls-48" d="M387.54,264.29a2.79,2.79,0,0,0-1.51-1L380.86,262a1.34,1.34,0,0,1-.75-.49c-.08-.1-.13.13-.18,0l-1.5,1.59h-2.77l-1.51-1.59c0,.11-.09,0-.17.15a1.22,1.22,0,0,1-.76.41l-5.16,1.25A2.7,2.7,0,0,0,366,266v2a2.31,2.31,0,0,0,.4,1.33c.27.27.63.75,1,.75h19.4c.36,0,.71-.48,1-.75a2.32,2.32,0,0,0,.41-1.33v-2A2.7,2.7,0,0,0,387.54,264.29Z"/><polygon class="cls-49" points="372.19 263.25 373.58 261.17 377.04 263.25 375.66 265.33 372.19 263.25"/><polygon class="cls-50" points="381.89 263.25 380.51 261.17 377.04 263.25 378.43 265.33 381.89 263.25"/><path class="cls-51" d="M381,254c-.2-2.5-1.29-4.27-4.16-4.27s-4,1.85-4.2,4.34c-.31.14-.52.7-.46,1.5s.4,1.56.77,1.61c.64,2,2.14,3.71,3.89,3.71s3.24-1.66,3.89-3.71c.37-.05.7-.74.77-1.61S381.33,254.11,381,254Z"/><path class="cls-52" d="M373.76,254.68H374s-.18-1.44.44-1.75c1-.5,1.39.95,3.43.73s1.92,1,1.92,1h.2s.08-.49.28-.61a.7.7,0,0,1,1.07.31s0-.27,0-.48c0-3.32-1.28-4.47-2.86-5a3.36,3.36,0,0,0-2.84,0,4.57,4.57,0,0,1-1,.43,3.43,3.43,0,0,0-1.3.75c-.85.77-1.17,1.8-1,3.83a3,3,0,0,1,0,.51.77.77,0,0,1,1.07-.36C373.65,254.19,373.76,254.68,373.76,254.68Z"/><path class="cls-53" d="M351.36,274.13a2.07,2.07,0,0,1-1.48-.61,2.12,2.12,0,0,1-.61-1.48v-3a4.19,4.19,0,0,1,3.16-4l7.78-1.95a2,2,0,0,0,1.13-.73,2.11,2.11,0,0,0,.45-1.29v-5.67h8.34V261a2.1,2.1,0,0,0,.44,1.29,2,2,0,0,0,1.14.73l7.77,1.95a4.19,4.19,0,0,1,3.16,4v3a2.12,2.12,0,0,1-.61,1.48,2.07,2.07,0,0,1-1.48.61Z"/><path class="cls-54" d="M381.75,266.48a4.1,4.1,0,0,0-2.27-1.48l-7.77-1.95a2,2,0,0,1-1.14-.73,2.22,2.22,0,0,1-.27-.5L368,263.7h-4.17l-2.26-1.88a2.22,2.22,0,0,1-.27.5,2,2,0,0,1-1.13.73L352.43,265a4.19,4.19,0,0,0-3.16,4v3a2.12,2.12,0,0,0,.61,1.48,2.07,2.07,0,0,0,1.48.61h29.19a2.07,2.07,0,0,0,1.48-.61,2.12,2.12,0,0,0,.61-1.48v-3A4.13,4.13,0,0,0,381.75,266.48Z"/><polygon class="cls-55" points="358.66 264.31 360.74 261.18 365.96 264.31 363.87 267.44 358.66 264.31"/><polygon class="cls-56" points="373.25 264.31 371.17 261.18 365.96 264.31 368.04 267.44 373.25 264.31"/><path class="cls-57" d="M371.94,251c-.3-3.76-1.93-6.43-6.26-6.43s-6,2.78-6.32,6.54c-.46.2-.78,1-.69,2.25s.6,2.35,1.15,2.42c1,3.09,3.23,5.59,5.86,5.59s4.88-2.5,5.86-5.59c.55-.07,1-1.11,1.15-2.42S372.41,251.17,371.94,251Z"/><path class="cls-58" d="M361,252h.37s-.27-2.17.66-2.64c1.5-.76,2.1,1.43,5.17,1.11S370.1,252,370.1,252h.31s.12-.75.43-.93a1.05,1.05,0,0,1,1.6.48s0-.42,0-.73c0-5-1.92-6.72-4.29-7.55s-3.64-.37-4.33,0a7.08,7.08,0,0,1-1.47.63,5.12,5.12,0,0,0-1.92,1.11c-1.29,1.17-1.76,2.71-1.55,5.77a3.65,3.65,0,0,1,0,.76,1.16,1.16,0,0,1,1.62-.53C360.85,251.29,361,252,361,252Z"/><text class="cls-59" transform="translate(352.23 287)">TE<tspan class="cls-60" x="11.8" y="0">A</tspan><tspan class="cls-61" x="18.9" y="0">M</tspan><tspan x="-1.14" y="11.01">WORK</tspan></text><circle class="cls-62" cx="365.15" cy="266.58" r="48.14" transform="translate(23.21 562.34) rotate(-76.99)"/><circle class="cls-63" cx="267.75" cy="363.92" r="42.93" transform="translate(-178.91 295.91) rotate(-45)"/><circle class="cls-64" cx="263.94" cy="356.95" r="42.93" transform="translate(-119.02 132.41) rotate(-23.14)"/><circle class="cls-65" cx="263.94" cy="356.95" r="42.93" transform="translate(-119.02 132.41) rotate(-23.14)"/><circle class="cls-2" cx="263.94" cy="356.95" r="42.93" transform="translate(-119.02 132.41) rotate(-23.14)"/><text class="cls-66" transform="translate(234.07 374.22)">INNO<tspan class="cls-67" x="24.16" y="0">V</tspan><tspan class="cls-68" x="29.61" y="0">A</tspan><tspan x="35.4" y="0">TION</tspan></text><path class="cls-69" d="M280.31,351v-7.39h-3.09a13.53,13.53,0,0,0-.91-2.18l2.19-2.2L273.28,334h-2.43l.23,2.19a12.65,12.65,0,0,0-2.18-.9v-3.1h-7.39v3.1a12.55,12.55,0,0,0-2.17.9l-2.2-2.19h-2.43l-2.8,5.22,2.2,2.2a12.69,12.69,0,0,0-.91,2.18h-3.1V351h3.1a13,13,0,0,0,.91,2.18l-2.2,2.19,2.8,5.23h2.43l2.2-2.2a11.85,11.85,0,0,0,2.17.91v3.1h7.39v-3.1a11.94,11.94,0,0,0,2.18-.91l-.23,2.2h2.43l5.22-5.23-2.19-2.19a13.92,13.92,0,0,0,.91-2.18Zm-15.1,3a6.74,6.74,0,1,1,6.74-6.74A6.74,6.74,0,0,1,265.21,354.05Z"/><path class="cls-70" d="M277.88,351v-7.39h-3.1a12.65,12.65,0,0,0-.9-2.18l2.19-2.2L270.85,334l-2.2,2.19a12.65,12.65,0,0,0-2.18-.9v-3.1h-7.39v3.1a13,13,0,0,0-2.18.9L254.71,334l-5.23,5.22,2.2,2.2a11.94,11.94,0,0,0-.91,2.18h-3.1V351h3.1a12.24,12.24,0,0,0,.91,2.18l-2.2,2.19,5.23,5.23,2.19-2.2a12.24,12.24,0,0,0,2.18.91v3.1h7.39v-3.1a11.94,11.94,0,0,0,2.18-.91l2.2,2.2,5.22-5.23-2.19-2.19a13,13,0,0,0,.9-2.18Zm-15.1,3a6.74,6.74,0,1,1,6.74-6.74A6.74,6.74,0,0,1,262.78,354.05Z"/><circle class="cls-71" cx="263.94" cy="356.95" r="47.59" transform="translate(-119.3 132.88) rotate(-23.21)"/><circle class="cls-72" cx="149.36" cy="363.92" r="42.93" transform="translate(-233.98 452.21) rotate(-80.66)"/><circle class="cls-73" cx="145.55" cy="356.95" r="42.93" transform="translate(-209.77 207.47) rotate(-45)"/><circle class="cls-74" cx="145.55" cy="356.95" r="42.93" transform="translate(-209.77 207.47) rotate(-45)"/><circle class="cls-2" cx="145.55" cy="356.95" r="42.93" transform="translate(-209.77 207.47) rotate(-45)"/><polygon class="cls-75" points="158.85 334.48 132.82 334.48 128.2 340.63 163.46 340.63 158.85 334.48"/><polygon class="cls-76" points="163.46 340.63 128.2 340.63 145.83 363.63 163.46 340.63"/><polygon class="cls-77" points="151.83 334.48 139.84 334.48 137.71 340.63 153.95 340.63 151.83 334.48"/><polygon class="cls-78" points="153.95 340.63 137.71 340.63 145.83 363.63 153.95 340.63"/><text class="cls-79" transform="translate(130.01 379.09)">V<tspan class="cls-61" x="5.97" y="0">A</tspan><tspan class="cls-80" x="13.12" y="0">L</tspan><tspan class="cls-81" x="18.39" y="0">UE</tspan></text><circle class="cls-82" cx="145.55" cy="356.95" r="48.07" transform="translate(-209.77 207.47) rotate(-45)"/><circle class="cls-83" cx="54.27" cy="273.55" r="42.93" transform="translate(-224.28 260.06) rotate(-76.01)"/><circle class="cls-84" cx="50.47" cy="266.58" r="42.93" transform="translate(-220.69 257.44) rotate(-77.35)"/><circle class="cls-85" cx="50.47" cy="266.58" r="42.93" transform="translate(-220.69 257.44) rotate(-77.35)"/><circle class="cls-2" cx="50.47" cy="266.58" r="42.93" transform="translate(-220.69 257.44) rotate(-77.35)"/><text class="cls-86" transform="translate(29.22 296.42)">Q<tspan class="cls-87" x="7.97" y="0">U</tspan><tspan class="cls-61" x="15.13" y="0">ALI</tspan><tspan class="cls-88" x="31.12" y="0">T</tspan><tspan x="37.34" y="0">Y</tspan></text><polygon class="cls-89" points="34.76 282.52 41.16 280.92 45.97 285.73 52.37 261.71 41.16 258.51 34.76 282.52"/><polygon class="cls-90" points="66.78 282.52 60.38 280.92 55.57 285.73 49.17 261.71 60.38 258.51 66.78 282.52"/><polygon class="cls-91" points="50.77 238.89 55.74 236.35 58.77 241.04 64.36 241.32 64.64 246.9 69.33 249.93 66.78 254.91 69.33 259.88 64.64 262.91 64.36 268.49 58.77 268.77 55.74 273.46 50.77 270.92 45.8 273.46 42.76 268.77 37.18 268.49 36.9 262.91 32.21 259.88 34.76 254.91 32.21 249.93 36.9 246.9 37.18 241.32 42.76 241.04 45.8 236.35 50.77 238.89"/><polygon class="cls-92" points="50.77 237.29 55.74 234.75 58.77 239.44 64.36 239.72 64.64 245.3 69.33 248.33 66.78 253.3 69.33 258.28 64.64 261.31 64.36 266.89 58.77 267.17 55.74 271.86 50.77 269.31 45.8 271.86 42.76 267.17 37.18 266.89 36.9 261.31 32.21 258.28 34.76 253.3 32.21 248.33 36.9 245.3 37.18 239.72 42.76 239.44 45.8 234.75 50.77 237.29"/><circle class="cls-93" cx="50.77" cy="253.01" r="12.81"/><path class="cls-94" d="M46.05,248.38l.87-.42c.28-.14.57-.31.86-.49a9.46,9.46,0,0,0,.92-.72,10.23,10.23,0,0,0,1-1.14h3.77v12h2v2.82H47v-2.82h2.12v-7.84l-2.12,1Z"/><circle class="cls-95" cx="50.47" cy="266.58" r="48.17" transform="translate(-220.65 256.29) rotate(-77.11)"/><circle class="cls-96" cx="54.27" cy="150.46" r="42.93" transform="translate(-90.5 82.45) rotate(-45)"/><circle class="cls-97" cx="50.47" cy="143.49" r="42.93"/><circle class="cls-98" cx="50.47" cy="143.49" r="42.93"/><circle class="cls-2" cx="50.47" cy="143.49" r="42.93"/><path class="cls-99" d="M51.09,109.15a12.23,12.23,0,0,0-12.21,12.21,21.91,21.91,0,0,0,4.82,11.82c1.09,1.45,1.07,4.43,1,4.95a.13.13,0,0,0,0,.06.36.36,0,0,0,.36.36H57.14a.35.35,0,0,0,.35-.36v-.06c-.06-.52-.11-3.49,1-4.94a21.86,21.86,0,0,0,4.82-11.83A12.22,12.22,0,0,0,51.09,109.15Z"/><path class="cls-100" d="M57.37,139.65H44.81a.36.36,0,0,0,0,.71H57.37a.36.36,0,0,0,0-.71Z"/><path class="cls-101" d="M57.37,141.68H44.81a.36.36,0,0,0,0,.71H57.37a.36.36,0,0,0,0-.71Z"/><path class="cls-102" d="M57.37,143.7H44.81a.36.36,0,0,0,0,.71H57.37a.36.36,0,0,0,0-.71Z"/><path class="cls-103" d="M55.85,145.93H46.33a.36.36,0,0,0,0,.71h9.52a.36.36,0,0,0,0-.71Z"/><text class="cls-86" transform="translate(22.67 162.4)">CRE<tspan class="cls-104" x="19.04" y="0">A</tspan><tspan x="25.37" y="0">TIVI</tspan><tspan class="cls-88" x="44.23" y="0">T</tspan><tspan x="50.46" y="0">Y</tspan></text><circle class="cls-105" cx="50.47" cy="143.49" r="48.97"/><circle class="cls-106" cx="149.36" cy="57.04" r="42.93" transform="translate(-10.4 63.27) rotate(-23.14)"/><circle class="cls-107" cx="145.55" cy="50.07" r="42.93"/><circle class="cls-108" cx="145.55" cy="50.07" r="42.93"/><circle class="cls-2" cx="145.55" cy="50.07" r="42.93"/><path class="cls-109" d="M147.45,57h0a25,25,0,0,1-13.16-22V25.22h0a26.47,26.47,0,0,1,26.32,0h0v9.72A25,25,0,0,1,147.45,57Z"/><text class="cls-86" transform="translate(121.31 70.72)">INTEGRI<tspan class="cls-88" x="39.67" y="0">T</tspan><tspan class="cls-61" x="45.89" y="0">Y</tspan></text><circle class="cls-110" cx="145.55" cy="50.07" r="48.07"/><circle class="cls-111" cx="268.84" cy="57.04" r="42.93" transform="translate(38.41 206.8) rotate(-45)"/><circle class="cls-112" cx="265.03" cy="50.07" r="42.93"/><circle class="cls-113" cx="265.03" cy="50.07" r="42.93"/><circle class="cls-2" cx="265.03" cy="50.07" r="42.93"/><rect class="cls-114" x="250.95" y="47.15" width="8.34" height="12.8"/><rect class="cls-115" x="261.67" y="43.52" width="8.34" height="16.43"/><rect class="cls-116" x="272.4" y="37.31" width="8.34" height="22.65"/><path class="cls-117" d="M251.5,43.07l-1.41,0,.09-3.8c15.2.36,23.16-5.11,24.34-16.71l3.79.38C277.36,32.18,271.91,43.07,251.5,43.07Z"/><polygon class="cls-118" points="271.73 23.13 280.96 23.57 276.57 18.73 271.73 23.13"/><text class="cls-34" transform="translate(242.85 70.72)">G<tspan class="cls-119" x="7.51" y="0">R</tspan><tspan x="13.9" y="0">O</tspan><tspan class="cls-120" x="21.87" y="0">W</tspan><tspan class="cls-36" x="31.86" y="0">TH</tspan></text><circle class="cls-121" cx="265.03" cy="50.07" r="48.07"/></g></g></g></svg>