<svg xmlns="http://www.w3.org/2000/svg" xmlns:xlink="http://www.w3.org/1999/xlink" viewBox="0 0 1906.54 1322.29"><defs><style>.cls-1{fill:#91b3fa;}.cls-2{fill:#dce5fe;}.cls-3{fill:#bdd0fb;}.cls-4{fill:url(#linear-gradient);}.cls-5{fill:url(#linear-gradient-2);}.cls-6{fill:url(#linear-gradient-3);}.cls-7{fill:url(#linear-gradient-4);}.cls-8{fill:url(#linear-gradient-5);}.cls-9{fill:url(#linear-gradient-6);}.cls-10{fill:url(#linear-gradient-7);}.cls-11{fill:url(#linear-gradient-8);}.cls-12{fill:url(#linear-gradient-9);}.cls-13{fill:url(#linear-gradient-10);}.cls-14{fill:url(#linear-gradient-11);}.cls-15{fill:url(#linear-gradient-12);}.cls-16{fill:url(#linear-gradient-13);}.cls-17{fill:url(#linear-gradient-14);}.cls-18{fill:url(#linear-gradient-15);}.cls-19{fill:url(#linear-gradient-16);}.cls-20{fill:url(#linear-gradient-17);}.cls-21{fill:url(#linear-gradient-18);}.cls-22{fill:url(#linear-gradient-19);}.cls-23{fill:url(#linear-gradient-20);}.cls-24{fill:url(#linear-gradient-21);}.cls-25{fill:url(#linear-gradient-22);}.cls-26{fill:url(#linear-gradient-23);}.cls-27{fill:url(#linear-gradient-24);}.cls-28{fill:url(#linear-gradient-25);}.cls-29{fill:url(#linear-gradient-26);}.cls-30{fill:url(#linear-gradient-27);}.cls-31{fill:url(#linear-gradient-28);}.cls-32{fill:url(#linear-gradient-29);}.cls-33{fill:url(#linear-gradient-30);}.cls-34{fill:url(#linear-gradient-31);}.cls-35{fill:url(#linear-gradient-32);}.cls-36{fill:url(#linear-gradient-33);}.cls-37{fill:url(#linear-gradient-34);}.cls-38{fill:url(#linear-gradient-35);}.cls-39{fill:url(#linear-gradient-36);}.cls-40{fill:url(#linear-gradient-37);}.cls-41{fill:url(#linear-gradient-38);}.cls-42{fill:url(#linear-gradient-39);}.cls-43{fill:url(#linear-gradient-40);}.cls-44{fill:url(#linear-gradient-41);}.cls-45{fill:url(#linear-gradient-42);}.cls-46{fill:url(#linear-gradient-43);}.cls-47{fill:url(#linear-gradient-44);}.cls-48{fill:url(#linear-gradient-45);}.cls-49{fill:url(#linear-gradient-46);}.cls-50{fill:url(#linear-gradient-47);}.cls-51{fill:url(#linear-gradient-48);}.cls-52{fill:url(#linear-gradient-49);}.cls-53{fill:url(#linear-gradient-50);}.cls-54{fill:url(#linear-gradient-51);}.cls-55{fill:url(#linear-gradient-52);}.cls-56{fill:url(#linear-gradient-53);}.cls-57{fill:url(#linear-gradient-54);}.cls-58{fill:url(#linear-gradient-55);}.cls-59{fill:url(#linear-gradient-56);}.cls-60{fill:url(#linear-gradient-57);}.cls-61{fill:url(#linear-gradient-58);}.cls-62{fill:url(#linear-gradient-59);}.cls-63{fill:url(#linear-gradient-60);}.cls-64{fill:url(#linear-gradient-61);}.cls-65{fill:url(#linear-gradient-62);}.cls-66{fill:url(#linear-gradient-63);}.cls-67{fill:url(#linear-gradient-64);}.cls-68{fill:url(#linear-gradient-65);}.cls-69{fill:url(#linear-gradient-66);}.cls-70{fill:url(#linear-gradient-67);}.cls-71{fill:url(#linear-gradient-68);}.cls-72{fill:url(#linear-gradient-69);}.cls-73{fill:url(#linear-gradient-70);}.cls-74{fill:url(#linear-gradient-71);}.cls-75{fill:url(#linear-gradient-72);}.cls-76{fill:url(#linear-gradient-73);}.cls-77{fill:url(#linear-gradient-74);}.cls-78{fill:url(#linear-gradient-75);}.cls-79{fill:url(#linear-gradient-76);}.cls-80{fill:url(#linear-gradient-77);}.cls-81{fill:url(#linear-gradient-78);}.cls-82{fill:url(#linear-gradient-79);}.cls-83{fill:url(#linear-gradient-80);}.cls-84{fill:url(#linear-gradient-81);}.cls-85{fill:url(#linear-gradient-82);}.cls-86{fill:url(#linear-gradient-83);}.cls-87{fill:url(#linear-gradient-84);}.cls-88{fill:url(#linear-gradient-85);}.cls-89{fill:url(#linear-gradient-86);}.cls-90{fill:url(#linear-gradient-87);}.cls-91{fill:url(#linear-gradient-88);}.cls-92{fill:url(#linear-gradient-89);}.cls-93{fill:url(#linear-gradient-90);}.cls-94{fill:url(#linear-gradient-91);}.cls-95{fill:url(#linear-gradient-92);}.cls-96{fill:url(#linear-gradient-93);}.cls-97{fill:url(#linear-gradient-94);}.cls-98{fill:url(#linear-gradient-95);}.cls-99{fill:url(#linear-gradient-96);}.cls-100{fill:url(#linear-gradient-97);}.cls-101{fill:url(#linear-gradient-98);}.cls-102{fill:url(#linear-gradient-99);}.cls-103{fill:url(#linear-gradient-100);}.cls-104{fill:url(#linear-gradient-101);}.cls-105{fill:url(#linear-gradient-102);}.cls-106{fill:url(#linear-gradient-103);}.cls-107{fill:url(#linear-gradient-104);}.cls-108{fill:url(#linear-gradient-105);}.cls-109{fill:url(#linear-gradient-106);}.cls-110{fill:url(#linear-gradient-107);}.cls-111{fill:url(#linear-gradient-108);}.cls-112{fill:url(#linear-gradient-109);}.cls-113{fill:url(#linear-gradient-110);}.cls-114{fill:url(#linear-gradient-111);}.cls-115{fill:url(#linear-gradient-112);}.cls-116{fill:url(#linear-gradient-113);}.cls-117{fill:url(#linear-gradient-114);}.cls-118{fill:url(#linear-gradient-115);}.cls-119{fill:url(#linear-gradient-116);}.cls-120{fill:url(#linear-gradient-117);}.cls-121{fill:url(#linear-gradient-118);}.cls-122{fill:url(#linear-gradient-119);}.cls-123{fill:url(#linear-gradient-120);}.cls-124{fill:url(#linear-gradient-121);}.cls-125{fill:url(#linear-gradient-122);}.cls-126{fill:url(#linear-gradient-123);}.cls-127{fill:url(#linear-gradient-124);}.cls-128{fill:url(#linear-gradient-125);}.cls-129{fill:url(#linear-gradient-126);}.cls-130{fill:url(#linear-gradient-127);}.cls-131{fill:url(#linear-gradient-128);}.cls-132{fill:url(#linear-gradient-129);}.cls-133{fill:url(#linear-gradient-130);}.cls-134{fill:url(#linear-gradient-131);}.cls-135{fill:url(#linear-gradient-132);}.cls-136{fill:url(#linear-gradient-133);}.cls-137{fill:url(#linear-gradient-134);}.cls-138{fill:url(#linear-gradient-135);}.cls-139{fill:url(#linear-gradient-136);}.cls-140{fill:url(#linear-gradient-137);}.cls-141{fill:url(#linear-gradient-138);}.cls-142{fill:url(#linear-gradient-139);}.cls-143{fill:url(#linear-gradient-140);}.cls-144{fill:url(#linear-gradient-141);}.cls-145{fill:url(#linear-gradient-142);}.cls-146{fill:url(#linear-gradient-143);}.cls-147{fill:url(#linear-gradient-144);}.cls-148{fill:url(#linear-gradient-145);}.cls-149{fill:url(#linear-gradient-146);}.cls-150{fill:url(#linear-gradient-147);}.cls-151{fill:url(#linear-gradient-148);}.cls-152{fill:url(#linear-gradient-149);}.cls-153{fill:url(#linear-gradient-150);}.cls-154{fill:url(#linear-gradient-151);}.cls-155{fill:url(#linear-gradient-152);}.cls-156{fill:url(#linear-gradient-153);}.cls-157{fill:url(#linear-gradient-154);}.cls-158{fill:url(#linear-gradient-155);}.cls-159{fill:url(#linear-gradient-156);}.cls-160{fill:url(#linear-gradient-157);}.cls-161{fill:url(#linear-gradient-158);}.cls-162{fill:url(#linear-gradient-159);}.cls-163{fill:url(#linear-gradient-160);}.cls-164{fill:url(#linear-gradient-161);}.cls-165{fill:url(#linear-gradient-162);}.cls-166{fill:url(#linear-gradient-163);}.cls-167{fill:url(#linear-gradient-164);}.cls-168{fill:url(#linear-gradient-165);}.cls-169{fill:url(#linear-gradient-166);}.cls-170{fill:url(#linear-gradient-167);}.cls-171{fill:#7d97f4;}</style><linearGradient id="linear-gradient" x1="1596.14" y1="176.59" x2="732.41" y2="1323.34" gradientUnits="userSpaceOnUse"><stop offset="0" stop-color="#4042e2"/><stop offset="1" stop-color="#4f52ff"/></linearGradient><linearGradient id="linear-gradient-2" x1="2192.09" y1="2797.28" x2="2949.81" y2="2797.28" gradientUnits="userSpaceOnUse"><stop offset="0" stop-color="#dae3fe"/><stop offset="1" stop-color="#e9effd"/></linearGradient><linearGradient id="linear-gradient-3" x1="1596.14" y1="176.59" x2="732.41" y2="1323.33" xlink:href="#linear-gradient"/><linearGradient id="linear-gradient-4" x1="2336.21" y1="2797.28" x2="2805.69" y2="2797.28" xlink:href="#linear-gradient-2"/><linearGradient id="linear-gradient-5" x1="1596.14" y1="176.59" x2="732.41" y2="1323.33" gradientUnits="userSpaceOnUse"><stop offset="0" stop-color="#e1473d"/><stop offset="1" stop-color="#e9605a"/></linearGradient><linearGradient id="linear-gradient-6" x1="2474.1" y1="2797.28" x2="2667.8" y2="2797.28" xlink:href="#linear-gradient-2"/><linearGradient id="linear-gradient-7" x1="-3016.83" y1="2578.03" x2="-3151.65" y2="3125.73" gradientTransform="translate(-2827.93 260.87) rotate(-135)" gradientUnits="userSpaceOnUse"><stop offset="0" stop-color="#2b3582"/><stop offset="1" stop-color="#150e42"/></linearGradient><linearGradient id="linear-gradient-8" x1="-3140.56" y1="2690.24" x2="-3181.93" y2="3133.97" gradientTransform="translate(-1518.93 2437.87) rotate(-135)" gradientUnits="userSpaceOnUse"><stop offset="0" stop-color="#09005d"/><stop offset="1" stop-color="#1a0f91"/></linearGradient><linearGradient id="linear-gradient-9" x1="-3159.55" y1="3301.07" x2="-3215.66" y2="3903" gradientTransform="translate(-1518.93 2437.87) rotate(-135)" gradientUnits="userSpaceOnUse"><stop offset="0" stop-color="#fe7062"/><stop offset="1" stop-color="#ff928e"/></linearGradient><linearGradient id="linear-gradient-10" x1="2562.46" y1="3302.29" x2="2505.34" y2="3915.04" gradientTransform="matrix(0.71, 0.71, 0.71, -0.71, -1134.81, 2822)" xlink:href="#linear-gradient-9"/><linearGradient id="linear-gradient-11" x1="1174.12" y1="361.71" x2="42.69" y2="2089.6" gradientTransform="matrix(1, 0, 0, 1, 0, 0)" xlink:href="#linear-gradient-9"/><linearGradient id="linear-gradient-12" x1="879.46" y1="633.5" x2="58.07" y2="1887.9" xlink:href="#linear-gradient"/><linearGradient id="linear-gradient-13" x1="615.27" y1="814.69" x2="5.86" y2="1745.36" gradientTransform="matrix(1, 0, 0, 1, 0, 0)" xlink:href="#linear-gradient-9"/><linearGradient id="linear-gradient-14" x1="349.07" y1="1016.8" x2="-41.91" y2="1613.9" xlink:href="#linear-gradient"/><linearGradient id="linear-gradient-15" x1="4880.63" y1="2782.12" x2="3699.68" y2="4126.77" gradientTransform="matrix(-1, 0, 0, 1, 6907.67, 0)" xlink:href="#linear-gradient-8"/><linearGradient id="linear-gradient-16" x1="4780" y1="2683.93" x2="3599.05" y2="4028.57" gradientTransform="matrix(-1, 0, 0, 1, 6907.67, 0)" xlink:href="#linear-gradient-8"/><linearGradient id="linear-gradient-17" x1="4016.8" y1="3019.56" x2="4383.21" y2="3019.56" gradientTransform="matrix(-1, 0, 0, 1, 6907.67, 0)" xlink:href="#linear-gradient-9"/><linearGradient id="linear-gradient-18" x1="4234.61" y1="3019.56" x2="4601.02" y2="3019.56" gradientTransform="matrix(-1, 0, 0, 1, 6907.67, 0)" xlink:href="#linear-gradient-9"/><linearGradient id="linear-gradient-19" x1="4347.64" y1="2577.54" x2="4690.08" y2="2577.54" gradientTransform="matrix(-1, 0, 0, 1, 6907.67, 0)" xlink:href="#linear-gradient-9"/><linearGradient id="linear-gradient-20" x1="4315.5" y1="2714.29" x2="4547.74" y2="2714.29" gradientTransform="matrix(-1, 0, 0, 1, 6907.67, 0)" xlink:href="#linear-gradient-9"/><linearGradient id="linear-gradient-21" x1="4255.37" y1="2880.62" x2="4473.82" y2="2880.62" gradientTransform="matrix(-1, 0, 0, 1, 5598.67, -2177)" xlink:href="#linear-gradient-9"/><linearGradient id="linear-gradient-22" x1="4190.48" y1="3046.96" x2="4408.93" y2="3046.96" gradientTransform="matrix(-1, 0, 0, 1, 5598.67, -2177)" xlink:href="#linear-gradient-9"/><linearGradient id="linear-gradient-23" x1="4115.53" y1="3213.3" x2="4347.78" y2="3213.3" gradientTransform="matrix(-1, 0, 0, 1, 6907.67, 0)" xlink:href="#linear-gradient-9"/><linearGradient id="linear-gradient-24" x1="4049.74" y1="3379.64" x2="4281.99" y2="3379.64" gradientTransform="matrix(-1, 0, 0, 1, 6907.67, 0)" xlink:href="#linear-gradient-9"/><linearGradient id="linear-gradient-25" x1="8222.52" y1="2649.81" x2="8259.18" y2="2649.81" gradientTransform="translate(-6108.89)" xlink:href="#linear-gradient-8"/><linearGradient id="linear-gradient-26" x1="2114.23" y1="2665.95" x2="2150.29" y2="2665.95" xlink:href="#linear-gradient"/><linearGradient id="linear-gradient-27" x1="8238.96" y1="2598.22" x2="8229.86" y2="2677.62" gradientTransform="translate(-6108.89)" gradientUnits="userSpaceOnUse"><stop offset="0" stop-color="#ff928e"/><stop offset="1" stop-color="#feb3b1"/></linearGradient><linearGradient id="linear-gradient-28" x1="2250.06" y1="2571.7" x2="2297.46" y2="2571.7" xlink:href="#linear-gradient"/><linearGradient id="linear-gradient-29" x1="8358.95" y1="2559.72" x2="8406.17" y2="2559.72" gradientTransform="translate(-6108.89)" xlink:href="#linear-gradient-8"/><linearGradient id="linear-gradient-30" x1="9580.94" y1="1858.26" x2="9574.39" y2="1915.41" gradientTransform="translate(-6456.13 -1846.18) rotate(15.66)" xlink:href="#linear-gradient-27"/><linearGradient id="linear-gradient-31" x1="2118.57" y1="2523.85" x2="2295.38" y2="2523.85" gradientTransform="matrix(1, 0, 0, 1, 0, 0)" xlink:href="#linear-gradient-8"/><linearGradient id="linear-gradient-32" x1="2313.73" y1="2262.64" x2="2048.63" y2="2478.31" xlink:href="#linear-gradient"/><linearGradient id="linear-gradient-33" x1="2339.43" y1="2295.12" x2="2074.52" y2="2510.65" xlink:href="#linear-gradient"/><linearGradient id="linear-gradient-34" x1="2193.33" y1="2384.82" x2="2120.85" y2="2459.09" gradientTransform="matrix(1, 0, 0, 1, 0, 0)" xlink:href="#linear-gradient-27"/><linearGradient id="linear-gradient-35" x1="2290.59" y1="2238.79" x2="2039.43" y2="2443.13" xlink:href="#linear-gradient"/><linearGradient id="linear-gradient-36" x1="9793.93" y1="1355.81" x2="9761.71" y2="1495.04" gradientTransform="translate(-6515.27 -2309) rotate(19.47)" xlink:href="#linear-gradient-27"/><linearGradient id="linear-gradient-37" x1="2269.57" y1="2233.29" x2="2229.92" y2="2249.52" gradientTransform="matrix(1, 0, 0, 1, 0, 0)" xlink:href="#linear-gradient-27"/><linearGradient id="linear-gradient-38" x1="4716.9" y1="6297.44" x2="4768.72" y2="6297.44" gradientTransform="matrix(0.88, -0.47, 0.47, 0.88, -4886.43, -1082.96)" xlink:href="#linear-gradient-8"/><linearGradient id="linear-gradient-39" x1="4684.78" y1="6330.9" x2="4721.05" y2="6293.7" gradientTransform="matrix(0.88, -0.47, 0.47, 0.88, -4886.43, -1082.96)" xlink:href="#linear-gradient-27"/><linearGradient id="linear-gradient-40" x1="971.76" y1="48.31" x2="1117.22" y2="48.31" xlink:href="#linear-gradient"/><linearGradient id="linear-gradient-41" x1="2463.32" y1="2184.63" x2="2347.35" y2="2307.96" gradientTransform="matrix(1, 0, 0, 1, 0, 0)" xlink:href="#linear-gradient-9"/><linearGradient id="linear-gradient-42" x1="2287.56" y1="2220.73" x2="2250.82" y2="2274.92" xlink:href="#linear-gradient"/><linearGradient id="linear-gradient-43" x1="2352.61" y1="2245.9" x2="2373.52" y2="2245.9" gradientTransform="matrix(1, 0, 0, 1, 0, 0)" xlink:href="#linear-gradient-27"/><linearGradient id="linear-gradient-44" x1="1771.76" y1="2773.53" x2="1783.51" y2="2773.53" xlink:href="#linear-gradient-2"/><linearGradient id="linear-gradient-45" x1="1755.68" y1="2765.83" x2="1767.73" y2="2765.83" xlink:href="#linear-gradient-2"/><linearGradient id="linear-gradient-46" x1="1738.8" y1="2760.61" x2="1751.02" y2="2760.61" xlink:href="#linear-gradient-2"/><linearGradient id="linear-gradient-47" x1="1721.45" y1="2757.81" x2="1733.74" y2="2757.81" xlink:href="#linear-gradient-2"/><linearGradient id="linear-gradient-48" x1="1703.95" y1="2757.32" x2="1716.23" y2="2757.32" xlink:href="#linear-gradient-2"/><linearGradient id="linear-gradient-49" x1="1686.56" y1="2759.05" x2="1698.75" y2="2759.05" xlink:href="#linear-gradient-2"/><linearGradient id="linear-gradient-50" x1="1669.5" y1="2762.9" x2="1681.54" y2="2762.9" xlink:href="#linear-gradient-2"/><linearGradient id="linear-gradient-51" x1="1653" y1="2768.82" x2="1664.81" y2="2768.82" xlink:href="#linear-gradient-2"/><linearGradient id="linear-gradient-52" x1="1637.27" y1="2776.67" x2="1648.8" y2="2776.67" xlink:href="#linear-gradient-2"/><linearGradient id="linear-gradient-53" x1="1622.41" y1="2786.24" x2="1633.63" y2="2786.24" xlink:href="#linear-gradient-2"/><linearGradient id="linear-gradient-54" x1="1608.5" y1="2797.31" x2="1619.39" y2="2797.31" xlink:href="#linear-gradient-2"/><linearGradient id="linear-gradient-55" x1="1595.61" y1="2809.69" x2="1606.16" y2="2809.69" xlink:href="#linear-gradient-2"/><linearGradient id="linear-gradient-56" x1="1583.76" y1="2823.2" x2="1593.96" y2="2823.2" xlink:href="#linear-gradient-2"/><linearGradient id="linear-gradient-57" x1="1572.95" y1="2837.69" x2="1582.81" y2="2837.69" xlink:href="#linear-gradient-2"/><linearGradient id="linear-gradient-58" x1="1563.21" y1="2853.01" x2="1572.71" y2="2853.01" xlink:href="#linear-gradient-2"/><linearGradient id="linear-gradient-59" x1="1554.55" y1="2869.07" x2="1563.69" y2="2869.07" xlink:href="#linear-gradient-2"/><linearGradient id="linear-gradient-60" x1="1547.01" y1="2885.74" x2="1555.78" y2="2885.74" xlink:href="#linear-gradient-2"/><linearGradient id="linear-gradient-61" x1="1540.59" y1="2902.95" x2="1548.99" y2="2902.95" xlink:href="#linear-gradient-2"/><linearGradient id="linear-gradient-62" x1="1535.3" y1="2920.6" x2="1543.34" y2="2920.6" xlink:href="#linear-gradient-2"/><linearGradient id="linear-gradient-63" x1="1531.15" y1="2938.59" x2="1538.81" y2="2938.59" xlink:href="#linear-gradient-2"/><linearGradient id="linear-gradient-64" x1="1528.13" y1="2956.85" x2="1535.42" y2="2956.85" xlink:href="#linear-gradient-2"/><linearGradient id="linear-gradient-65" x1="1526.24" y1="2975.3" x2="1533.16" y2="2975.3" xlink:href="#linear-gradient-2"/><linearGradient id="linear-gradient-66" x1="1525.47" y1="2993.86" x2="1532.02" y2="2993.86" xlink:href="#linear-gradient-2"/><linearGradient id="linear-gradient-67" x1="1525.6" y1="3012.45" x2="1532.23" y2="3012.45" xlink:href="#linear-gradient-2"/><linearGradient id="linear-gradient-68" x1="1526.74" y1="3030.98" x2="1533.7" y2="3030.98" xlink:href="#linear-gradient-2"/><linearGradient id="linear-gradient-69" x1="1529.02" y1="3049.39" x2="1536.29" y2="3049.39" xlink:href="#linear-gradient-2"/><linearGradient id="linear-gradient-70" x1="1532.42" y1="3067.59" x2="1540" y2="3067.59" xlink:href="#linear-gradient-2"/><linearGradient id="linear-gradient-71" x1="1536.95" y1="3085.49" x2="1544.85" y2="3085.49" xlink:href="#linear-gradient-2"/><linearGradient id="linear-gradient-72" x1="1542.6" y1="3103.01" x2="1550.82" y2="3103.01" xlink:href="#linear-gradient-2"/><linearGradient id="linear-gradient-73" x1="1549.39" y1="3120.05" x2="1557.92" y2="3120.05" xlink:href="#linear-gradient-2"/><linearGradient id="linear-gradient-74" x1="1557.29" y1="3136.54" x2="1566.14" y2="3136.54" xlink:href="#linear-gradient-2"/><linearGradient id="linear-gradient-75" x1="1566.3" y1="3152.38" x2="1575.45" y2="3152.38" xlink:href="#linear-gradient-2"/><linearGradient id="linear-gradient-76" x1="1576.36" y1="3167.48" x2="1585.79" y2="3167.48" xlink:href="#linear-gradient-2"/><linearGradient id="linear-gradient-77" x1="1587.4" y1="3181.79" x2="1597.08" y2="3181.79" xlink:href="#linear-gradient-2"/><linearGradient id="linear-gradient-78" x1="1599.35" y1="3195.26" x2="1609.26" y2="3195.26" xlink:href="#linear-gradient-2"/><linearGradient id="linear-gradient-79" x1="1612.12" y1="3207.84" x2="1622.25" y2="3207.84" xlink:href="#linear-gradient-2"/><linearGradient id="linear-gradient-80" x1="1625.66" y1="3219.51" x2="1635.98" y2="3219.51" xlink:href="#linear-gradient-2"/><linearGradient id="linear-gradient-81" x1="1639.91" y1="3230.22" x2="1650.4" y2="3230.22" xlink:href="#linear-gradient-2"/><linearGradient id="linear-gradient-82" x1="1654.78" y1="3239.92" x2="1665.43" y2="3239.92" xlink:href="#linear-gradient-2"/><linearGradient id="linear-gradient-83" x1="1670.22" y1="3248.59" x2="1681" y2="3248.59" xlink:href="#linear-gradient-2"/><linearGradient id="linear-gradient-84" x1="1686.16" y1="3256.18" x2="1697.06" y2="3256.18" xlink:href="#linear-gradient-2"/><linearGradient id="linear-gradient-85" x1="1702.55" y1="3262.65" x2="1713.54" y2="3262.65" xlink:href="#linear-gradient-2"/><linearGradient id="linear-gradient-86" x1="1719.3" y1="3267.96" x2="1730.37" y2="3267.96" xlink:href="#linear-gradient-2"/><linearGradient id="linear-gradient-87" x1="1736.36" y1="3272.07" x2="1747.47" y2="3272.07" xlink:href="#linear-gradient-2"/><linearGradient id="linear-gradient-88" x1="1753.65" y1="3274.93" x2="1764.8" y2="3274.93" xlink:href="#linear-gradient-2"/><linearGradient id="linear-gradient-89" x1="1771.1" y1="3276.51" x2="1782.25" y2="3276.51" xlink:href="#linear-gradient-2"/><linearGradient id="linear-gradient-90" x1="1788.63" y1="3276.78" x2="1799.75" y2="3276.78" xlink:href="#linear-gradient-2"/><linearGradient id="linear-gradient-91" x1="1806.14" y1="3275.78" x2="1817.22" y2="3275.78" xlink:href="#linear-gradient-2"/><linearGradient id="linear-gradient-92" x1="1823.57" y1="3273.61" x2="1834.59" y2="3273.61" xlink:href="#linear-gradient-2"/><linearGradient id="linear-gradient-93" x1="1840.86" y1="3270.34" x2="1851.79" y2="3270.34" xlink:href="#linear-gradient-2"/><linearGradient id="linear-gradient-94" x1="1857.95" y1="3266.03" x2="1868.78" y2="3266.03" xlink:href="#linear-gradient-2"/><linearGradient id="linear-gradient-95" x1="1874.8" y1="3260.78" x2="1885.53" y2="3260.78" xlink:href="#linear-gradient-2"/><linearGradient id="linear-gradient-96" x1="1891.41" y1="3254.68" x2="1902.03" y2="3254.68" xlink:href="#linear-gradient-2"/><linearGradient id="linear-gradient-97" x1="1907.74" y1="3247.8" x2="1918.25" y2="3247.8" xlink:href="#linear-gradient-2"/><linearGradient id="linear-gradient-98" x1="1923.8" y1="3240.23" x2="1934.2" y2="3240.23" xlink:href="#linear-gradient-2"/><linearGradient id="linear-gradient-99" x1="1939.59" y1="3232.06" x2="1949.88" y2="3232.06" xlink:href="#linear-gradient-2"/><linearGradient id="linear-gradient-100" x1="1955.12" y1="3223.34" x2="1965.3" y2="3223.34" xlink:href="#linear-gradient-2"/><linearGradient id="linear-gradient-101" x1="1970.4" y1="3214.15" x2="1980.48" y2="3214.15" xlink:href="#linear-gradient-2"/><linearGradient id="linear-gradient-102" x1="1985.45" y1="3204.54" x2="1995.44" y2="3204.54" xlink:href="#linear-gradient-2"/><linearGradient id="linear-gradient-103" x1="2000.29" y1="3194.58" x2="2010.19" y2="3194.58" xlink:href="#linear-gradient-2"/><linearGradient id="linear-gradient-104" x1="2014.93" y1="3184.31" x2="2024.75" y2="3184.31" xlink:href="#linear-gradient-2"/><linearGradient id="linear-gradient-105" x1="2029.41" y1="3173.78" x2="2039.16" y2="3173.78" xlink:href="#linear-gradient-2"/><linearGradient id="linear-gradient-106" x1="2043.75" y1="3163.04" x2="2053.43" y2="3163.04" xlink:href="#linear-gradient-2"/><linearGradient id="linear-gradient-107" x1="2057.97" y1="3152.14" x2="2067.59" y2="3152.14" xlink:href="#linear-gradient-2"/><linearGradient id="linear-gradient-108" x1="2072.09" y1="3141.1" x2="2081.65" y2="3141.1" xlink:href="#linear-gradient-2"/><linearGradient id="linear-gradient-109" x1="2086.1" y1="3129.91" x2="2095.61" y2="3129.91" xlink:href="#linear-gradient-2"/><linearGradient id="linear-gradient-110" x1="2100.01" y1="3118.59" x2="2109.46" y2="3118.59" xlink:href="#linear-gradient-2"/><linearGradient id="linear-gradient-111" x1="2113.82" y1="3107.13" x2="2123.21" y2="3107.13" xlink:href="#linear-gradient-2"/><linearGradient id="linear-gradient-112" x1="2127.53" y1="3095.53" x2="2136.86" y2="3095.53" xlink:href="#linear-gradient-2"/><linearGradient id="linear-gradient-113" x1="2141.13" y1="3083.8" x2="2150.41" y2="3083.8" xlink:href="#linear-gradient-2"/><linearGradient id="linear-gradient-114" x1="2154.64" y1="3071.93" x2="2163.86" y2="3071.93" xlink:href="#linear-gradient-2"/><linearGradient id="linear-gradient-115" x1="2168.04" y1="3059.93" x2="2177.21" y2="3059.93" xlink:href="#linear-gradient-2"/><linearGradient id="linear-gradient-116" x1="2181.34" y1="3047.81" x2="2190.45" y2="3047.81" xlink:href="#linear-gradient-2"/><linearGradient id="linear-gradient-117" x1="2194.53" y1="3035.57" x2="2203.59" y2="3035.57" xlink:href="#linear-gradient-2"/><linearGradient id="linear-gradient-118" x1="2207.63" y1="3023.2" x2="2216.62" y2="3023.2" xlink:href="#linear-gradient-2"/><linearGradient id="linear-gradient-119" x1="2220.62" y1="3010.71" x2="2229.56" y2="3010.71" xlink:href="#linear-gradient-2"/><linearGradient id="linear-gradient-120" x1="2233.51" y1="2998.11" x2="2242.39" y2="2998.11" xlink:href="#linear-gradient-2"/><linearGradient id="linear-gradient-121" x1="2246.3" y1="2985.38" x2="2255.13" y2="2985.38" xlink:href="#linear-gradient-2"/><linearGradient id="linear-gradient-122" x1="2258.99" y1="2972.55" x2="2267.76" y2="2972.55" xlink:href="#linear-gradient-2"/><linearGradient id="linear-gradient-123" x1="2271.58" y1="2959.6" x2="2280.3" y2="2959.6" xlink:href="#linear-gradient-2"/><linearGradient id="linear-gradient-124" x1="2284.07" y1="2946.54" x2="2292.73" y2="2946.54" xlink:href="#linear-gradient-2"/><linearGradient id="linear-gradient-125" x1="2296.46" y1="2933.37" x2="2305.07" y2="2933.37" xlink:href="#linear-gradient-2"/><linearGradient id="linear-gradient-126" x1="2308.76" y1="2920.1" x2="2317.31" y2="2920.1" xlink:href="#linear-gradient-2"/><linearGradient id="linear-gradient-127" x1="2320.95" y1="2906.73" x2="2329.44" y2="2906.73" xlink:href="#linear-gradient-2"/><linearGradient id="linear-gradient-128" x1="2333.04" y1="2893.25" x2="2341.48" y2="2893.25" xlink:href="#linear-gradient-2"/><linearGradient id="linear-gradient-129" x1="2345.04" y1="2879.67" x2="2353.42" y2="2879.67" xlink:href="#linear-gradient-2"/><linearGradient id="linear-gradient-130" x1="2356.94" y1="2866" x2="2365.27" y2="2866" xlink:href="#linear-gradient-2"/><linearGradient id="linear-gradient-131" x1="2368.74" y1="2852.23" x2="2377.01" y2="2852.23" xlink:href="#linear-gradient-2"/><linearGradient id="linear-gradient-132" x1="2380.44" y1="2838.36" x2="2388.66" y2="2838.36" xlink:href="#linear-gradient-2"/><linearGradient id="linear-gradient-133" x1="2392.05" y1="2824.41" x2="2400.21" y2="2824.41" xlink:href="#linear-gradient-2"/><linearGradient id="linear-gradient-134" x1="2403.56" y1="2810.37" x2="2411.67" y2="2810.37" xlink:href="#linear-gradient-2"/><linearGradient id="linear-gradient-135" x1="2414.97" y1="2796.23" x2="2423.03" y2="2796.23" xlink:href="#linear-gradient-2"/><linearGradient id="linear-gradient-136" x1="2426.29" y1="2782.02" x2="2434.29" y2="2782.02" xlink:href="#linear-gradient-2"/><linearGradient id="linear-gradient-137" x1="2437.51" y1="2767.72" x2="2445.45" y2="2767.72" xlink:href="#linear-gradient-2"/><linearGradient id="linear-gradient-138" x1="2448.64" y1="2753.33" x2="2456.53" y2="2753.33" xlink:href="#linear-gradient-2"/><linearGradient id="linear-gradient-139" x1="2459.68" y1="2738.88" x2="2467.53" y2="2738.88" xlink:href="#linear-gradient-2"/><linearGradient id="linear-gradient-140" x1="2470.67" y1="2724.39" x2="2478.47" y2="2724.39" xlink:href="#linear-gradient-2"/><linearGradient id="linear-gradient-141" x1="2481.62" y1="2709.86" x2="2489.39" y2="2709.86" xlink:href="#linear-gradient-2"/><linearGradient id="linear-gradient-142" x1="2492.55" y1="2695.33" x2="2500.29" y2="2695.33" xlink:href="#linear-gradient-2"/><linearGradient id="linear-gradient-143" x1="2503.48" y1="2680.8" x2="2511.2" y2="2680.8" xlink:href="#linear-gradient-2"/><linearGradient id="linear-gradient-144" x1="2514.44" y1="2666.29" x2="2522.14" y2="2666.29" xlink:href="#linear-gradient-2"/><linearGradient id="linear-gradient-145" x1="2525.43" y1="2651.81" x2="2533.13" y2="2651.81" xlink:href="#linear-gradient-2"/><linearGradient id="linear-gradient-146" x1="2536.49" y1="2637.4" x2="2544.19" y2="2637.4" xlink:href="#linear-gradient-2"/><linearGradient id="linear-gradient-147" x1="2547.63" y1="2623.05" x2="2555.33" y2="2623.05" xlink:href="#linear-gradient-2"/><linearGradient id="linear-gradient-148" x1="2558.87" y1="2608.8" x2="2566.57" y2="2608.8" xlink:href="#linear-gradient-2"/><linearGradient id="linear-gradient-149" x1="2570.23" y1="2594.65" x2="2577.94" y2="2594.65" xlink:href="#linear-gradient-2"/><linearGradient id="linear-gradient-150" x1="2581.72" y1="2580.63" x2="2589.46" y2="2580.63" xlink:href="#linear-gradient-2"/><linearGradient id="linear-gradient-151" x1="2593.37" y1="2566.76" x2="2601.14" y2="2566.76" xlink:href="#linear-gradient-2"/><linearGradient id="linear-gradient-152" x1="2605.2" y1="2553.07" x2="2613" y2="2553.07" xlink:href="#linear-gradient-2"/><linearGradient id="linear-gradient-153" x1="2617.22" y1="2539.56" x2="2625.05" y2="2539.56" xlink:href="#linear-gradient-2"/><linearGradient id="linear-gradient-154" x1="2629.45" y1="2526.28" x2="2637.33" y2="2526.28" xlink:href="#linear-gradient-2"/><linearGradient id="linear-gradient-155" x1="2641.92" y1="2513.24" x2="2649.84" y2="2513.24" xlink:href="#linear-gradient-2"/><linearGradient id="linear-gradient-156" x1="2654.63" y1="2500.48" x2="2662.6" y2="2500.48" xlink:href="#linear-gradient-2"/><linearGradient id="linear-gradient-157" x1="2667.6" y1="2488.02" x2="2675.63" y2="2488.02" xlink:href="#linear-gradient-2"/><linearGradient id="linear-gradient-158" x1="2680.85" y1="2475.89" x2="2688.95" y2="2475.89" xlink:href="#linear-gradient-2"/><linearGradient id="linear-gradient-159" x1="2694.4" y1="2464.13" x2="2702.55" y2="2464.13" xlink:href="#linear-gradient-2"/><linearGradient id="linear-gradient-160" x1="2708.23" y1="2452.78" x2="2716.46" y2="2452.78" xlink:href="#linear-gradient-2"/><linearGradient id="linear-gradient-161" x1="2722.38" y1="2441.87" x2="2730.68" y2="2441.87" xlink:href="#linear-gradient-2"/><linearGradient id="linear-gradient-162" x1="2736.85" y1="2431.44" x2="2745.21" y2="2431.44" xlink:href="#linear-gradient-2"/><linearGradient id="linear-gradient-163" x1="2751.63" y1="2421.52" x2="2760.07" y2="2421.52" xlink:href="#linear-gradient-2"/><linearGradient id="linear-gradient-164" x1="2766.73" y1="2412.16" x2="2775.24" y2="2412.16" xlink:href="#linear-gradient-2"/><linearGradient id="linear-gradient-165" x1="2782.14" y1="2403.38" x2="2790.72" y2="2403.38" xlink:href="#linear-gradient-2"/><linearGradient id="linear-gradient-166" x1="2797.86" y1="2395.22" x2="2806.49" y2="2395.22" xlink:href="#linear-gradient-2"/><linearGradient id="linear-gradient-167" x1="2813.86" y1="2387.72" x2="2822.55" y2="2387.72" xlink:href="#linear-gradient-2"/></defs><g id="Illustration"><path class="cls-1" d="M2318.27,3458.65s61.9-93.26,212.48-124.91c139.72-29.36,475-88.69,594.44-168.8,5.29-3.55,11.4,3,8,8.53-36.93,59.47-140.44,200.73-330.12,279.23C2558.42,3553.93,2318.27,3458.65,2318.27,3458.65Z" transform="translate(-1309 -2177)"/><path class="cls-2" d="M3025.58,3247.51a253.09,253.09,0,0,1-32.6,32.14c-1.45,1.24-2.88,2.5-4.34,3.71l-4.47,3.53-9,7.06-9.22,6.66c-3.09,2.19-6.11,4.52-9.32,6.5a516.13,516.13,0,0,1-79.27,43.41c-6.78,3.31-13.84,5.84-20.8,8.64s-13.9,5.71-21,7.94l-21.29,7.17c-3.53,1.28-7.16,2.16-10.76,3.18l-10.8,3-10.81,3-5.41,1.48-5.47,1.21-21.86,4.85c-3.65.77-7.29,1.68-10.94,2.35l-11,2-21.94,4c-29.29,5.11-58.62,10-88,14.13-14.7,2.18-29.42,4.11-44.13,6.12l-44.19,5.53c-29.45,3.65-58.89,7.25-88.16,11.86-7.34,1.05-14.6,2.47-21.89,3.77-3.66.6-7.26,1.46-10.88,2.23s-7.25,1.52-10.84,2.42c-7.14,1.95-14.37,3.63-21.37,6.1-7.13,2.07-13.94,5.06-20.85,7.83l0,0a.86.86,0,0,1-1.13-.54,1,1,0,0,1,.46-1.18,252.56,252.56,0,0,1,42.21-15.42c3.6-1,7.24-1.8,10.86-2.72s7.24-1.83,10.9-2.53c7.29-1.5,14.58-3.13,21.91-4.37,29.3-5.32,58.75-9.19,88.14-13.34l44.08-6.2c14.68-2.11,29.38-4.13,44-6.41,29.34-4.38,58.6-9.25,87.82-14.37l21.89-4,10.94-2c3.65-.66,7.24-1.52,10.86-2.28l21.7-4.67,5.42-1.17,5.37-1.43,10.73-2.9c28.7-7.35,56.76-17.25,84.24-28.63a510.38,510.38,0,0,0,79.51-41.19c3.24-1.89,6.26-4.14,9.42-6.18l9.37-6.28,9.12-6.68,4.57-3.34c1.49-1.15,2.95-2.35,4.43-3.52,2.94-2.38,5.95-4.67,8.83-7.13l8.58-7.46a221.19,221.19,0,0,0,16.25-16,.11.11,0,0,1,.16,0A.15.15,0,0,1,3025.58,3247.51Z" transform="translate(-1309 -2177)"/><path class="cls-3" d="M3215.12,2408.25c-36.4,140.82-279.75,951.18-1037.91,845.63,0,0,30.7-577.22,1023.67-860.85C3209.57,2390.55,3217.49,2399.05,3215.12,2408.25Z" transform="translate(-1309 -2177)"/><path class="cls-2" d="M3105.83,2498.4c-27.3,36.6-55.28,72.58-83.56,108.3s-57,71.07-86.06,106.08-58.53,69.64-88.37,103.91-60.22,68-91,101.39c-61.63,66.59-125.12,131.34-191.85,192.29q-49.89,45.87-102.94,87.79c-35.38,27.84-71.87,54.25-110.23,77.49a3.4,3.4,0,0,1-4.78-1.38,3.84,3.84,0,0,1,1.3-5.07h0c38.11-22.88,74.49-49,109.81-76.56s69.62-56.71,102.91-87.08c66.77-60.52,130.4-124.91,192.19-191.17q46.26-49.8,91.25-100.91T2933.23,2710q43.77-52.29,86.38-105.65c28.39-35.59,56.5-71.45,83.89-107.88h0a1.42,1.42,0,0,1,2.08-.25A1.64,1.64,0,0,1,3105.83,2498.4Z" transform="translate(-1309 -2177)"/><path class="cls-3" d="M3108.41,2908.91c4.46-7.69-3.79-16.62-11.11-12-70.83,44.4-260,154.63-407.56,165.25-240.27,17.29-518,159.4-546.37,350.25C2143.37,3412.38,2622.85,3746.55,3108.41,2908.91Z" transform="translate(-1309 -2177)"/><path class="cls-2" d="M3018.56,2983.64c-1.86,1.73-3.64,3.1-5.44,4.62l-5.44,4.37-11,8.61q-11,8.53-22.14,16.89-22.28,16.7-44.91,32.86c-30.18,21.53-60.88,42.24-91.88,62.42s-62.46,39.59-94.29,58.27l-11.93,7-12,6.86c-8,4.54-16,9.23-24.07,13.62l-24.22,13.36-24.4,13c-65.23,34.22-132.2,64.86-200.95,90.33-2.15.8-4.29,1.63-6.44,2.4l-6.5,2.24-13,4.48-13,4.49c-4.34,1.44-8.73,2.75-13.09,4.13l-13.09,4.1c-4.38,1.33-8.7,2.83-13.13,4l-26.41,7.35A915.07,915.07,0,0,1,2234,3370.37a.88.88,0,0,1-1-.8.93.93,0,0,1,.74-1h0a980.69,980.69,0,0,0,106.6-23.25l26.26-7.6c4.39-1.2,8.7-2.74,13-4.11l13-4.22c4.33-1.42,8.68-2.78,13-4.26l12.9-4.6,12.89-4.61,6.45-2.3c2.15-.78,4.27-1.64,6.4-2.46l25.58-9.85c8.51-3.35,16.93-6.94,25.4-10.39,4.22-1.76,8.47-3.45,12.67-5.26l12.58-5.52,12.57-5.52c4.2-1.82,8.39-3.68,12.53-5.64,33.39-15.12,66.2-31.62,98.84-48.47,65.17-34,128.68-71.47,191-111q46.7-29.76,92.28-61.44,22.81-15.8,45.31-32.09,11.22-8.19,22.36-16.51l11.06-8.42,5.49-4.27c1.79-1.44,3.68-2.91,5.28-4.32l.14-.13a.84.84,0,0,1,1.23.12A1,1,0,0,1,3018.56,2983.64Z" transform="translate(-1309 -2177)"/><path class="cls-1" d="M1849.43,3113.93s24.6-163.57-41.08-217.71-197.72-101-172.76-337.38c14.61-138.38,19.08-199.15,20.27-225.76.47-10.38,10.12-17.43,19.42-14.16,65.79,23.16,278,110.1,303.77,275.41C2009.57,2790.31,1849.43,3113.93,1849.43,3113.93Z" transform="translate(-1309 -2177)"/><path class="cls-2" d="M1718.6,2392.43c35.73,46.11,65.2,97,91.54,149.61,6.34,13.28,12.82,26.51,18.58,40.1l4.44,10.14,2.22,5.07,2.08,5.13,8.28,20.56,2,5.15,1.9,5.22,3.79,10.43,3.79,10.43,1.9,5.22,1.74,5.28c4.53,14.13,9.45,28.05,13.33,42.54,1.07,3.57,1.91,7.22,2.83,10.84s1.84,7.24,2.69,10.89l2.37,11,1.18,5.48,1,5.52,2,11,1.72,11.09c.59,3.69,1.14,7.4,1.55,11.12l1.37,11.14a656.17,656.17,0,0,1,3.61,89.62,750.92,750.92,0,0,1-7.66,89.19q-3.32,22.13-7.94,44c-3.07,14.6-6.57,29-11,43.35a3.74,3.74,0,0,1-4.77,2.56,4.05,4.05,0,0,1-2.46-4.91l0-.11c1.88-6.92,3.55-14.13,5.09-21.27s3-14.35,4.35-21.58q4-21.64,6.7-43.55a762.59,762.59,0,0,0,6.24-87.89,709.42,709.42,0,0,0-4.27-87.85c-3.51-29.06-8.56-57.94-16.35-86-3.77-14-8.5-27.94-12.86-41.91l-1.68-5.23-1.83-5.16-3.66-10.34-3.67-10.34-1.83-5.17-2-5.11c-10.23-27.4-21.79-54.22-33.89-80.77-12.36-26.42-25.63-52.38-40-77.68a853.93,853.93,0,0,0-45.94-73.87l-.06-.09a2.37,2.37,0,0,1,.45-3.18A2.06,2.06,0,0,1,1718.6,2392.43Z" transform="translate(-1309 -2177)"/><path class="cls-3" d="M1774.58,3417.93c9.77,8-74.76-168-64.7-413.53,4.73-115.71,31.46-256.2-18.38-323.31-41.47-55.86-217.47-64.21-275.35-65.44-7.23-.15-11.37,8.68-6.87,14.69,22.19,29.6,68.65,98.16,72.7,158,5.33,78.91,63.17,140.84,120.64,166.62s88.42,45.45,98.12,153.38S1746.82,3395.25,1774.58,3417.93Z" transform="translate(-1309 -2177)"/><path class="cls-2" d="M1488.49,2664.53A271.62,271.62,0,0,1,1587.1,2715a224.1,224.1,0,0,1,39.6,40.94,202.37,202.37,0,0,1,27.59,51l2.46,6.92c.8,2.31,1.4,4.69,2.11,7s1.4,4.72,2,7.06l1.76,7q3.56,14,6.92,28.08,6.75,28.13,12.65,56.48c7.9,37.78,14.72,75.82,19.37,114.27a1.55,1.55,0,0,1-1.28,1.75,1.5,1.5,0,0,1-1.64-1.27v0q-4.81-28.43-10.69-56.73t-12.13-56.42l-6.46-28.11-6.77-28q-3.37-14-7-28l-1.77-7c-.59-2.33-1.3-4.54-1.94-6.82s-1.24-4.55-2-6.78l-2.33-6.65c-6.27-17.76-15.49-34.21-26.26-49.36a214.19,214.19,0,0,0-17.76-21.38l-2.36-2.54-2.46-2.45c-1.65-1.62-3.25-3.28-4.93-4.87-3.4-3.12-6.76-6.28-10.32-9.21a276.49,276.49,0,0,0-45.42-31.07,280.16,280.16,0,0,0-50.12-21.92l-.07,0a1.26,1.26,0,0,1-.79-1.56A1.16,1.16,0,0,1,1488.49,2664.53Z" transform="translate(-1309 -2177)"/><path class="cls-1" d="M1760.28,3428.83c6.57,3.68-37-75.88-40.36-146s-18.26-189.72-75.26-261.28-119.42-78.08-198.07-13c-65.54,54.21-106.43,81.57-130.41,86.65-5.93,1.26-9,8.37-6.07,14,15.37,30,58.85,99,131.86,94.16,93.12-6.2,206-70.39,240.37-16.84s30,83.51,31,108.89S1716.79,3404.52,1760.28,3428.83Z" transform="translate(-1309 -2177)"/><path class="cls-2" d="M1473.31,3094.83a193.11,193.11,0,0,1,16.26-14.35c5.64-4.49,11.44-8.76,17.48-12.66a171.6,171.6,0,0,1,38.54-19.17,116,116,0,0,1,21.05-5,84.68,84.68,0,0,1,21.81-.08c1.81.31,3.65.49,5.44.92s3.62.81,5.35,1.33l10.25,3.37,10,4.13,9.71,4.95a123.94,123.94,0,0,1,33.85,28c9.66,11.29,17.24,24.3,23.48,37.79l2.34,5.07c.8,1.68,1.39,3.45,2.09,5.17,1.33,3.48,2.76,6.92,4,10.43l3.47,10.61c1.22,3.51,2,7.16,3,10.74a414.17,414.17,0,0,1,9,43.63,1.39,1.39,0,0,1-1.08,1.61,1.32,1.32,0,0,1-1.49-1v-.05c-3.25-14.38-6.39-28.77-10.87-42.71-2-7-4.63-13.85-7-20.72-1.29-3.39-2.77-6.7-4.15-10.06-.73-1.65-1.34-3.37-2.16-5l-2.4-4.85a164.75,164.75,0,0,0-23.27-35.67,120.43,120.43,0,0,0-32.2-26.08l-9.2-4.63-9.53-3.87-9.79-3.16c-1.63-.49-3.23-.81-4.84-1.23s-3.28-.57-4.91-.87a77.83,77.83,0,0,0-20,0,108.36,108.36,0,0,0-19.88,4.29,184,184,0,0,0-37.8,17.15,264,264,0,0,0-34.7,24.15l0,0a1.32,1.32,0,0,1-1.92-.26A1.51,1.51,0,0,1,1473.31,3094.83Z" transform="translate(-1309 -2177)"/><ellipse class="cls-1" cx="1261.95" cy="620.28" rx="432.62" ry="458.74"/><ellipse class="cls-4" cx="1261.95" cy="620.28" rx="369.23" ry="391.51"/><path class="cls-5" d="M2571,3199c-101.2,0-196.34-41.79-267.9-117.67s-111-176.76-111-284.07,39.41-208.19,111-284.07,166.7-117.66,267.9-117.66,196.34,41.79,267.9,117.66,111,176.76,111,284.07-39.4,208.19-111,284.07S2672.15,3199,2571,3199Zm0-783c-198.28,0-359.59,171.05-359.59,381.29s161.31,381.3,359.59,381.3,359.59-171,359.59-381.3S2769.23,2416,2571,2416Z" transform="translate(-1309 -2177)"/><ellipse class="cls-6" cx="1261.95" cy="620.28" rx="225.1" ry="238.69"/><path class="cls-7" d="M2571,3046.19c-129.43,0-234.74-111.66-234.74-248.91s105.31-248.9,234.74-248.9,234.74,111.65,234.74,248.9S2700.38,3046.19,2571,3046.19Zm0-477.37c-118.8,0-215.46,102.49-215.46,228.46s96.66,228.47,215.46,228.47,215.46-102.49,215.46-228.47S2689.76,2568.82,2571,2568.82Z" transform="translate(-1309 -2177)"/><ellipse class="cls-8" cx="1261.95" cy="620.28" rx="87.21" ry="92.47"/><path class="cls-9" d="M2571,2900c-53.4,0-96.85-46.07-96.85-102.7s43.45-102.69,96.85-102.69,96.85,46.07,96.85,102.69S2624.35,2900,2571,2900Zm0-184.95c-42.77,0-77.57,36.9-77.57,82.25s34.8,82.26,77.57,82.26,77.57-36.9,77.57-82.26S2613.72,2715,2571,2715Z" transform="translate(-1309 -2177)"/><polygon class="cls-10" points="1786.41 62.72 1798.07 75.08 1356.55 543.25 1344.89 530.89 1786.41 62.72"/><path class="cls-11" d="M2662.15,2678.06c6.69-7.09,38.22,26.35,31.54,33.44l-117,97.5c-4.32,3.6-9.92-2.34-6.52-6.92Z" transform="translate(-1309 -2177)"/><path class="cls-12" d="M3106.82,2252.35l59.4,6.26-81.54,86.46c-26.72,28.33-64,42.46-101.61,38.5h0Z" transform="translate(-1309 -2177)"/><path class="cls-13" d="M3095.16,2240l-5.9-63-81.54,86.46c-26.72,28.33-40,67.88-36.31,107.74h0Z" transform="translate(-1309 -2177)"/><path class="cls-14" d="M681.28,485.82H959.51a40.42,40.42,0,0,1,40.42,40.42v763.39a0,0,0,0,1,0,0H640.86a0,0,0,0,1,0,0V526.24A40.42,40.42,0,0,1,681.28,485.82Z"/><path class="cls-15" d="M506,735.22h232.1a40.42,40.42,0,0,1,40.42,40.42v514a0,0,0,0,1,0,0H465.58a0,0,0,0,1,0,0v-514A40.42,40.42,0,0,1,506,735.22Z"/><path class="cls-3" d="M2138.36,3141.69c.82-3.54-3.39-5.91-5.68-3.18-22.15,26.34-82.27,93.48-137.9,116.8-90.59,38-181.16,129-170,206.2C1824.82,3461.51,2048.34,3527.79,2138.36,3141.69Z" transform="translate(-1309 -2177)"/><path class="cls-2" d="M2112.86,3182.44c-.55,1-1.05,1.75-1.56,2.6l-1.56,2.42-3.17,4.81c-2.13,3.19-4.31,6.33-6.49,9.48q-6.57,9.42-13.34,18.67c-9,12.33-18.44,24.37-28,36.27s-19.39,23.54-29.49,34.91-20.38,22.6-31,33.46a705.52,705.52,0,0,1-67.22,61c-11.94,9.21-24.11,18.09-36.74,26.21a365.5,365.5,0,0,1-39.21,21.74.86.86,0,0,1-1.16-.47,1,1,0,0,1,.41-1.21c26.13-14.15,50.68-31.29,73.87-50.25,11.63-9.44,22.93-19.33,34-29.51s21.73-20.86,32.38-31.54c21.2-21.47,41.26-44.21,60.83-67.4q14.64-17.43,28.64-35.47,7-9,13.89-18.11l6.79-9.2,3.35-4.62,1.65-2.33,1.52-2.25.14-.19a.82.82,0,0,1,1.2-.21A1,1,0,0,1,2112.86,3182.44Z" transform="translate(-1309 -2177)"/><path class="cls-1" d="M1997.63,3072.62a2.7,2.7,0,0,0-5.16-1.19c-12,26.06-45.55,93.37-84.71,124.93-63.76,51.39-116.41,144.73-91.36,203.24C1816.4,3399.6,2007.22,3399.45,1997.63,3072.62Z" transform="translate(-1309 -2177)"/><path class="cls-2" d="M1986.13,3110.9c-.23,1-.46,1.66-.69,2.46l-.72,2.29-1.47,4.56c-1,3-2.07,6-3.13,9.05q-3.19,9-6.59,18c-4.55,11.9-9.44,23.66-14.48,35.35s-10.38,23.23-16,34.62-11.38,22.71-17.5,33.82a603.92,603.92,0,0,1-40.52,64.12c-7.56,10.09-15.36,20-23.69,29.35a307.76,307.76,0,0,1-26.63,26.34.83.83,0,0,1-1.23-.13,1,1,0,0,1,.09-1.27,416.64,416.64,0,0,0,47.72-57.32c7.2-10.21,14.07-20.7,20.69-31.36s12.79-21.63,19-32.57c12.31-22,23.4-44.68,34.09-67.61q8-17.22,15.32-34.76,3.72-8.76,7.27-17.58l3.47-8.86,1.71-4.44.83-2.23.74-2.1.08-.23a.85.85,0,0,1,1.11-.54A.93.93,0,0,1,1986.13,3110.9Z" transform="translate(-1309 -2177)"/><path class="cls-16" d="M329.31,897.26H518.12a40.42,40.42,0,0,1,40.42,40.42v351.16a0,0,0,0,1,0,0H288.88a0,0,0,0,1,0,0V937.68A40.42,40.42,0,0,1,329.31,897.26Z"/><path class="cls-17" d="M131,1094.24H319.78a40.42,40.42,0,0,1,40.42,40.42v154.17a0,0,0,0,1,0,0H90.54a0,0,0,0,1,0,0V1134.66A40.42,40.42,0,0,1,131,1094.24Z"/><path class="cls-18" d="M2238,3466.63a7.1,7.1,0,0,0,6.89-7.31v-874a6.91,6.91,0,1,0-13.79,0v874A7.11,7.11,0,0,0,2238,3466.63Z" transform="translate(-1309 -2177)"/><path class="cls-19" d="M2424.87,3466.63a7.11,7.11,0,0,0,6.9-7.31v-874a6.91,6.91,0,1,0-13.79,0v874A7.1,7.1,0,0,0,2424.87,3466.63Z" transform="translate(-1309 -2177)"/><path class="cls-20" d="M2884,3466.63a6.52,6.52,0,0,0,2.7-.59,7.49,7.49,0,0,0,3.65-9.59L2537.7,2576.94a6.76,6.76,0,0,0-9-3.87,7.48,7.48,0,0,0-3.65,9.59l352.61,879.52A6.91,6.91,0,0,0,2884,3466.63Z" transform="translate(-1309 -2177)"/><path class="cls-21" d="M2666.16,3466.63a6.48,6.48,0,0,0,2.7-.59,7.49,7.49,0,0,0,3.65-9.59l-352.62-879.51a6.76,6.76,0,0,0-9-3.87,7.48,7.48,0,0,0-3.65,9.59l352.62,879.52A6.89,6.89,0,0,0,2666.16,3466.63Z" transform="translate(-1309 -2177)"/><path class="cls-22" d="M2227.3,2587.84h323c5.36,0,9.72-4.61,9.72-10.3h0c0-5.69-4.36-10.31-9.72-10.31h-323c-5.37,0-9.72,4.62-9.72,10.31h0C2217.58,2583.23,2221.93,2587.84,2227.3,2587.84Z" transform="translate(-1309 -2177)"/><path class="cls-23" d="M2366.82,2721.6h218.45a7.33,7.33,0,0,0,0-14.63H2366.82a7.33,7.33,0,0,0,0,14.63Z" transform="translate(-1309 -2177)"/><rect class="cls-24" x="1124.85" y="696.31" width="218.45" height="14.62"/><rect class="cls-25" x="1189.74" y="862.65" width="218.45" height="14.62"/><path class="cls-26" d="M2566.79,3220.61h218.45a7.32,7.32,0,0,0,0-14.62H2566.79a7.32,7.32,0,0,0,0,14.62Z" transform="translate(-1309 -2177)"/><path class="cls-27" d="M2632.58,3387H2851a7.32,7.32,0,0,0,0-14.62H2632.58a7.32,7.32,0,0,0,0,14.62Z" transform="translate(-1309 -2177)"/><path class="cls-28" d="M2150.29,2663.65a3.76,3.76,0,0,0-.09-.88c-4.12-17.36-24.62-28.17-24.62-28.17l-5.24.44a4.34,4.34,0,0,0-3.75,3.25c-3.82,13.91-3.11,22.42-2.39,26.17l0,0A182.12,182.12,0,0,0,2150.29,2663.65Z" transform="translate(-1309 -2177)"/><path class="cls-29" d="M2114.23,2664.48a3.64,3.64,0,0,0,2.57,2.76c9.53,2.12,24.68.41,31-.47a3.09,3.09,0,0,0,2.45-3.12A182.11,182.11,0,0,1,2114.23,2664.48Z" transform="translate(-1309 -2177)"/><path class="cls-30" d="M2121.86,2619.26l-4.22,20.75a3.3,3.3,0,0,0,2.73,2.79,25.48,25.48,0,0,0,6.3-.11,4.26,4.26,0,0,0,3.18-5l5.46-18.42Z" transform="translate(-1309 -2177)"/><path class="cls-31" d="M2264.38,2571.72c-8-.24-12.17-1.24-14.32-2.17,0,.85,0,1.71,0,2.6a1.65,1.65,0,0,0,1.51,1.71l44-.3c1.4,0,2.22-1.74,1.61-3.11A310.87,310.87,0,0,1,2264.38,2571.72Z" transform="translate(-1309 -2177)"/><path class="cls-32" d="M2297.26,2570.45l0,0c-3.74-5.66-13.65-17.45-33.57-22.51l-7.31-.25a3.17,3.17,0,0,0-3,2.09,56.88,56.88,0,0,0-3.31,19.82c2.15.93,6.3,1.93,14.32,2.17A311,311,0,0,0,2297.26,2570.45Z" transform="translate(-1309 -2177)"/><path class="cls-33" d="M2258.37,2533.45c-.09.74-1.72,12-2.36,16.32a2.2,2.2,0,0,0,1.16,2.38,20.86,20.86,0,0,0,6.24,1.75,2.82,2.82,0,0,0,2.78-2.25l4.51-17.05Z" transform="translate(-1309 -2177)"/><path class="cls-34" d="M2167.73,2417.64a115,115,0,0,0-14,40.89c-3.23,22.22-30.7,147-35.07,166.83a2.78,2.78,0,0,0,2,3.33,42.46,42.46,0,0,0,10.56,1.34,4.92,4.92,0,0,0,4.3-3.15L2201,2466s43.58-8.9,59.58,11.15c9.6,12,3.28,33.21-5.26,63.18,0,0,10.52,5.57,17.53,1.86,0,0,32.67-54.15,19.27-87.34-6.2-15.36-33-30.51-59.58-33.45Z" transform="translate(-1309 -2177)"/><path class="cls-35" d="M2167.73,2417.64,2183.5,2269s68.35,0,112.16,26L2239,2420.43a18.18,18.18,0,0,1-16.49,11C2210.44,2431.37,2190.42,2429.1,2167.73,2417.64Z" transform="translate(-1309 -2177)"/><path class="cls-36" d="M2352.61,2255.05s-4.38,47.38-57,39.95c0,0-20.18,23.6-20.61,44.32,0,0,96,26.29,87.2-79.63Z" transform="translate(-1309 -2177)"/><path class="cls-37" d="M2160.72,2400.92s7-13,17.52-11.15,15.78,13,15.78,13l-17.53,9.29C2169.48,2415.79,2157.21,2412.07,2160.72,2400.92Z" transform="translate(-1309 -2177)"/><path class="cls-38" d="M2181.75,2315.44s-89.38,42.74-21,85.48l1.48,9.27s-54.35,8.36-56.68-58.51c-1.76-50.18,78-82.7,78-82.7Z" transform="translate(-1309 -2177)"/><path class="cls-39" d="M2239.21,2246.67l-12.88,29.2s14.34,11.14,28.92,6.79l3.76-41.46Z" transform="translate(-1309 -2177)"/><path class="cls-40" d="M2270.93,2214.9c.26.52,5.68,39.54,5.68,39.54l-21.08,2.81-10.31-36.18S2266.49,2206.09,2270.93,2214.9Z" transform="translate(-1309 -2177)"/><path class="cls-41" d="M2253,2224.75a3.41,3.41,0,0,0-.64,2.77l4,19.21a3,3,0,0,0,.29.83c.74,1.45,3.44,5.85,7.62,2.66,3.57-2.72,6.88-5.16,9.75-5.64a3.1,3.1,0,0,1,3.47,2.76,128.64,128.64,0,0,1,1.24,17.77,3.14,3.14,0,0,1-2.86,3.15c-4.18.26-12.34.53-19.07-.83a3.12,3.12,0,0,1-2.35-2.21c-1.49-5-5.73-19-7.5-22.81-1.64-3.5-6.52-4.15-8.78-4.25a3.06,3.06,0,0,1-2.21-1.15c-1.66-2.08-4.25-6.7.87-11.14a3.38,3.38,0,0,0,.43-4.49c-1.82-2.46-3.38-6.41.6-10.5s8.53-3,11.38-1.58a3,3,0,0,0,3.74-.73,2,2,0,0,1,1.89-.72,3,3,0,0,0,3.38-2.68,8.1,8.1,0,0,1,7-7.52c9.27-1.77,13.77,8.11,13.52,15s-10.41,8.21-16.14,7C2258.35,2218.74,2254.65,2222.62,2253,2224.75Z" transform="translate(-1309 -2177)"/><path class="cls-42" d="M2248.44,2249.49s-.05-12-4.63-13.23-9.58,2.26-5.74,9.52C2242.84,2254.81,2248.44,2249.49,2248.44,2249.49Z" transform="translate(-1309 -2177)"/><polygon class="cls-43" points="971.76 48.31 1117.22 24.16 1115.46 72.47 971.76 59.46 971.76 48.31"/><path class="cls-44" d="M2421.22,2199.46c-.77,9.56,0,39.67.41,49.6a3.26,3.26,0,0,0,3.17,3.2h2.46a4,4,0,0,0,3.89-3.5c2.71-17.77,4.1-34.48,3.17-49.35a3,3,0,0,0-3-2.9h-7.1A3.13,3.13,0,0,0,2421.22,2199.46Z" transform="translate(-1309 -2177)"/><path class="cls-45" d="M2283.53,2222.53h-4.29a1.48,1.48,0,0,0-1.42,1.22c-.93,4.51-.23,11.33.13,14.18a1.47,1.47,0,0,0,1.43,1.32h2.72a1.46,1.46,0,0,0,1.43-1.36l1.44-13.67A1.5,1.5,0,0,0,2283.53,2222.53Z" transform="translate(-1309 -2177)"/><path class="cls-46" d="M2352.61,2255.05s.8-10.76,2.15-11.89,11.87-12.27,13.63-12.27,3.5,3.72,0,5.57S2364,2244,2364,2244l9.51.86s-6.89,13.9-10.39,15.76S2352.61,2255.05,2352.61,2255.05Z" transform="translate(-1309 -2177)"/><path class="cls-47" d="M1778.18,2778.09l-4.47-2.61-.14-.08a3.83,3.83,0,0,1-1.38-5,3.41,3.41,0,0,1,4.75-1.47l4.75,2.76a3.84,3.84,0,0,1,1.39,5,3.4,3.4,0,0,1-4.76,1.47h0Z" transform="translate(-1309 -2177)"/><path class="cls-48" d="M1762.88,2770.24l-4.78-1.89-.14,0a3.77,3.77,0,0,1-2.06-4.76,3.44,3.44,0,0,1,4.48-2.18l5.07,2a3.77,3.77,0,0,1,2.06,4.76,3.43,3.43,0,0,1-4.48,2.19h0Z" transform="translate(-1309 -2177)"/><path class="cls-49" d="M1746.65,2764.79l-5-1.17-.14,0a3.69,3.69,0,0,1-2.64-4.39,3.47,3.47,0,0,1,4.14-2.81l5.27,1.23a3.7,3.7,0,0,1,2.65,4.39,3.48,3.48,0,0,1-4.15,2.81h0Z" transform="translate(-1309 -2177)"/><path class="cls-50" d="M1729.84,2761.7l-5.11-.48h-.13a3.62,3.62,0,0,1-3.14-4,3.52,3.52,0,0,1,3.75-3.33l5.37.49a3.63,3.63,0,0,1,3.15,4,3.53,3.53,0,0,1-3.75,3.34h-.14Z" transform="translate(-1309 -2177)"/><path class="cls-51" d="M1712.77,2760.89l-5.13.18h-.12a3.66,3.66,0,0,1-.24-7.31l5.37-.2a3.52,3.52,0,0,1,3.57,3.52,3.57,3.57,0,0,1-3.33,3.79h-.12Z" transform="translate(-1309 -2177)"/><path class="cls-52" d="M1695.71,2762.25l-5.08.82-.12,0a3.47,3.47,0,0,1-3.91-3.06,3.62,3.62,0,0,1,2.87-4.15l5.32-.86a3.46,3.46,0,0,1,3.92,3.05,3.63,3.63,0,0,1-2.87,4.16h0Z" transform="translate(-1309 -2177)"/><path class="cls-53" d="M1678.9,2765.7l-5,1.43-.12,0a3.42,3.42,0,0,1-4.2-2.55,3.65,3.65,0,0,1,2.4-4.45l5.19-1.51a3.41,3.41,0,0,1,4.21,2.55,3.67,3.67,0,0,1-2.41,4.46h0Z" transform="translate(-1309 -2177)"/><path class="cls-54" d="M1662.56,2771.16l-4.77,2-.12,0a3.35,3.35,0,0,1-4.43-2,3.69,3.69,0,0,1,1.9-4.7l5-2.12a3.35,3.35,0,0,1,4.44,2,3.69,3.69,0,0,1-1.9,4.7h0Z" transform="translate(-1309 -2177)"/><path class="cls-55" d="M1646.9,2778.57l-4.54,2.57-.1.05a3.3,3.3,0,0,1-4.59-1.48,3.71,3.71,0,0,1,1.39-4.87l4.73-2.68a3.31,3.31,0,0,1,4.61,1.48,3.72,3.72,0,0,1-1.4,4.88h0Z" transform="translate(-1309 -2177)"/><path class="cls-56" d="M1632,2787.7l-4.28,3.05-.09.05a3.26,3.26,0,0,1-4.69-1,3.73,3.73,0,0,1,.92-5l4.45-3.16a3.27,3.27,0,0,1,4.7,1,3.74,3.74,0,0,1-.92,5h0Z" transform="translate(-1309 -2177)"/><path class="cls-57" d="M1618.08,2798.35l-4,3.46-.07.06a3.25,3.25,0,0,1-4.75-.51,3.72,3.72,0,0,1,.48-5l4.14-3.6a3.25,3.25,0,0,1,4.75.51,3.72,3.72,0,0,1-.47,5h0Z" transform="translate(-1309 -2177)"/><path class="cls-58" d="M1605.08,2810.33l-3.7,3.82-.07.07a3.22,3.22,0,0,1-4.74-.07,3.71,3.71,0,0,1,0-5l3.83-4a3.22,3.22,0,0,1,4.75.06,3.72,3.72,0,0,1,0,5h0Z" transform="translate(-1309 -2177)"/><path class="cls-59" d="M1593.08,2823.46l-3.4,4.14,0,.06a3.21,3.21,0,0,1-4.72.35,3.7,3.7,0,0,1-.33-5l3.5-4.28a3.23,3.23,0,0,1,4.73-.35,3.71,3.71,0,0,1,.33,5h0Z" transform="translate(-1309 -2177)"/><path class="cls-60" d="M1582.1,2837.59,1579,2842l0,.06a3.21,3.21,0,0,1-4.66.73,3.66,3.66,0,0,1-.69-4.94l3.18-4.55a3.22,3.22,0,0,1,4.67-.74,3.68,3.68,0,0,1,.69,4.95h0Z" transform="translate(-1309 -2177)"/><path class="cls-61" d="M1572.16,2852.58l-2.78,4.65,0,.06a3.21,3.21,0,0,1-4.58,1.09,3.65,3.65,0,0,1-1-4.86l2.85-4.78a3.22,3.22,0,0,1,4.59-1.09,3.65,3.65,0,0,1,1,4.86h0Z" transform="translate(-1309 -2177)"/><path class="cls-62" d="M1563.26,2868.31l-2.45,4.84,0,.07a3.21,3.21,0,0,1-4.48,1.43,3.61,3.61,0,0,1-1.34-4.74l2.51-5a3.23,3.23,0,0,1,4.49-1.44,3.63,3.63,0,0,1,1.35,4.76h0Z" transform="translate(-1309 -2177)"/><path class="cls-63" d="M1555.46,2884.67l-2.12,5,0,.06a3.23,3.23,0,0,1-4.36,1.76,3.56,3.56,0,0,1-1.65-4.61l2.17-5.16a3.22,3.22,0,0,1,4.36-1.76,3.59,3.59,0,0,1,1.66,4.62h0Z" transform="translate(-1309 -2177)"/><path class="cls-64" d="M1548.77,2901.57l-1.79,5.16,0,.07a3.24,3.24,0,0,1-4.21,2.07,3.55,3.55,0,0,1-2-4.47l1.83-5.29a3.24,3.24,0,0,1,4.22-2.08,3.55,3.55,0,0,1,2,4.47h0Z" transform="translate(-1309 -2177)"/><path class="cls-65" d="M1543.19,2918.93l-1.46,5.28,0,.07a3.24,3.24,0,0,1-4,2.35,3.5,3.5,0,0,1-2.22-4.29l1.48-5.42a3.25,3.25,0,0,1,4.06-2.36,3.51,3.51,0,0,1,2.23,4.3h0Z" transform="translate(-1309 -2177)"/><path class="cls-66" d="M1538.72,2936.65l-1.12,5.37v.07a3.26,3.26,0,0,1-3.88,2.62,3.45,3.45,0,0,1-2.48-4.11l1.14-5.51a3.27,3.27,0,0,1,3.88-2.63,3.46,3.46,0,0,1,2.49,4.11h0Z" transform="translate(-1309 -2177)"/><path class="cls-67" d="M1535.37,2954.65l-.78,5.44v.07a3.28,3.28,0,0,1-3.7,2.88,3.41,3.41,0,0,1-2.71-3.92l.8-5.58a3.27,3.27,0,0,1,3.69-2.88,3.42,3.42,0,0,1,2.72,3.92h0Z" transform="translate(-1309 -2177)"/><path class="cls-68" d="M1533.14,2972.86l-.45,5.49v.07a3.29,3.29,0,0,1-3.5,3.11,3.37,3.37,0,0,1-2.93-3.71l.45-5.62a3.3,3.3,0,0,1,3.5-3.12,3.38,3.38,0,0,1,3,3.71h0Z" transform="translate(-1309 -2177)"/><path class="cls-69" d="M1532,2991.18l-.12,5.52v.06a3.22,3.22,0,1,1-6.43-.15l.11-5.64a3.23,3.23,0,1,1,6.44.14h0Z" transform="translate(-1309 -2177)"/><path class="cls-70" d="M1532,3009.55l.22,5.51v.07a3.32,3.32,0,0,1-3.07,3.53,3.28,3.28,0,0,1-3.33-3.25l-.23-5.64a3.34,3.34,0,0,1,3.07-3.54,3.28,3.28,0,0,1,3.34,3.25h0Z" transform="translate(-1309 -2177)"/><path class="cls-71" d="M1533.12,3027.88l.55,5.49v.06a3.35,3.35,0,0,1-2.84,3.72,3.24,3.24,0,0,1-3.51-3l-.57-5.61a3.34,3.34,0,0,1,2.84-3.73,3.23,3.23,0,0,1,3.51,3h0Z" transform="translate(-1309 -2177)"/><path class="cls-72" d="M1535.34,3046.11l.89,5.43v.06a3.36,3.36,0,0,1-2.59,3.9,3.2,3.2,0,0,1-3.67-2.75l-.91-5.56a3.35,3.35,0,0,1,2.58-3.9,3.2,3.2,0,0,1,3.68,2.75h0Z" transform="translate(-1309 -2177)"/><path class="cls-73" d="M1538.68,3064.13l1.22,5.35,0,.07a3.38,3.38,0,0,1-2.34,4,3.16,3.16,0,0,1-3.82-2.47l-1.25-5.49a3.37,3.37,0,0,1,2.33-4,3.16,3.16,0,0,1,3.83,2.47h0Z" transform="translate(-1309 -2177)"/><path class="cls-74" d="M1543.13,3081.87l1.56,5.25,0,.06a3.39,3.39,0,0,1-2.07,4.19,3.12,3.12,0,0,1-4-2.18l-1.6-5.38a3.39,3.39,0,0,1,2.07-4.2,3.12,3.12,0,0,1,3.95,2.19h0Z" transform="translate(-1309 -2177)"/><path class="cls-75" d="M1548.7,3099.23l1.88,5.13,0,.06a3.39,3.39,0,0,1-1.78,4.31,3.08,3.08,0,0,1-4.07-1.88l-1.94-5.25a3.41,3.41,0,0,1,1.78-4.32,3.08,3.08,0,0,1,4.07,1.89h0Z" transform="translate(-1309 -2177)"/><path class="cls-76" d="M1555.37,3116.15l2.22,5,0,.07a3.4,3.4,0,0,1-1.49,4.41A3,3,0,0,1,1552,3124l-2.28-5.09a3.4,3.4,0,0,1,1.48-4.42,3.05,3.05,0,0,1,4.17,1.57h0Z" transform="translate(-1309 -2177)"/><path class="cls-77" d="M1563.15,3132.52l2.55,4.8,0,.06a3.42,3.42,0,0,1-1.19,4.5,3,3,0,0,1-4.23-1.25l-2.63-4.92a3.42,3.42,0,0,1,1.18-4.5,3,3,0,0,1,4.25,1.25h0Z" transform="translate(-1309 -2177)"/><path class="cls-78" d="M1572,3148.27l2.87,4.59,0,.06a3.4,3.4,0,0,1-.87,4.55,3,3,0,0,1-4.29-.92l-3-4.7a3.41,3.41,0,0,1,.87-4.56,3,3,0,0,1,4.3.92h0Z" transform="translate(-1309 -2177)"/><path class="cls-79" d="M1581.94,3163.3l3.17,4.36,0,.06a3.41,3.41,0,0,1-.57,4.59,3,3,0,0,1-4.32-.6l-3.25-4.46a3.4,3.4,0,0,1,.56-4.6,3,3,0,0,1,4.33.59h0Z" transform="translate(-1309 -2177)"/><path class="cls-80" d="M1592.83,3177.57l3.44,4.12,0,0a3.39,3.39,0,0,1-.26,4.6,3,3,0,0,1-4.34-.28l-3.53-4.21a3.41,3.41,0,0,1,.26-4.61,3,3,0,0,1,4.34.27h0Z" transform="translate(-1309 -2177)"/><path class="cls-81" d="M1604.61,3191l3.7,3.86,0,0a3.39,3.39,0,0,1,0,4.59,2.94,2.94,0,0,1-4.33,0l-3.79-4a3.39,3.39,0,0,1,0-4.59,2.94,2.94,0,0,1,4.33,0h0Z" transform="translate(-1309 -2177)"/><path class="cls-82" d="M1617.21,3203.6l3.94,3.6,0,0a3.37,3.37,0,0,1,.32,4.56,2.94,2.94,0,0,1-4.3.34l-4-3.68a3.39,3.39,0,0,1-.32-4.57,2.94,2.94,0,0,1,4.3-.34h0Z" transform="translate(-1309 -2177)"/><path class="cls-83" d="M1630.58,3215.28l4.15,3.32,0,0a3.35,3.35,0,0,1,.59,4.51,2.92,2.92,0,0,1-4.25.63l-4.25-3.39a3.35,3.35,0,0,1-.59-4.51,2.91,2.91,0,0,1,4.25-.64h0Z" transform="translate(-1309 -2177)"/><path class="cls-84" d="M1644.65,3226l4.34,3,0,0a3.32,3.32,0,0,1,.86,4.44,2.91,2.91,0,0,1-4.18.92l-4.45-3.1a3.34,3.34,0,0,1-.87-4.44,2.93,2.93,0,0,1,4.19-.92h0Z" transform="translate(-1309 -2177)"/><path class="cls-85" d="M1659.33,3235.78l4.53,2.74.05,0a3.3,3.3,0,0,1,1.12,4.35,2.91,2.91,0,0,1-4.1,1.19l-4.63-2.78a3.32,3.32,0,0,1-1.13-4.36,2.93,2.93,0,0,1,4.11-1.2h0Z" transform="translate(-1309 -2177)"/><path class="cls-86" d="M1674.59,3244.52l4.67,2.42.06,0a3.28,3.28,0,0,1,1.38,4.25,2.93,2.93,0,0,1-4,1.46l-4.78-2.46a3.28,3.28,0,0,1-1.39-4.26,2.93,2.93,0,0,1,4-1.47h0Z" transform="translate(-1309 -2177)"/><path class="cls-87" d="M1690.33,3252.2l4.82,2.1,0,0a3.22,3.22,0,0,1,1.63,4.12,2.91,2.91,0,0,1-3.88,1.73L1688,3258a3.24,3.24,0,0,1-1.64-4.13,2.94,2.94,0,0,1,3.9-1.73h0Z" transform="translate(-1309 -2177)"/><path class="cls-88" d="M1706.52,3258.79l4.94,1.75,0,0a3.19,3.19,0,0,1,1.87,4,2.92,2.92,0,0,1-3.75,2l-5.05-1.78a3.2,3.2,0,0,1-1.88-4,3,3,0,0,1,3.76-2h0Z" transform="translate(-1309 -2177)"/><path class="cls-89" d="M1723.08,3264.23l5,1.4.06,0a3.16,3.16,0,0,1,2.11,3.83,3,3,0,0,1-3.61,2.23l-5.14-1.43a3.16,3.16,0,0,1-2.12-3.83,3,3,0,0,1,3.62-2.24h0Z" transform="translate(-1309 -2177)"/><path class="cls-90" d="M1739.93,3268.48l5.1,1h.06a3.13,3.13,0,0,1,2.33,3.66,3,3,0,0,1-3.44,2.48l-5.22-1.06a3.13,3.13,0,0,1-2.35-3.66,3,3,0,0,1,3.45-2.48h.07Z" transform="translate(-1309 -2177)"/><path class="cls-91" d="M1757,3271.52l5.16.66h.06a3.08,3.08,0,0,1,2.56,3.46,3,3,0,0,1-3.26,2.71l-5.28-.67a3.08,3.08,0,0,1-2.56-3.46,3,3,0,0,1,3.26-2.72h.06Z" transform="translate(-1309 -2177)"/><path class="cls-92" d="M1774.23,3273.28l5.19.28h.06a3,3,0,0,1,2.77,3.25,3,3,0,0,1-3.06,2.94l-5.31-.28a3,3,0,0,1-2.78-3.25,3,3,0,0,1,3.06-2.94h.07Z" transform="translate(-1309 -2177)"/><path class="cls-93" d="M1791.54,3273.75l5.19-.11h0a3,3,0,0,1,3,3,3,3,0,0,1-2.84,3.15l-5.31.12a3.09,3.09,0,0,1-.13-6.17h.07Z" transform="translate(-1309 -2177)"/><path class="cls-94" d="M1808.84,3273l5.19-.47h0a3,3,0,0,1,3.13,2.8,3,3,0,0,1-2.63,3.31l-5.29.49a3,3,0,0,1-3.14-2.79,3,3,0,0,1,2.63-3.33h.06Z" transform="translate(-1309 -2177)"/><path class="cls-95" d="M1826.09,3271l5.14-.81h0a2.9,2.9,0,0,1,3.27,2.57,3,3,0,0,1-2.42,3.47l-5.25.83a2.92,2.92,0,0,1-3.28-2.57A3,3,0,0,1,1826,3271h.06Z" transform="translate(-1309 -2177)"/><path class="cls-96" d="M1843.19,3267.92l5.1-1.13h0a2.88,2.88,0,0,1,3.39,2.36,3,3,0,0,1-2.22,3.59l-5.19,1.16a2.89,2.89,0,0,1-3.4-2.35,3.05,3.05,0,0,1,2.22-3.61h0Z" transform="translate(-1309 -2177)"/><path class="cls-97" d="M1860.11,3263.81l5-1.42h0a2.83,2.83,0,0,1,3.49,2.15,3,3,0,0,1-2,3.7l-5.12,1.45a2.85,2.85,0,0,1-3.5-2.14,3.06,3.06,0,0,1,2-3.71h0Z" transform="translate(-1309 -2177)"/><path class="cls-98" d="M1876.82,3258.76l5-1.7h0a2.81,2.81,0,0,1,3.58,1.95,3.05,3.05,0,0,1-1.84,3.79l-5,1.72a2.82,2.82,0,0,1-3.58-1.94,3.06,3.06,0,0,1,1.84-3.8h0Z" transform="translate(-1309 -2177)"/><path class="cls-99" d="M1893.28,3252.83l4.89-1.93,0,0a2.79,2.79,0,0,1,3.64,1.76,3.07,3.07,0,0,1-1.66,3.86l-5,2a2.79,2.79,0,0,1-3.64-1.76,3.05,3.05,0,0,1,1.65-3.86h0Z" transform="translate(-1309 -2177)"/><path class="cls-100" d="M1909.49,3246.12l4.82-2.15,0,0a2.76,2.76,0,0,1,3.68,1.59,3,3,0,0,1-1.49,3.91l-4.87,2.19a2.77,2.77,0,0,1-3.7-1.59,3.06,3.06,0,0,1,1.5-3.91h0Z" transform="translate(-1309 -2177)"/><path class="cls-101" d="M1925.44,3238.71l4.74-2.35h0a2.74,2.74,0,0,1,3.72,1.43,3,3,0,0,1-1.35,3.95l-4.78,2.38a2.73,2.73,0,0,1-3.73-1.43,3,3,0,0,1,1.34-3.95h0Z" transform="translate(-1309 -2177)"/><path class="cls-102" d="M1941.14,3230.68l4.66-2.52,0,0a2.72,2.72,0,0,1,3.75,1.29,3,3,0,0,1-1.21,4l-4.7,2.56a2.73,2.73,0,0,1-3.76-1.29,3,3,0,0,1,1.21-4h0Z" transform="translate(-1309 -2177)"/><path class="cls-103" d="M1956.58,3222.09l4.59-2.67h0a2.69,2.69,0,0,1,3.77,1.16,3,3,0,0,1-1.09,4l-4.63,2.71a2.7,2.7,0,0,1-3.78-1.16,3,3,0,0,1,1.1-4h0Z" transform="translate(-1309 -2177)"/><path class="cls-104" d="M1971.79,3213l4.51-2.81h0a2.67,2.67,0,0,1,3.78,1.05,3,3,0,0,1-1,4l-4.55,2.83a2.68,2.68,0,0,1-3.79-1,3.05,3.05,0,0,1,1-4h0Z" transform="translate(-1309 -2177)"/><path class="cls-105" d="M1986.77,3203.52l4.45-2.92h0a2.66,2.66,0,0,1,3.79.94,3,3,0,0,1-.89,4l-4.48,2.95a2.67,2.67,0,0,1-3.8-.94,3,3,0,0,1,.89-4h0Z" transform="translate(-1309 -2177)"/><path class="cls-106" d="M2001.55,3193.66l4.4-3h0a2.65,2.65,0,0,1,3.79.86,3,3,0,0,1-.81,4l-4.42,3.05a2.65,2.65,0,0,1-3.79-.85,3,3,0,0,1,.8-4h0Z" transform="translate(-1309 -2177)"/><path class="cls-107" d="M2016.15,3183.47l4.34-3.11h0a2.64,2.64,0,0,1,3.79.78,3,3,0,0,1-.74,4l-4.36,3.13a2.63,2.63,0,0,1-3.79-.77,3,3,0,0,1,.73-4h0Z" transform="translate(-1309 -2177)"/><path class="cls-108" d="M2030.58,3173l4.31-3.18h0a2.61,2.61,0,0,1,3.77.71,3,3,0,0,1-.67,4l-4.32,3.21a2.61,2.61,0,0,1-3.78-.71,3,3,0,0,1,.67-4h0Z" transform="translate(-1309 -2177)"/><path class="cls-109" d="M2044.89,3162.33l4.26-3.24a2.61,2.61,0,0,1,3.77.65,3,3,0,0,1-.62,4L2048,3167a2.6,2.6,0,0,1-3.77-.66,3,3,0,0,1,.62-4Z" transform="translate(-1309 -2177)"/><path class="cls-110" d="M2059.08,3151.48l4.24-3.28a2.58,2.58,0,0,1,3.75.61,3,3,0,0,1-.57,4l-4.25,3.3a2.59,2.59,0,0,1-3.76-.62,3,3,0,0,1,.58-4Z" transform="translate(-1309 -2177)"/><path class="cls-111" d="M2073.17,3140.49l4.21-3.33a2.57,2.57,0,0,1,3.74.57,3,3,0,0,1-.54,4l-4.21,3.34a2.58,2.58,0,0,1-3.75-.57,3,3,0,0,1,.54-4Z" transform="translate(-1309 -2177)"/><path class="cls-112" d="M2087.16,3129.35l4.18-3.37a2.55,2.55,0,0,1,3.72.53,2.92,2.92,0,0,1-.5,3.95l-4.18,3.39a2.56,2.56,0,0,1-3.73-.53,2.94,2.94,0,0,1,.5-4Z" transform="translate(-1309 -2177)"/><path class="cls-113" d="M2101,3118.07l4.15-3.41a2.55,2.55,0,0,1,3.71.49,2.91,2.91,0,0,1-.46,3.94l-4.15,3.43a2.56,2.56,0,0,1-3.72-.49,2.93,2.93,0,0,1,.47-4Z" transform="translate(-1309 -2177)"/><path class="cls-114" d="M2114.83,3106.66l4.11-3.45a2.54,2.54,0,0,1,3.7.44,2.91,2.91,0,0,1-.42,3.93l-4.12,3.47a2.54,2.54,0,0,1-3.71-.45,2.92,2.92,0,0,1,.43-3.93Z" transform="translate(-1309 -2177)"/><path class="cls-115" d="M2128.51,3095.11l4.08-3.49a2.52,2.52,0,0,1,3.69.4,2.9,2.9,0,0,1-.39,3.92l-4.09,3.5a2.52,2.52,0,0,1-3.69-.41,2.89,2.89,0,0,1,.39-3.91Z" transform="translate(-1309 -2177)"/><path class="cls-116" d="M2142.09,3083.42l4-3.53a2.51,2.51,0,0,1,3.67.37,2.89,2.89,0,0,1-.35,3.9l-4.06,3.54a2.51,2.51,0,0,1-3.68-.37,2.9,2.9,0,0,1,.36-3.9Z" transform="translate(-1309 -2177)"/><path class="cls-117" d="M2155.57,3071.6l4-3.57a2.49,2.49,0,0,1,3.65.33,2.87,2.87,0,0,1-.32,3.88l-4,3.59a2.5,2.5,0,0,1-3.66-.34,2.87,2.87,0,0,1,.32-3.88Z" transform="translate(-1309 -2177)"/><path class="cls-118" d="M2169,3059.65l4-3.61a2.48,2.48,0,0,1,3.64.3,2.85,2.85,0,0,1-.29,3.86l-4,3.62a2.49,2.49,0,0,1-3.65-.3,2.86,2.86,0,0,1,.29-3.87Z" transform="translate(-1309 -2177)"/><path class="cls-119" d="M2182.23,3047.57l4-3.64a2.47,2.47,0,0,1,3.63.26,2.84,2.84,0,0,1-.25,3.84l-4,3.66a2.48,2.48,0,0,1-3.63-.26,2.85,2.85,0,0,1,.25-3.85Z" transform="translate(-1309 -2177)"/><path class="cls-120" d="M2195.4,3035.37l3.93-3.68a2.46,2.46,0,0,1,3.61.23,2.82,2.82,0,0,1-.21,3.82l-3.94,3.7a2.45,2.45,0,0,1-3.61-.23,2.83,2.83,0,0,1,.21-3.83Z" transform="translate(-1309 -2177)"/><path class="cls-121" d="M2208.47,3023.05l3.91-3.72a2.44,2.44,0,0,1,3.59.19,2.81,2.81,0,0,1-.19,3.81l-3.9,3.74a2.45,2.45,0,0,1-3.6-.2,2.81,2.81,0,0,1,.19-3.81Z" transform="translate(-1309 -2177)"/><path class="cls-122" d="M2221.45,3010.61l3.87-3.76a2.43,2.43,0,0,1,3.57.16,2.79,2.79,0,0,1-.15,3.79l-3.88,3.77a2.43,2.43,0,0,1-3.58-.16,2.82,2.82,0,0,1,.16-3.8Z" transform="translate(-1309 -2177)"/><path class="cls-123" d="M2234.32,2998l3.84-3.79a2.42,2.42,0,0,1,3.56.13,2.79,2.79,0,0,1-.12,3.77l-3.85,3.81a2.41,2.41,0,0,1-3.56-.13,2.79,2.79,0,0,1,.12-3.78Z" transform="translate(-1309 -2177)"/><path class="cls-124" d="M2247.09,2985.36l3.81-3.82a2.41,2.41,0,0,1,3.54.09,2.78,2.78,0,0,1-.09,3.76l-3.81,3.84a2.41,2.41,0,0,1-3.55-.1,2.78,2.78,0,0,1,.09-3.76Z" transform="translate(-1309 -2177)"/><path class="cls-125" d="M2259.76,2972.57l3.78-3.86a2.39,2.39,0,0,1,3.52.06,2.76,2.76,0,0,1-.06,3.74l-3.78,3.87a2.4,2.4,0,0,1-3.53-.06,2.76,2.76,0,0,1,.06-3.74Z" transform="translate(-1309 -2177)"/><path class="cls-126" d="M2272.33,2959.66l3.76-3.89a2.38,2.38,0,0,1,3.5,0,2.75,2.75,0,0,1,0,3.72l-3.76,3.91a2.39,2.39,0,0,1-3.51,0,2.74,2.74,0,0,1,0-3.72Z" transform="translate(-1309 -2177)"/><path class="cls-127" d="M2284.81,2946.65l3.72-3.93a2.36,2.36,0,0,1,3.48,0,2.73,2.73,0,0,1,0,3.7l-3.72,3.94a2.38,2.38,0,0,1-3.5,0,2.74,2.74,0,0,1,0-3.71Z" transform="translate(-1309 -2177)"/><path class="cls-128" d="M2297.18,2933.52l3.69-4a2.37,2.37,0,0,1,3.47,0,2.72,2.72,0,0,1,0,3.68l-3.69,4a2.35,2.35,0,0,1-3.47,0,2.71,2.71,0,0,1,0-3.68Z" transform="translate(-1309 -2177)"/><path class="cls-129" d="M2309.45,2920.29l3.67-4a2.34,2.34,0,0,1,3.45-.06,2.71,2.71,0,0,1,0,3.66l-3.67,4a2.34,2.34,0,0,1-3.45.06,2.7,2.7,0,0,1-.05-3.66Z" transform="translate(-1309 -2177)"/><path class="cls-130" d="M2321.63,2907l3.63-4a2.33,2.33,0,0,1,3.43-.08,2.67,2.67,0,0,1,.08,3.63l-3.63,4a2.33,2.33,0,0,1-3.44.08,2.69,2.69,0,0,1-.08-3.64Z" transform="translate(-1309 -2177)"/><path class="cls-131" d="M2333.71,2893.51l3.6-4.05a2.31,2.31,0,0,1,3.41-.11,2.68,2.68,0,0,1,.11,3.62l-3.61,4.06a2.31,2.31,0,0,1-3.41.11,2.67,2.67,0,0,1-.11-3.62Z" transform="translate(-1309 -2177)"/><path class="cls-132" d="M2345.69,2880l3.57-4.08a2.29,2.29,0,0,1,3.39-.14,2.64,2.64,0,0,1,.14,3.59l-3.58,4.1a2.32,2.32,0,0,1-3.4.14,2.67,2.67,0,0,1-.13-3.61Z" transform="translate(-1309 -2177)"/><path class="cls-133" d="M2357.57,2866.34l3.55-4.11a2.29,2.29,0,0,1,3.37-.17,2.65,2.65,0,0,1,.15,3.58l-3.54,4.12a2.3,2.3,0,0,1-3.38.17,2.64,2.64,0,0,1-.16-3.58Z" transform="translate(-1309 -2177)"/><path class="cls-134" d="M2369.36,2852.61l3.51-4.14a2.27,2.27,0,0,1,3.35-.19,2.62,2.62,0,0,1,.19,3.55l-3.52,4.16a2.29,2.29,0,0,1-3.36.19,2.62,2.62,0,0,1-.18-3.56Z" transform="translate(-1309 -2177)"/><path class="cls-135" d="M2381,2838.78l3.49-4.16a2.26,2.26,0,0,1,3.33-.22,2.61,2.61,0,0,1,.21,3.53l-3.49,4.18a2.27,2.27,0,0,1-3.34.22,2.61,2.61,0,0,1-.2-3.54Z" transform="translate(-1309 -2177)"/><path class="cls-136" d="M2392.63,2824.86l3.46-4.19a2.26,2.26,0,0,1,3.32-.24,2.59,2.59,0,0,1,.22,3.51l-3.46,4.21a2.25,2.25,0,0,1-3.31.24,2.6,2.6,0,0,1-.23-3.52Z" transform="translate(-1309 -2177)"/><path class="cls-137" d="M2404.13,2810.86l3.43-4.22a2.24,2.24,0,0,1,3.29-.27,2.58,2.58,0,0,1,.25,3.49l-3.43,4.24a2.26,2.26,0,0,1-3.3.26,2.59,2.59,0,0,1-.25-3.5Z" transform="translate(-1309 -2177)"/><path class="cls-138" d="M2415.53,2796.76l3.4-4.25a2.24,2.24,0,0,1,3.27-.29,2.59,2.59,0,0,1,.28,3.48l-3.41,4.25a2.23,2.23,0,0,1-3.27.29,2.55,2.55,0,0,1-.28-3.47Z" transform="translate(-1309 -2177)"/><path class="cls-139" d="M2426.83,2782.58l3.37-4.27a2.23,2.23,0,0,1,3.26-.32,2.55,2.55,0,0,1,.29,3.45l-3.37,4.29a2.22,2.22,0,0,1-3.26.31,2.56,2.56,0,0,1-.29-3.46Z" transform="translate(-1309 -2177)"/><path class="cls-140" d="M2438,2768.31l3.34-4.29a2.22,2.22,0,0,1,3.24-.34,2.54,2.54,0,0,1,.31,3.43l-3.34,4.31a2.21,2.21,0,0,1-3.24.33,2.55,2.55,0,0,1-.32-3.43Z" transform="translate(-1309 -2177)"/><path class="cls-141" d="M2449.15,2754l3.32-4.32a2.2,2.2,0,0,1,3.22-.35,2.52,2.52,0,0,1,.33,3.4l-3.32,4.34a2.2,2.2,0,0,1-3.22.35,2.52,2.52,0,0,1-.33-3.41Z" transform="translate(-1309 -2177)"/><path class="cls-142" d="M2460.19,2739.54l3.3-4.34a2.18,2.18,0,0,1,3.19-.37,2.52,2.52,0,0,1,.35,3.39l-3.3,4.35a2.19,2.19,0,0,1-3.2.36,2.51,2.51,0,0,1-.34-3.39Z" transform="translate(-1309 -2177)"/><path class="cls-143" d="M2471.17,2725.06l3.28-4.35a2.18,2.18,0,0,1,3.18-.37,2.49,2.49,0,0,1,.35,3.36l-3.28,4.36a2.18,2.18,0,0,1-3.18.38,2.5,2.5,0,0,1-.36-3.37Z" transform="translate(-1309 -2177)"/><path class="cls-144" d="M2482.11,2710.55l3.28-4.35a2.15,2.15,0,0,1,3.15-.38,2.48,2.48,0,0,1,.36,3.34l-3.27,4.37a2.16,2.16,0,0,1-3.16.38,2.48,2.48,0,0,1-.36-3.35Z" transform="translate(-1309 -2177)"/><path class="cls-145" d="M2493,2696l3.27-4.36a2.15,2.15,0,0,1,3.14-.37,2.46,2.46,0,0,1,.36,3.32l-3.28,4.36a2.14,2.14,0,0,1-3.14.38,2.48,2.48,0,0,1-.36-3.33Z" transform="translate(-1309 -2177)"/><path class="cls-146" d="M2504,2681.5l3.28-4.35a2.13,2.13,0,0,1,3.12-.37,2.44,2.44,0,0,1,.35,3.3l-3.28,4.36a2.13,2.13,0,0,1-3.12.38,2.45,2.45,0,0,1-.35-3.31Z" transform="translate(-1309 -2177)"/><path class="cls-147" d="M2514.92,2667l3.3-4.35a2.12,2.12,0,0,1,3.1-.35,2.43,2.43,0,0,1,.34,3.28l-3.29,4.35a2.12,2.12,0,0,1-3.1.37,2.43,2.43,0,0,1-.35-3.29Z" transform="translate(-1309 -2177)"/><path class="cls-148" d="M2525.92,2652.51l3.32-4.33a2.1,2.1,0,0,1,3.08-.34,2.41,2.41,0,0,1,.32,3.27l-3.3,4.33a2.11,2.11,0,0,1-3.09.35,2.42,2.42,0,0,1-.33-3.27Z" transform="translate(-1309 -2177)"/><path class="cls-149" d="M2537,2638.09l3.33-4.32a2.1,2.1,0,0,1,3.07-.32,2.4,2.4,0,0,1,.3,3.25l-3.32,4.32a2.1,2.1,0,0,1-3.07.33,2.41,2.41,0,0,1-.32-3.26Z" transform="translate(-1309 -2177)"/><path class="cls-150" d="M2548.13,2623.73l3.36-4.3a2.1,2.1,0,0,1,3.06-.3,2.41,2.41,0,0,1,.28,3.24l-3.35,4.29a2.09,2.09,0,0,1-3.06.31,2.4,2.4,0,0,1-.29-3.24Z" transform="translate(-1309 -2177)"/><path class="cls-151" d="M2559.38,2609.45l3.4-4.26a2.05,2.05,0,0,1,3-.27,2.38,2.38,0,0,1,.25,3.22l-3.38,4.26a2.07,2.07,0,0,1-3,.28,2.39,2.39,0,0,1-.27-3.22Z" transform="translate(-1309 -2177)"/><path class="cls-152" d="M2570.75,2595.28l3.43-4.23a2.06,2.06,0,0,1,3-.24,2.36,2.36,0,0,1,.22,3.21l-3.42,4.22a2,2,0,0,1-3,.25,2.36,2.36,0,0,1-.24-3.2Z" transform="translate(-1309 -2177)"/><path class="cls-153" d="M2582.25,2581.23l3.49-4.19a2,2,0,0,1,3-.2,2.37,2.37,0,0,1,.19,3.19l-3.47,4.18a2.05,2.05,0,0,1-3,.22,2.35,2.35,0,0,1-.2-3.19Z" transform="translate(-1309 -2177)"/><path class="cls-154" d="M2593.92,2567.33l3.53-4.14a2,2,0,0,1,3-.16,2.34,2.34,0,0,1,.15,3.17l-3.52,4.13a2,2,0,0,1-3,.18,2.34,2.34,0,0,1-.17-3.17Z" transform="translate(-1309 -2177)"/><path class="cls-155" d="M2605.77,2553.59l3.59-4.09a2,2,0,0,1,3-.11,2.33,2.33,0,0,1,.1,3.15h0l-3.57,4.07h0a2,2,0,0,1-3,.12,2.34,2.34,0,0,1-.11-3.16Z" transform="translate(-1309 -2177)"/><path class="cls-156" d="M2617.81,2540l3.65-4a2,2,0,0,1,2.95-.06,2.3,2.3,0,0,1,.06,3.13h0l-3.63,4h0a2,2,0,0,1-3,.07,2.32,2.32,0,0,1-.06-3.14Z" transform="translate(-1309 -2177)"/><path class="cls-157" d="M2630.06,2526.7l3.72-4a2,2,0,0,1,2.94,0,2.29,2.29,0,0,1,0,3.11h0l-3.7,3.94h0a2,2,0,0,1-2.94,0,2.3,2.3,0,0,1,0-3.12Z" transform="translate(-1309 -2177)"/><path class="cls-158" d="M2642.55,2513.6l3.79-3.88a2,2,0,0,1,2.92.06,2.28,2.28,0,0,1-.05,3.09h0l-3.77,3.87h0a2,2,0,0,1-2.92-.06,2.28,2.28,0,0,1,.05-3.1Z" transform="translate(-1309 -2177)"/><path class="cls-159" d="M2655.29,2500.77l3.87-3.79a2,2,0,0,1,2.9.12,2.26,2.26,0,0,1-.12,3.07h0l-3.84,3.78h0a2,2,0,0,1-2.91-.12,2.27,2.27,0,0,1,.12-3.08Z" transform="translate(-1309 -2177)"/><path class="cls-160" d="M2668.29,2488.24l4-3.7a2,2,0,0,1,2.87.2,2.25,2.25,0,0,1-.18,3.05h0l-3.93,3.69h0a2,2,0,0,1-2.88-.19,2.25,2.25,0,0,1,.18-3.06Z" transform="translate(-1309 -2177)"/><path class="cls-161" d="M2681.57,2476l4-3.6a1.94,1.94,0,0,1,2.85.27,2.23,2.23,0,0,1-.25,3h0l-4,3.58h0a2,2,0,0,1-2.86-.26,2.24,2.24,0,0,1,.25-3Z" transform="translate(-1309 -2177)"/><path class="cls-162" d="M2695.16,2464.19l4.13-3.47a1.93,1.93,0,0,1,2.82.34,2.22,2.22,0,0,1-.32,3h0l-4.1,3.46h0a2,2,0,0,1-2.84-.34,2.24,2.24,0,0,1,.33-3Z" transform="translate(-1309 -2177)"/><path class="cls-163" d="M2709,2452.75l4.22-3.34a1.92,1.92,0,0,1,2.8.42,2.21,2.21,0,0,1-.4,3h0l-4.19,3.33h0a1.93,1.93,0,0,1-2.81-.42,2.21,2.21,0,0,1,.4-3Z" transform="translate(-1309 -2177)"/><path class="cls-164" d="M2723.23,2441.75l4.32-3.21a1.92,1.92,0,0,1,2.77.51,2.2,2.2,0,0,1-.49,2.94h0l-4.29,3.2h0a1.92,1.92,0,0,1-2.77-.51,2.18,2.18,0,0,1,.48-2.94Z" transform="translate(-1309 -2177)"/><path class="cls-165" d="M2737.74,2431.21l4.42-3.06a1.9,1.9,0,0,1,2.73.61,2.16,2.16,0,0,1-.57,2.89h0l-4.38,3.05h0a1.91,1.91,0,0,1-2.74-.6,2.17,2.17,0,0,1,.57-2.9Z" transform="translate(-1309 -2177)"/><path class="cls-166" d="M2752.58,2421.19l4.51-2.9a1.89,1.89,0,0,1,2.69.7,2.14,2.14,0,0,1-.66,2.85h0l-4.48,2.89h0a1.89,1.89,0,0,1-2.7-.7,2.16,2.16,0,0,1,.66-2.86Z" transform="translate(-1309 -2177)"/><path class="cls-167" d="M2767.73,2411.72l4.61-2.74a1.89,1.89,0,0,1,2.65.8,2.14,2.14,0,0,1-.75,2.81h0l-4.56,2.71,0,0a1.91,1.91,0,0,1-2.66-.8,2.14,2.14,0,0,1,.75-2.81Z" transform="translate(-1309 -2177)"/><path class="cls-168" d="M2783.2,2402.82l4.7-2.55a1.88,1.88,0,0,1,2.6.9,2.11,2.11,0,0,1-.84,2.76h0l-4.65,2.53h0a1.88,1.88,0,0,1-2.61-.89,2.12,2.12,0,0,1,.84-2.77Z" transform="translate(-1309 -2177)"/><path class="cls-169" d="M2799,2394.55l4.79-2.36a1.88,1.88,0,0,1,2.55,1,2.1,2.1,0,0,1-.93,2.71h0l-4.74,2.34h0a1.88,1.88,0,0,1-2.56-1,2.1,2.1,0,0,1,.93-2.71Z" transform="translate(-1309 -2177)"/><path class="cls-170" d="M2815,2386.93l4.87-2.16a1.87,1.87,0,0,1,2.49,1.09,2.07,2.07,0,0,1-1,2.65h0l-4.83,2.15h0a1.88,1.88,0,0,1-2.5-1.09,2.07,2.07,0,0,1,1-2.65Z" transform="translate(-1309 -2177)"/><polygon class="cls-171" points="1513.16 166.53 1517.25 197.6 1535.33 181.3 1513.16 166.53"/><path class="cls-1" d="M2951.55,2306.17l-69.42,85.32a7.36,7.36,0,0,1-5.26,2.74,7.23,7.23,0,0,1-5.51-2.11L2793.21,2315a3.29,3.29,0,0,1-.76-3.46,3,3,0,0,1,2.74-2.05Z" transform="translate(-1309 -2177)"/><polygon class="cls-171" points="1513.17 166.54 1642.55 129.18 1525.74 179.03 1526.53 187.69 1513.17 166.54"/><polygon class="cls-171" points="1533.25 186.37 1517.25 197.6 1525.74 179.03 1533.25 186.37"/></g></svg>